<?xml version="1.0" encoding="utf-8"?>
<!-- Generator: Adobe Illustrator 15.1.0, SVG Export Plug-In . SVG Version: 6.00 Build 0)  -->
<!DOCTYPE svg PUBLIC "-//W3C//DTD SVG 1.1//EN" "http://www.w3.org/Graphics/SVG/1.1/DTD/svg11.dtd">
<svg version="1.1" id="Calque_1" xmlns="http://www.w3.org/2000/svg" xmlns:xlink="http://www.w3.org/1999/xlink" x="0px" y="0px"
	 width="200px" height="200px" viewBox="0 0 200 200" enable-background="new 0 0 200 200" xml:space="preserve">
<circle fill="#FBDFDD" cx="-1325.501" cy="99.311" r="92.288"/>
<linearGradient id="SVGID_2_" gradientUnits="userSpaceOnUse" x1="-1226.2559" y1="129.917" x2="-1254.6654" y2="15.6507" gradientTransform="matrix(0.4804 -0.1339 0.1878 0.5329 -706.7307 -43.1886)">
	<stop  offset="0.4724" style="stop-color:#FFFFFF"/>
	<stop  offset="0.7114" style="stop-color:#FCE6E4"/>
	<stop  offset="1" style="stop-color:#F7C3BF"/>
</linearGradient>
<polygon opacity="0.4" fill="url(#SVGID_2_)" points="-1228.305,157.938 -1305.496,236.455 -1360.499,148.149 -1286.809,62.473 "/>
<polygon fill="#FFFFFF" points="-1285.238,147.616 -1361.869,147.616 -1361.869,44.354 -1306.732,44.354 -1295.873,58.972 
	-1285.238,64.292 "/>
<g>
	<path fill="#00A597" d="M-1310.436,107.965c-0.693,0.98-1.582,1.738-2.672,2.276c-1.096,0.536-2.281,0.808-3.562,0.808
		c-1.062,0-2.059-0.2-2.986-0.602c-0.932-0.402-1.744-0.948-2.436-1.642c-0.686-0.688-1.234-1.498-1.637-2.427
		c-0.4-0.936-0.599-1.931-0.599-2.989s0.198-2.055,0.599-2.98c0.404-0.934,0.951-1.746,1.637-2.445
		c0.691-0.699,1.504-1.247,2.436-1.65c0.928-0.4,1.924-0.603,2.986-0.603c1.25,0,2.41,0.278,3.477,0.829
		c1.068,0.554,1.957,1.304,2.66,2.254c0.322,0.381,0.484,0.792,0.484,1.229c0,0.257-0.057,0.499-0.17,0.732
		c-0.111,0.234-0.258,0.44-0.434,0.624c-0.18,0.185-0.387,0.334-0.627,0.438c-0.24,0.104-0.49,0.158-0.742,0.158
		c-0.244,0-0.482-0.054-0.73-0.158c-0.234-0.104-0.471-0.274-0.695-0.518c-0.354-0.517-0.809-0.934-1.355-1.253
		c-0.559-0.319-1.172-0.483-1.848-0.483c-0.529,0-1.029,0.1-1.492,0.303c-0.467,0.201-0.875,0.479-1.23,0.83
		c-0.35,0.356-0.627,0.764-0.828,1.226c-0.201,0.468-0.301,0.966-0.301,1.497c0,0.527,0.1,1.023,0.301,1.49
		c0.203,0.469,0.479,0.876,0.828,1.232c0.355,0.352,0.764,0.627,1.23,0.829c0.463,0.202,0.963,0.301,1.492,0.301
		c0.658,0,1.262-0.15,1.809-0.447c0.545-0.291,0.994-0.704,1.348-1.214c0.414-0.42,0.875-0.627,1.373-0.627
		c0.256,0,0.504,0.056,0.748,0.166c0.24,0.115,0.453,0.27,0.637,0.461c0.184,0.189,0.33,0.406,0.432,0.652
		c0.107,0.238,0.16,0.484,0.16,0.744c0,0.178-0.021,0.34-0.062,0.495C-1310.246,107.647-1310.32,107.805-1310.436,107.965z"/>
	<path fill="#00A597" d="M-1302.477,104.282l2.262-7.49c0.111-0.369,0.326-0.647,0.639-0.838c0.312-0.197,0.654-0.289,1.02-0.289
		c0.307,0,0.594,0.054,0.869,0.166c0.367,0.162,0.654,0.39,0.854,0.686c0.203,0.299,0.301,0.632,0.301,0.998
		c0,0.291-0.057,0.558-0.168,0.793l-3.973,11.63c-0.174,0.404-0.422,0.688-0.732,0.858c-0.314,0.167-0.674,0.25-1.07,0.25
		c-0.371-0.016-0.73-0.119-1.076-0.312c-0.342-0.193-0.588-0.468-0.734-0.819l-3.994-11.607c-0.113-0.238-0.17-0.497-0.17-0.766
		c0-0.371,0.098-0.706,0.301-1.003c0.201-0.295,0.486-0.524,0.854-0.686c0.305-0.128,0.602-0.19,0.893-0.19
		c0.367,0,0.705,0.091,1.01,0.289c0.307,0.19,0.52,0.471,0.629,0.838L-1302.477,104.282z"/>
</g>
<g>
	
		<line fill="none" stroke="#00A597" stroke-width="3.7381" stroke-linecap="round" stroke-linejoin="round" stroke-miterlimit="10" x1="-1322.521" y1="127.061" x2="-1296.451" y2="127.061"/>
	
		<line fill="none" stroke="#00A597" stroke-width="3.7381" stroke-linecap="round" stroke-linejoin="round" stroke-miterlimit="10" x1="-1322.521" y1="119.115" x2="-1296.451" y2="119.115"/>
	
		<line fill="none" stroke="#00A597" stroke-width="3.7381" stroke-linecap="round" stroke-linejoin="round" stroke-miterlimit="10" x1="-1322.521" y1="135.002" x2="-1296.451" y2="135.002"/>
</g>
<polygon fill="#E0E0E0" points="-1306.803,43.894 -1306.803,63.831 -1285.311,63.831 "/>
<g>
	<path fill="#18A294" d="M-1347.592,73.146c-2.252-3.874-6.28,4.111,1.269,6.096C-1347.324,76.322-1347.592,73.146-1347.592,73.146z
		"/>
	<path fill="#18A294" d="M-1321.734,73.225c2.271-3.858,6.256,4.151-1.308,6.086C-1322.027,76.4-1321.734,73.225-1321.734,73.225z"
		/>
	<g>
		<path fill="#FBDFDD" d="M-1334.219,88.498c-6.991-0.812-15.144-5.438-15.114-15.805c0.027-9.956,5.728-16.14,14.876-16.14
			c9.196,0.03,15.082,6.382,15.05,16.182c-0.027,9.836-7.342,15.005-14.579,15.764l-0.117,0.012L-1334.219,88.498z"/>
		<path fill="#18A294" d="M-1334.457,57.62c0.018,0,0.035,0,0.053,0c8.91,0.029,13.958,6.202,13.931,15.112
			c-0.025,8.91-6.625,13.972-13.624,14.707c-7.482-0.869-14.196-5.833-14.17-14.743C-1348.242,63.805-1343.333,57.62-1334.457,57.62
			 M-1334.457,55.486L-1334.457,55.486c-9.657,0-15.915,6.753-15.943,17.204c-0.03,10.361,8.043,15.938,16.058,16.868l0.234,0.027
			l0.234-0.025c7.461-0.783,15.504-6.381,15.534-16.823c0.033-10.447-6.269-17.219-16.057-17.251H-1334.457L-1334.457,55.486z"/>
	</g>
	<path fill="#18A294" d="M-1339.162,74.442c-0.002,1.009-0.902,1.822-2.01,1.82c-1.108-0.004-2.004-0.824-2.002-1.836
		c0.004-1.005,0.902-1.82,2.01-1.819C-1340.051,72.611-1339.159,73.434-1339.162,74.442z"/>
	<path fill="#FFFFFF" d="M-1341.034,73.973c0,0.304-0.271,0.551-0.607,0.546c-0.333,0-0.605-0.245-0.605-0.549
		c0.001-0.307,0.274-0.552,0.609-0.552C-1341.301,73.418-1341.034,73.669-1341.034,73.973z"/>
	<path fill="#18A294" d="M-1324.776,74.804c-0.001,1.009-0.904,1.823-2.012,1.82c-1.106-0.002-2-0.824-1.999-1.834
		c0.005-1.008,0.906-1.822,2.013-1.82C-1325.667,72.974-1324.772,73.794-1324.776,74.804z"/>
	<path fill="#FFFFFF" d="M-1326.688,74.5c0,0.305-0.27,0.55-0.601,0.548c-0.339,0-0.606-0.243-0.606-0.551
		c0-0.302,0.271-0.554,0.607-0.549C-1326.956,73.949-1326.685,74.197-1326.688,74.5z"/>
	<g>
		<path fill="#18A294" d="M-1335.765,82.088l1.103,1.249c0.347,0.369,0.761,0.714,1.022,0.711c0.224,0.056,0.603-0.234,0.929-0.633
			c0.33-0.396,0.639-0.86,1.019-1.315c0.004,0.593-0.11,1.169-0.366,1.724c-0.123,0.281-0.306,0.545-0.559,0.796
			c-0.25,0.238-0.665,0.445-1.106,0.411c-0.882-0.14-1.272-0.748-1.566-1.25C-1335.571,83.248-1335.74,82.683-1335.765,82.088z"/>
	</g>
	<path fill="#F7C3BF" d="M-1339.62,78.103c-0.002,0.642-1.057,1.158-2.357,1.152c-1.302-0.004-2.355-0.527-2.354-1.168
		c0.003-0.64,1.061-1.156,2.362-1.152C-1340.667,76.938-1339.616,77.461-1339.62,78.103z"/>
	<ellipse fill="#F7C3BF" cx="-1326.04" cy="78.49" rx="2.356" ry="1.157"/>
	<g>
		<path fill="#18A294" d="M-1324.473,89.29c0.101-0.854,0.255-1.943,0.413-3.063c0.859-6.083,2.297-16.265,0.627-21.244
			l-0.669-1.995l0.236,2.091c0.182,1.606-1.244,4.311-1.99,5.639c-0.192-1.848-0.813-5.253-1.463-6.162l-0.256-0.356l-0.137,0.417
			c-0.211,0.641-0.38,1.429-0.56,2.263c-0.248,1.155-0.503,2.341-0.879,3.185c-0.307-2.183-1.232-4.126-1.807-5.334l-0.293-0.617
			l-0.188,0.481c-0.179,0.458-0.376,1.033-0.588,1.647c-0.483,1.406-1.074,3.122-1.645,3.977c-0.504-0.891-1.343-2.791-1.332-5.555
			l0.003-0.797l-0.416,0.68c-0.563,0.92-1.202,3.089-1.521,4.604c-0.839-1.557-0.948-1.807-0.94-4.495l0.002-0.59l-0.391,0.441
			c-0.812,0.916-1.212,2.882-1.144,5.578c-0.975-1.352-1.846-3.408-1.841-5.441l-0.442-0.039l-0.105,0.594
			c-0.295,1.659-0.809,4.548-1.02,6.012c-1.016-1.719-1.645-5.033-1.299-6.303l-0.419-0.148c-1.696,3.863-1.361,14.219,0.64,23.041
			c-2.125-5.123-4.665-15.594-4.369-18.727l0.093-0.981l-0.506,0.846c-0.316,0.53-0.602,3.341-0.5,5.864
			c-2.096-8.207-0.078-13.465,2.116-16.509c3.127-4.339,7.7-5.879,10.665-5.879c0.804,0,1.542,0.105,2.192,0.313l0.06,0.019
			l0.061-0.015c0.774-0.189,1.584-0.285,2.407-0.285c4.135,0,8.422,2.439,11.186,6.366c2.154,3.059,5.199,9.599,1.953,19.523
			c-0.533-4.36-0.406-6.727-0.32-7.575l-0.443-0.052c-0.566,4.163-3.148,12.247-4.691,17.076
			C-1324.169,88.333-1324.331,88.839-1324.473,89.29z"/>
		<path fill="#18A294" d="M-1336.397,52.637c0.781,0,1.496,0.102,2.124,0.302l0.12,0.039l0.122-0.03
			c0.757-0.185,1.549-0.279,2.354-0.279c4.064,0,8.28,2.403,11.004,6.271c2.055,2.919,4.93,9.048,2.236,18.314
			c-0.391-3.668-0.277-5.7-0.203-6.457c0.02-0.142,0.037-0.28,0.053-0.413l-0.885-0.116c-0.018,0.121-0.035,0.262-0.051,0.408
			c-0.529,3.896-2.84,11.262-4.395,16.138c0.025-0.185,0.053-0.371,0.078-0.558c0.861-6.103,2.304-16.317,0.617-21.346l-1.338-3.99
			l0.473,4.182c0.113,1.003-0.434,2.646-1.629,4.889c-0.255-1.938-0.817-4.722-1.422-5.567l-0.511-0.713l-0.274,0.834
			c-0.214,0.652-0.385,1.445-0.565,2.286c-0.171,0.795-0.355,1.652-0.585,2.381c-0.396-1.877-1.174-3.513-1.683-4.58l-0.072-0.151
			l-0.443-0.932l-0.375,0.962c-0.181,0.464-0.38,1.042-0.591,1.655c-0.424,1.232-0.93,2.705-1.422,3.599
			c-0.489-0.97-1.131-2.702-1.121-5.104l0.006-1.595l-0.832,1.36c-0.523,0.854-1.075,2.638-1.417,4.084
			c-0.572-1.107-0.638-1.559-0.631-3.857l0.003-1.18l-0.783,0.883c-0.95,1.071-1.188,3.221-1.205,4.976
			c-0.775-1.285-1.395-2.997-1.39-4.69l-0.885-0.079l-0.105,0.596c-0.255,1.432-0.672,3.782-0.918,5.344
			c-0.807-1.751-1.266-4.439-0.966-5.539l-0.838-0.296c-1.526,3.476-1.429,12.132,0.032,20.249
			c-1.807-5.445-3.576-13.282-3.335-15.824l0.185-1.963l-1.011,1.692c-0.246,0.411-0.475,2.045-0.539,3.902
			c-1.287-6.976,0.546-11.555,2.526-14.302C-1343.803,54.152-1339.31,52.637-1336.397,52.637 M-1336.397,52.191
			c-6.956,0-18.051,7.787-12.265,25.144c-0.61-2.673-0.201-7.652,0.176-8.283c-0.332,3.514,3.039,16.937,5.313,20.758
			c-2.498-9.417-2.898-20.999-1.158-24.961c-0.4,1.469,0.398,5.393,1.659,6.969c0.131-1.216,0.932-5.663,1.2-7.175
			c-0.007,2.431,1.199,4.834,2.312,6.117c-0.149-2.877,0.206-5.141,1.062-6.105c-0.009,3.035,0.136,3.04,1.263,5.153
			c0.244-1.438,0.975-4.108,1.61-5.146c-0.012,2.875,0.875,4.912,1.533,5.954c0.901-1.036,1.809-4.267,2.461-5.941
			c0.645,1.357,1.749,3.596,1.934,6.112c0.926-1.312,1.218-4.342,1.796-6.1c0.692,0.966,1.42,5.259,1.479,6.773
			c0.432-0.767,2.606-4.384,2.378-6.405c2.363,7.047-1.58,24.754-1.132,25.974c0.823-2.844,4.958-14.878,5.694-20.29
			c0.016-0.153,0.033-0.287,0.051-0.401c-0.016,0.129-0.031,0.263-0.051,0.401c-0.133,1.325-0.16,4.109,0.445,8.572
			c5.795-16.181-4.141-27.087-13.041-27.087c-0.833,0-1.658,0.096-2.46,0.292C-1334.81,52.3-1335.574,52.191-1336.397,52.191
			L-1336.397,52.191z M-1326.022,71.459c-0.053,0.094-0.08,0.145-0.073,0.145c0.005,0,0.029-0.028,0.075-0.087
			C-1326.021,71.498-1326.021,71.479-1326.022,71.459L-1326.022,71.459z M-1348.663,77.335c0.098,0.432,0.223,0.803,0.379,1.086
			C-1348.417,78.054-1348.543,77.693-1348.663,77.335L-1348.663,77.335z"/>
	</g>
	<path fill="#18A294" d="M-1345.005,87.928c0,0-5.093-17.671-1.034-24.039l1.207-8.298c0,0-13.31,9.201-2.528,29.63"/>
	<path fill="#18A294" d="M-1323.191,87.928c0,0,5.092-17.671,1.033-24.039l-1.207-8.298c0,0,13.309,9.201,2.529,29.63"/>
	<defs>
		<filter id="Adobe_OpacityMaskFilter" filterUnits="userSpaceOnUse" x="-1350.511" y="56.248" width="32.699" height="11.829">
			<feColorMatrix  type="matrix" values="1 0 0 0 0  0 1 0 0 0  0 0 1 0 0  0 0 0 1 0"/>
		</filter>
	</defs>
	<mask maskUnits="userSpaceOnUse" x="-1350.511" y="56.248" width="32.699" height="11.829" id="SVGID_1_">
		<g filter="url(#Adobe_OpacityMaskFilter)">
			
				<linearGradient id="SVGID_3_" gradientUnits="userSpaceOnUse" x1="-1128.832" y1="-163.9268" x2="-1128.832" y2="-148.0085" gradientTransform="matrix(1 0 0 -1 -206 -94)">
				<stop  offset="0" style="stop-color:#4A4A49"/>
				<stop  offset="0.7239" style="stop-color:#1D1D1B"/>
			</linearGradient>
			
				<rect x="-1355.602" y="53.366" opacity="0.82" fill="url(#SVGID_3_)" enable-background="new    " width="41.54" height="16.395"/>
		</g>
	</mask>
	<g mask="url(#SVGID_1_)">
		<path fill="#18A294" d="M-1341.87,66.885c-0.904-0.236-1.754-0.489-2.554-0.751"/>
		<path fill="#18A294" d="M-1339.074,67.496c-0.697-0.124-1.372-0.271-2.03-0.429"/>
		<path fill="#18A294" d="M-1344.721,66.036c-2.322-0.774-4.156-1.6-5.278-2.155"/>
		<path fill="#18A294" d="M-1332.44,68.071c-0.795,0.014-1.58-0.012-2.354-0.054"/>
		<path fill="#18A294" d="M-1323.793,66.542c-0.944,0.337-1.891,0.616-2.833,0.833"/>
		<path fill="#18A294" d="M-1328.221,67.691c-0.559,0.091-1.112,0.164-1.666,0.223"/>
		<path fill="#18A294" d="M-1322.002,56.474c-4.148,1.448-13.319,3.679-23.57-0.227c-0.91,0.893-1.771,1.695-2.476,2.896
			c0,0-1.149,1.438-2.463,4.643c1.123,0.556,3.468,1.476,5.79,2.249c0.116-0.439,0.243-0.852,0.39-1.187
			c-0.088,0.325-0.113,0.773-0.095,1.284c0.802,0.264,1.653,0.516,2.555,0.751c0.16-0.92,0.308-1.744,0.396-2.244
			c0,0.828,0.143,1.651,0.369,2.427c0.659,0.157,1.333,0.304,2.03,0.429c0.161-1.29,0.482-2.289,0.974-2.844
			c-0.003,1.616,0.036,2.373,0.246,3.048c0.477,0.072,0.96,0.13,1.452,0.182c0.331-1.242,0.773-2.563,1.178-3.221
			c-0.006,1.296,0.177,2.412,0.434,3.354c0.774,0.042,1.557,0.068,2.353,0.055c0.448-1.201,0.862-2.517,1.207-3.399
			c0.385,0.809,0.928,1.935,1.346,3.24c0.554-0.059,1.108-0.131,1.666-0.223c0.24-1.076,0.447-2.179,0.72-3.005
			c0.306,0.426,0.617,1.494,0.875,2.689c0.942-0.218,1.89-0.498,2.832-0.833c0.133-0.54,0.197-1.052,0.148-1.487
			c0.139,0.404,0.247,0.847,0.346,1.315c1.422-0.541,4.1-1.884,5.488-2.747C-1319.084,60.514-1320.463,58.394-1322.002,56.474z"/>
	</g>
</g>
<circle fill="#FBDFDD" cx="-1040.501" cy="99.311" r="92.288"/>
<circle fill="#FBDFDD" cx="-755.501" cy="99.311" r="92.288"/>
<circle fill="#FBDFDD" cx="-470.078" cy="99.311" r="92.288"/>
<circle fill="#FBDFDD" cx="-185.039" cy="99.311" r="92.288"/>
<circle fill="#FBDFDD" cx="100" cy="99.311" r="92.288"/>
<circle fill="#FBDFDD" cx="385.039" cy="99.311" r="92.288"/>
<g>
	<path fill="#FFFFFF" d="M-1071.042,123.983c-1.455,0-2.635-1.18-2.635-2.635V92.875c0-1.456,1.18-2.635,2.635-2.635h62.929
		c1.455,0,2.635,1.18,2.635,2.635v28.473c0,1.455-1.18,2.635-2.635,2.635H-1071.042z"/>
	<path fill="#FFFFFF" d="M-1008.113,92.875v28.473h-62.929V92.875H-1008.113 M-1008.113,87.605h-62.929
		c-2.911,0-5.271,2.36-5.271,5.271v28.473c0,2.911,2.359,5.271,5.271,5.271h62.929c2.911,0,5.271-2.359,5.271-5.271V92.875
		C-1002.843,89.965-1005.202,87.605-1008.113,87.605L-1008.113,87.605z"/>
</g>
<linearGradient id="SVGID_4_" gradientUnits="userSpaceOnUse" x1="-680.0928" y1="280.1758" x2="-720.2173" y2="118.7903" gradientTransform="matrix(0.4804 -0.1339 0.1878 0.5329 -706.7307 -43.1886)">
	<stop  offset="0.4724" style="stop-color:#FFFFFF"/>
	<stop  offset="0.7114" style="stop-color:#FCE6E4"/>
	<stop  offset="1" style="stop-color:#F7C3BF"/>
</linearGradient>
<polygon opacity="0.4" fill="url(#SVGID_4_)" points="-949.859,147.826 -1027.459,220.272 -1082.462,131.967 -1008.362,52.361 "/>
<g>
	<path fill="#18A294" d="M-1004.693,61.178v8.864c0,3.999-3.253,7.252-7.253,7.252c-3.999,0-7.252-3.253-7.252-7.252v-8.864h-4.298
		v8.864c0,3.999-3.254,7.252-7.253,7.252c-4,0-7.252-3.253-7.252-7.252v-8.864h-4.3v8.864c0,3.999-3.253,7.252-7.252,7.252
		s-7.253-3.253-7.253-7.252v-8.864h-4.298v8.864c0,3.999-3.254,7.252-7.252,7.252c-3.999,0-7.253-3.253-7.253-7.252v-8.864h-7.253
		v70.915h85.421V61.178H-1004.693z"/>
</g>
<g>
	
		<line fill="#18A294" stroke="#FFFFFF" stroke-width="2.7916" stroke-miterlimit="10" x1="-1068.558" y1="53.313" x2="-1068.558" y2="68.625"/>
	<path fill="#18A294" d="M-1068.558,72.653c-1.669,0-3.021-1.804-3.021-4.029V53.313c0-2.225,1.353-4.029,3.021-4.029
		s3.022,1.804,3.022,4.029v15.312C-1065.535,70.85-1066.889,72.653-1068.558,72.653z"/>
</g>
<g>
	
		<line fill="#18A294" stroke="#FFFFFF" stroke-width="2.7916" stroke-miterlimit="10" x1="-1049.53" y1="53.313" x2="-1049.53" y2="68.625"/>
	<path fill="#18A294" d="M-1049.53,72.653c-1.669,0-3.021-1.804-3.021-4.029V53.313c0-2.225,1.353-4.029,3.021-4.029
		c1.67,0,3.022,1.804,3.022,4.029v15.312C-1046.508,70.85-1047.86,72.653-1049.53,72.653z"/>
</g>
<g>
	
		<line fill="#18A294" stroke="#FBDFDD" stroke-width="4" stroke-miterlimit="10" x1="-1030.503" y1="53.313" x2="-1030.503" y2="68.625"/>
	<g>
		<path fill="#18A294" d="M-1030.503,74.653c-2.816,0-5.022-2.648-5.022-6.029V53.313c0-3.381,2.206-6.029,5.022-6.029
			c2.815,0,5.021,2.648,5.021,6.029v15.312C-1025.481,72.005-1027.688,74.653-1030.503,74.653z"/>
		<path fill="#FBDFDD" d="M-1030.503,49.284c1.669,0,3.021,1.804,3.021,4.029v15.312c0,2.225-1.353,4.029-3.021,4.029
			c-1.67,0-3.022-1.804-3.022-4.029V53.313C-1033.525,51.088-1032.173,49.284-1030.503,49.284 M-1030.503,45.284
			c-3.938,0-7.022,3.527-7.022,8.029v15.312c0,4.502,3.085,8.029,7.022,8.029s7.021-3.527,7.021-8.029V53.313
			C-1023.481,48.811-1026.565,45.284-1030.503,45.284L-1030.503,45.284z"/>
	</g>
</g>
<g>
	
		<line fill="#18A294" stroke="#FBDFDD" stroke-width="4" stroke-miterlimit="10" x1="-1011.81" y1="53.646" x2="-1011.81" y2="68.958"/>
	<g>
		<path fill="#18A294" d="M-1011.81,74.986c-2.816,0-5.022-2.648-5.022-6.029V53.646c0-3.381,2.206-6.029,5.022-6.029
			c2.815,0,5.021,2.648,5.021,6.029v15.312C-1006.788,72.338-1008.994,74.986-1011.81,74.986z"/>
		<path fill="#FBDFDD" d="M-1011.81,49.617c1.669,0,3.021,1.804,3.021,4.029v15.312c0,2.225-1.353,4.029-3.021,4.029
			c-1.67,0-3.022-1.804-3.022-4.029V53.646C-1014.832,51.421-1013.479,49.617-1011.81,49.617 M-1011.81,45.617
			c-3.938,0-7.022,3.527-7.022,8.029v15.312c0,4.502,3.085,8.029,7.022,8.029s7.021-3.527,7.021-8.029V53.646
			C-1004.788,49.144-1007.872,45.617-1011.81,45.617L-1011.81,45.617z"/>
	</g>
</g>
<rect x="-1075.877" y="86.965" fill="#FFFFFF" width="69.84" height="38.681"/>
<rect x="-1070.505" y="98.856" fill="none" width="59.644" height="18.144"/>
<text transform="matrix(1 0 0 1 -1070.5049 115.9883)" fill="#18A294" font-family="'Antipasto-ExtraBold'" font-size="26.8944">2016</text>
<linearGradient id="SVGID_5_" gradientUnits="userSpaceOnUse" x1="-144.625" y1="395.1484" x2="-175.6021" y2="270.555" gradientTransform="matrix(0.4804 -0.1339 0.1878 0.5329 -706.7307 -43.1886)">
	<stop  offset="0.4724" style="stop-color:#FFFFFF"/>
	<stop  offset="0.7114" style="stop-color:#FCE6E4"/>
	<stop  offset="1" style="stop-color:#F7C3BF"/>
</linearGradient>
<polygon opacity="0.4" fill="url(#SVGID_5_)" points="-655.117,153.67 -752.937,212.502 -803.408,131.471 -708.802,66.069 "/>
<rect x="-800.507" y="69.713" fill="#18A294" stroke="#18A294" stroke-width="6.693" stroke-linecap="round" stroke-linejoin="round" stroke-miterlimit="10" width="90.719" height="60.158"/>
<g>
	<path fill="#E0E0E0" d="M-754.755,127.266c-13.458-6.593-29.208-6.593-42.666,0c0-17.654,0-35.309,0-52.964
		c13.458-6.593,29.208-6.593,42.666,0C-754.755,91.957-754.755,109.611-754.755,127.266z"/>
</g>
<g>
	<path fill="#E0E0E0" d="M-712.082,127.266c-13.458-6.593-29.208-6.593-42.666,0c0-17.654,0-35.309,0-52.964
		c13.458-6.593,29.208-6.593,42.666,0C-712.082,91.957-712.082,109.611-712.082,127.266z"/>
</g>
<g>
	<path fill="#FFFFFF" d="M-755.214,126.102c-12.011-9.555-26.067-13.226-38.078-11.012c0-17.655,0-35.309,0-52.964
		c12.011-2.213,26.067,1.457,38.078,11.012C-755.214,90.792-755.214,108.447-755.214,126.102z"/>
</g>
<g>
	<path fill="#FFFFFF" d="M-754.752,126.102c12.011-9.555,26.067-13.226,38.078-11.012c0-17.655,0-35.309,0-52.964
		c-12.011-2.213-26.067,1.457-38.078,11.012C-754.752,90.792-754.752,108.447-754.752,126.102z"/>
</g>
<line fill="none" stroke="#E0E0E0" stroke-width="2.688" stroke-linecap="round" stroke-linejoin="round" stroke-miterlimit="10" x1="-755.439" y1="73.843" x2="-755.439" y2="125.459"/>
<polygon fill="none" stroke="#1A171B" stroke-width="5" stroke-linecap="round" stroke-linejoin="round" stroke-miterlimit="10" points="
	-1840.993,20.967 -1914.73,20.967 -1914.73,-24.41 -1879.458,-36.321 -1840.993,-24.41 "/>
<polygon fill="#FFFFFF" points="-1852.338,-16.045 -1879.458,3.951 -1904.237,-15.973 -1904.237,-54.472 -1852.338,-54.472 "/>
<polygon fill="none" stroke="#1A171B" stroke-width="5" stroke-linecap="round" stroke-linejoin="round" stroke-miterlimit="10" points="
	-1852.338,-16.045 -1879.458,3.951 -1904.237,-15.973 -1904.237,-54.472 -1852.338,-54.472 "/>
<polyline fill="none" stroke="#1A171B" stroke-width="5" stroke-linecap="round" stroke-linejoin="round" stroke-miterlimit="10" points="
	-1914.731,-24.41 -1879.458,3.951 -1840.995,-24.41 "/>
<g>
	<defs>
		<rect id="SVGID_6_" x="-2041.649" y="-299.596" width="595.281" height="841.89"/>
	</defs>
	<clipPath id="SVGID_7_">
		<use xlink:href="#SVGID_6_"  overflow="visible"/>
	</clipPath>
	
		<path clip-path="url(#SVGID_7_)" fill="none" stroke="#1A171B" stroke-width="5" stroke-linecap="round" stroke-linejoin="round" stroke-miterlimit="10" d="
		M-1608.003,20.976c0-3.212,1.765-9.211,15.468-9.211"/>
	<path clip-path="url(#SVGID_7_)" fill="#1A171B" d="M-1527.672,8.097c-16.721,0-30.323-13.603-30.323-30.323
		c0-16.72,13.603-30.323,30.323-30.323s30.323,13.603,30.323,30.323C-1497.349-5.506-1510.951,8.097-1527.672,8.097"/>
	<path clip-path="url(#SVGID_7_)" fill="#FFFFFF" d="M-1527.672-50.049c15.365,0,27.822,12.457,27.822,27.823
		c0,15.367-12.457,27.823-27.822,27.823c-15.366,0-27.823-12.456-27.823-27.823C-1555.495-37.592-1543.038-50.049-1527.672-50.049
		 M-1527.672-55.049c-18.1,0-32.823,14.724-32.823,32.823c0,18.099,14.724,32.823,32.823,32.823
		c18.099,0,32.822-14.724,32.822-32.823C-1494.85-40.325-1509.573-55.049-1527.672-55.049"/>
	
		<circle clip-path="url(#SVGID_7_)" fill="none" stroke="#1A171B" stroke-width="5" stroke-linecap="round" stroke-linejoin="round" stroke-miterlimit="10" cx="-1539.321" cy="-153.783" r="27.823"/>
	<path clip-path="url(#SVGID_7_)" fill="#1A171B" d="M-1514.236-18.226c0,7.343-5.952,13.296-13.296,13.296
		s-13.297-5.953-13.297-13.296"/>
	
		<path clip-path="url(#SVGID_7_)" fill="none" stroke="#FFFFFF" stroke-width="5" stroke-linecap="round" stroke-linejoin="round" stroke-miterlimit="10" d="
		M-1514.236-18.226c0,7.343-5.952,13.296-13.296,13.296s-13.297-5.953-13.297-13.296"/>
	
		<line clip-path="url(#SVGID_7_)" fill="none" stroke="#FFFFFF" stroke-width="5" stroke-linecap="round" stroke-linejoin="round" stroke-miterlimit="10" x1="-1540.717" y1="-33.27" x2="-1540.717" y2="-29.02"/>
	
		<line clip-path="url(#SVGID_7_)" fill="none" stroke="#1A171B" stroke-width="5" stroke-linecap="round" stroke-linejoin="round" stroke-miterlimit="10" x1="-1539.321" y1="-168.808" x2="-1539.321" y2="-165.688"/>
	
		<line clip-path="url(#SVGID_7_)" fill="none" stroke="#1A171B" stroke-width="5" stroke-linecap="round" stroke-linejoin="round" stroke-miterlimit="10" x1="-1539.321" y1="-155.314" x2="-1539.321" y2="-136.758"/>
	<line clip-path="url(#SVGID_7_)" fill="#1A171B" x1="-1514.717" y1="-33.27" x2="-1514.717" y2="-29.02"/>
	
		<line clip-path="url(#SVGID_7_)" fill="none" stroke="#FFFFFF" stroke-width="5" stroke-linecap="round" stroke-linejoin="round" stroke-miterlimit="10" x1="-1514.717" y1="-33.27" x2="-1514.717" y2="-29.02"/>
	<polygon clip-path="url(#SVGID_7_)" fill="#1A171B" points="-1937.118,134.177 -1925.465,123.011 -1939.982,119.993 
		-1936.234,104.294 -1950.073,109.622 -1955.426,94.395 -1964.173,106.368 -1976.921,96.469 -1977.786,111.272 -1993.864,109.854 
		-1986.575,122.768 -2000.857,130.285 -1987.937,137.086 -1995.924,150.806 -1981.137,149.7 -1980.407,165.824 -1968.575,156.885 
		-1959.229,170.043 -1954.126,156.121 -1939.143,162.119 -1942.394,147.65 -1926.549,144.577 	"/>
	
		<polygon clip-path="url(#SVGID_7_)" fill="none" stroke="#1A171B" stroke-width="5" stroke-linecap="round" stroke-linejoin="round" stroke-miterlimit="10" points="
		-1937.118,134.177 -1925.465,123.011 -1939.982,119.993 -1936.234,104.294 -1950.073,109.622 -1955.426,94.395 -1964.173,106.368 
		-1976.921,96.469 -1977.786,111.272 -1993.864,109.854 -1986.575,122.768 -2000.857,130.285 -1987.937,137.086 -1995.924,150.806 
		-1981.137,149.7 -1980.407,165.824 -1968.575,156.885 -1959.229,170.043 -1954.126,156.121 -1939.143,162.119 -1942.394,147.65 
		-1926.549,144.577 	"/>
	<path clip-path="url(#SVGID_7_)" fill="#FFFFFF" d="M-1590.097,40.478l-1.397-5.527c0.552-0.346,0.919-0.959,0.919-1.659
		c0-1.082-0.877-1.959-1.96-1.959c-1.082,0-1.959,0.877-1.959,1.959c0,0.645,0.312,1.216,0.793,1.573l-1.271,5.613H-1590.097z"/>
	
		<path clip-path="url(#SVGID_7_)" fill="none" stroke="#1A171B" stroke-width="5" stroke-linecap="round" stroke-linejoin="round" stroke-miterlimit="10" d="
		M-1577.066,20.976c0-3.212-1.765-9.211-15.468-9.211"/>
	<path clip-path="url(#SVGID_7_)" fill="#FFFFFF" d="M-1605.27,81.02h-57.777c-2.75,0-5-2.25-5-5V40.278c0-2.75,2.25-5,5-5h57.777
		c2.75,0,5,2.25,5,5V76.02C-1600.27,78.77-1602.52,81.02-1605.27,81.02"/>
	
		<path clip-path="url(#SVGID_7_)" fill="none" stroke="#1A171B" stroke-width="5" stroke-linecap="round" stroke-linejoin="round" stroke-miterlimit="10" d="
		M-1605.27,81.02h-57.777c-2.75,0-5-2.25-5-5V40.278c0-2.75,2.25-5,5-5h57.777c2.75,0,5,2.25,5,5V76.02
		C-1600.27,78.77-1602.52,81.02-1605.27,81.02z"/>
	<rect x="-1668.048" y="54.532" clip-path="url(#SVGID_7_)" fill="#1A171B" width="67.778" height="7.234"/>
	
		<rect x="-1668.048" y="54.532" clip-path="url(#SVGID_7_)" fill="none" stroke="#1A171B" stroke-width="5" stroke-linecap="round" stroke-linejoin="round" stroke-miterlimit="10" width="67.778" height="7.234"/>
	
		<line clip-path="url(#SVGID_7_)" fill="none" stroke="#1A171B" stroke-width="7" stroke-linecap="round" stroke-linejoin="round" stroke-miterlimit="10" x1="-1910.626" y1="343.68" x2="-1820.294" y2="343.68"/>
	
		<line clip-path="url(#SVGID_7_)" fill="none" stroke="#1A171B" stroke-width="7" stroke-linecap="round" stroke-linejoin="round" stroke-miterlimit="10" x1="-1896.543" y1="377.68" x2="-1834.377" y2="377.68"/>
	
		<line clip-path="url(#SVGID_7_)" fill="none" stroke="#1A171B" stroke-width="7" stroke-linecap="round" stroke-linejoin="round" stroke-miterlimit="10" x1="-1902.945" y1="343.68" x2="-1871.46" y2="310.68"/>
	
		<line clip-path="url(#SVGID_7_)" fill="none" stroke="#1A171B" stroke-width="7" stroke-linecap="round" stroke-linejoin="round" stroke-miterlimit="10" x1="-1827.974" y1="343.68" x2="-1859.46" y2="310.68"/>
	
		<line clip-path="url(#SVGID_7_)" fill="none" stroke="#1A171B" stroke-width="7" stroke-linecap="round" stroke-linejoin="round" stroke-miterlimit="10" x1="-1865.46" y1="346.18" x2="-1865.46" y2="377.68"/>
	
		<line clip-path="url(#SVGID_7_)" fill="none" stroke="#1A171B" stroke-width="7" stroke-linecap="round" stroke-linejoin="round" stroke-miterlimit="10" x1="-1878.946" y1="346.18" x2="-1875.821" y2="377.68"/>
	
		<line clip-path="url(#SVGID_7_)" fill="none" stroke="#1A171B" stroke-width="7" stroke-linecap="round" stroke-linejoin="round" stroke-miterlimit="10" x1="-1892.433" y1="346.18" x2="-1886.183" y2="377.68"/>
	
		<line clip-path="url(#SVGID_7_)" fill="none" stroke="#1A171B" stroke-width="7" stroke-linecap="round" stroke-linejoin="round" stroke-miterlimit="10" x1="-1905.918" y1="346.18" x2="-1896.543" y2="377.68"/>
	
		<line clip-path="url(#SVGID_7_)" fill="none" stroke="#1A171B" stroke-width="7" stroke-linecap="round" stroke-linejoin="round" stroke-miterlimit="10" x1="-1865.46" y1="346.18" x2="-1865.46" y2="377.68"/>
	
		<line clip-path="url(#SVGID_7_)" fill="none" stroke="#1A171B" stroke-width="7" stroke-linecap="round" stroke-linejoin="round" stroke-miterlimit="10" x1="-1851.974" y1="346.18" x2="-1855.099" y2="377.68"/>
	
		<line clip-path="url(#SVGID_7_)" fill="none" stroke="#1A171B" stroke-width="7" stroke-linecap="round" stroke-linejoin="round" stroke-miterlimit="10" x1="-1838.487" y1="346.18" x2="-1844.737" y2="377.68"/>
	
		<line clip-path="url(#SVGID_7_)" fill="none" stroke="#1A171B" stroke-width="7" stroke-linecap="round" stroke-linejoin="round" stroke-miterlimit="10" x1="-1825.001" y1="346.18" x2="-1834.376" y2="377.68"/>
	
		<line clip-path="url(#SVGID_7_)" fill="none" stroke="#1A171B" stroke-width="7" stroke-linecap="round" stroke-linejoin="round" stroke-miterlimit="10" x1="-1865.46" y1="346.18" x2="-1865.46" y2="377.68"/>
	
		<line clip-path="url(#SVGID_7_)" fill="none" stroke="#1A171B" stroke-width="9" stroke-linecap="round" stroke-linejoin="round" stroke-miterlimit="10" x1="-1910.626" y1="439.68" x2="-1820.294" y2="439.68"/>
	
		<line clip-path="url(#SVGID_7_)" fill="none" stroke="#1A171B" stroke-width="9" stroke-linecap="round" stroke-linejoin="round" stroke-miterlimit="10" x1="-1895.21" y1="473.68" x2="-1835.71" y2="473.68"/>
	
		<line clip-path="url(#SVGID_7_)" fill="none" stroke="#1A171B" stroke-width="7" stroke-linecap="round" stroke-linejoin="round" stroke-miterlimit="10" x1="-1865.46" y1="442.18" x2="-1865.46" y2="473.68"/>
	
		<line clip-path="url(#SVGID_7_)" fill="none" stroke="#1A171B" stroke-width="7" stroke-linecap="round" stroke-linejoin="round" stroke-miterlimit="10" x1="-1878.946" y1="442.18" x2="-1875.821" y2="473.68"/>
	
		<line clip-path="url(#SVGID_7_)" fill="none" stroke="#1A171B" stroke-width="7" stroke-linecap="round" stroke-linejoin="round" stroke-miterlimit="10" x1="-1892.433" y1="442.18" x2="-1886.183" y2="473.68"/>
	
		<line clip-path="url(#SVGID_7_)" fill="none" stroke="#1A171B" stroke-width="7" stroke-linecap="round" stroke-linejoin="round" stroke-miterlimit="10" x1="-1905.918" y1="442.18" x2="-1896.543" y2="473.68"/>
	
		<line clip-path="url(#SVGID_7_)" fill="none" stroke="#1A171B" stroke-width="7" stroke-linecap="round" stroke-linejoin="round" stroke-miterlimit="10" x1="-1865.46" y1="442.18" x2="-1865.46" y2="473.68"/>
	
		<line clip-path="url(#SVGID_7_)" fill="none" stroke="#1A171B" stroke-width="7" stroke-linecap="round" stroke-linejoin="round" stroke-miterlimit="10" x1="-1851.974" y1="442.18" x2="-1855.099" y2="473.68"/>
	
		<line clip-path="url(#SVGID_7_)" fill="none" stroke="#1A171B" stroke-width="7" stroke-linecap="round" stroke-linejoin="round" stroke-miterlimit="10" x1="-1838.487" y1="442.18" x2="-1844.737" y2="473.68"/>
	
		<line clip-path="url(#SVGID_7_)" fill="none" stroke="#1A171B" stroke-width="7" stroke-linecap="round" stroke-linejoin="round" stroke-miterlimit="10" x1="-1825.001" y1="442.18" x2="-1834.376" y2="473.68"/>
	
		<line clip-path="url(#SVGID_7_)" fill="none" stroke="#1A171B" stroke-width="7" stroke-linecap="round" stroke-linejoin="round" stroke-miterlimit="10" x1="-1865.46" y1="442.18" x2="-1865.46" y2="473.68"/>
	
		<line clip-path="url(#SVGID_7_)" fill="none" stroke="#1A171B" stroke-width="9" stroke-linecap="round" stroke-linejoin="round" stroke-miterlimit="10" x1="-1800.793" y1="343.68" x2="-1710.46" y2="343.68"/>
	
		<line clip-path="url(#SVGID_7_)" fill="none" stroke="#1A171B" stroke-width="9" stroke-linecap="round" stroke-linejoin="round" stroke-miterlimit="10" x1="-1786.71" y1="377.68" x2="-1724.544" y2="377.68"/>
	
		<line clip-path="url(#SVGID_7_)" fill="none" stroke="#1A171B" stroke-width="7" stroke-linecap="round" stroke-linejoin="round" stroke-miterlimit="10" x1="-1755.626" y1="346.18" x2="-1755.626" y2="377.68"/>
	
		<line clip-path="url(#SVGID_7_)" fill="none" stroke="#1A171B" stroke-width="7" stroke-linecap="round" stroke-linejoin="round" stroke-miterlimit="10" x1="-1769.112" y1="346.18" x2="-1765.987" y2="377.68"/>
	
		<line clip-path="url(#SVGID_7_)" fill="none" stroke="#1A171B" stroke-width="7" stroke-linecap="round" stroke-linejoin="round" stroke-miterlimit="10" x1="-1782.599" y1="346.18" x2="-1776.349" y2="377.68"/>
	
		<line clip-path="url(#SVGID_7_)" fill="none" stroke="#1A171B" stroke-width="7" stroke-linecap="round" stroke-linejoin="round" stroke-miterlimit="10" x1="-1796.085" y1="346.18" x2="-1786.71" y2="377.68"/>
	
		<line clip-path="url(#SVGID_7_)" fill="none" stroke="#1A171B" stroke-width="7" stroke-linecap="round" stroke-linejoin="round" stroke-miterlimit="10" x1="-1755.626" y1="346.18" x2="-1755.626" y2="377.68"/>
	
		<line clip-path="url(#SVGID_7_)" fill="none" stroke="#1A171B" stroke-width="7" stroke-linecap="round" stroke-linejoin="round" stroke-miterlimit="10" x1="-1742.141" y1="346.18" x2="-1745.266" y2="377.68"/>
	
		<line clip-path="url(#SVGID_7_)" fill="none" stroke="#1A171B" stroke-width="7" stroke-linecap="round" stroke-linejoin="round" stroke-miterlimit="10" x1="-1728.654" y1="346.18" x2="-1734.904" y2="377.68"/>
	
		<line clip-path="url(#SVGID_7_)" fill="none" stroke="#1A171B" stroke-width="7" stroke-linecap="round" stroke-linejoin="round" stroke-miterlimit="10" x1="-1715.168" y1="346.18" x2="-1724.543" y2="377.68"/>
	
		<line clip-path="url(#SVGID_7_)" fill="none" stroke="#1A171B" stroke-width="7" stroke-linecap="round" stroke-linejoin="round" stroke-miterlimit="10" x1="-1755.626" y1="346.18" x2="-1755.626" y2="377.68"/>
	<path clip-path="url(#SVGID_7_)" fill="#1A171B" d="M-1783.489,343.68c-1.063,0-2.074-0.405-2.846-1.141
		c-0.797-0.76-1.25-1.785-1.275-2.886c-0.026-1.101,0.377-2.146,1.139-2.942l23.598-24.734c0.774-0.811,1.862-1.276,2.983-1.276
		c1.065,0,2.075,0.405,2.845,1.14c0.798,0.761,1.251,1.786,1.277,2.887c0.025,1.102-0.379,2.147-1.139,2.943l-23.599,24.732
		C-1781.28,343.214-1782.366,343.68-1783.489,343.68"/>
	<path clip-path="url(#SVGID_7_)" fill="#FFFFFF" d="M-1759.89,312.201c0.65,0,1.302,0.24,1.81,0.725
		c1.048,0.999,1.087,2.66,0.087,3.708l-23.598,24.733c-0.516,0.54-1.206,0.812-1.898,0.812c-0.65,0-1.302-0.24-1.811-0.726
		c-1.047-1-1.086-2.66-0.086-3.708l23.598-24.732C-1761.272,312.474-1760.582,312.201-1759.89,312.201 M-1759.89,309.201
		L-1759.89,309.201c-1.53,0-3.013,0.634-4.068,1.74l-23.6,24.733c-1.037,1.087-1.588,2.513-1.553,4.015
		c0.035,1.501,0.653,2.898,1.74,3.936c1.051,1.002,2.43,1.555,3.881,1.555c1.53,0,3.014-0.635,4.069-1.741l23.598-24.733
		c1.037-1.086,1.588-2.512,1.554-4.014c-0.035-1.501-0.653-2.899-1.74-3.937C-1757.062,309.753-1758.438,309.201-1759.89,309.201"/>
	<path clip-path="url(#SVGID_7_)" fill="#1A171B" d="M-1727.299,343.68c-1.122,0-2.209-0.466-2.983-1.277l-23.599-24.732
		c-1.567-1.645-1.508-4.261,0.138-5.829c0.771-0.735,1.781-1.141,2.846-1.141c1.121,0,2.209,0.467,2.982,1.277l23.599,24.733
		c1.569,1.644,1.509,4.259-0.137,5.828C-1725.224,343.274-1726.234,343.68-1727.299,343.68"/>
	<path clip-path="url(#SVGID_7_)" fill="#FFFFFF" d="M-1750.897,312.201c0.691,0,1.383,0.272,1.898,0.812l23.598,24.732
		c1,1.048,0.961,2.708-0.087,3.708c-0.508,0.485-1.16,0.726-1.81,0.726c-0.692,0-1.384-0.272-1.899-0.812l-23.599-24.733
		c-1-1.048-0.961-2.709,0.088-3.708C-1752.2,312.441-1751.548,312.201-1750.897,312.201 M-1750.897,309.201L-1750.897,309.201
		c-1.452,0-2.83,0.552-3.881,1.553c-1.087,1.038-1.705,2.437-1.74,3.938c-0.035,1.502,0.516,2.928,1.553,4.014l23.599,24.733
		c1.055,1.106,2.539,1.741,4.069,1.741c1.45,0,2.829-0.553,3.881-1.555c2.242-2.14,2.326-5.706,0.187-7.95l-23.599-24.732
		C-1747.884,309.835-1749.367,309.201-1750.897,309.201"/>
	<path clip-path="url(#SVGID_7_)" fill="#1A171B" d="M-1895.146,439.462c-1.42,0-2.768-0.54-3.795-1.521
		c-1.063-1.014-1.668-2.382-1.703-3.851c-0.033-1.469,0.506-2.862,1.52-3.926l22.85-23.949c1.034-1.082,2.484-1.702,3.981-1.702
		c1.42,0,2.769,0.54,3.795,1.52c1.063,1.014,1.667,2.382,1.702,3.851c0.033,1.469-0.505,2.862-1.52,3.926l-22.85,23.949
		C-1892.198,438.841-1893.647,439.462-1895.146,439.462"/>
	<path clip-path="url(#SVGID_7_)" fill="#FFFFFF" d="M-1872.294,406.514c0.869,0,1.738,0.321,2.416,0.967
		c1.397,1.334,1.451,3.55,0.115,4.948l-22.85,23.949c-0.688,0.721-1.609,1.084-2.533,1.084c-0.867,0-1.738-0.321-2.415-0.969
		c-1.399-1.334-1.45-3.549-0.116-4.947l22.851-23.949C-1874.14,406.877-1873.218,406.514-1872.294,406.514 M-1872.294,402.514
		L-1872.294,402.514c-2.041,0-4.018,0.846-5.426,2.321l-22.852,23.949c-1.383,1.449-2.118,3.352-2.071,5.354
		c0.048,2.003,0.871,3.867,2.321,5.25c1.4,1.337,3.24,2.073,5.176,2.073c2.041,0,4.02-0.846,5.428-2.323l22.85-23.949
		c1.383-1.448,2.119-3.35,2.072-5.353s-0.873-3.868-2.321-5.251C-1868.519,403.25-1870.356,402.514-1872.294,402.514"/>
	<path clip-path="url(#SVGID_7_)" fill="#1A171B" d="M-1836.735,439.462c-1.496,0-2.946-0.621-3.979-1.703l-22.851-23.949
		c-1.014-1.063-1.553-2.457-1.52-3.926c0.035-1.469,0.641-2.837,1.703-3.851c1.027-0.98,2.376-1.52,3.796-1.52
		c1.497,0,2.947,0.62,3.979,1.702l22.851,23.949c1.015,1.063,1.554,2.457,1.519,3.926s-0.639,2.837-1.701,3.851
		C-1833.967,438.922-1835.315,439.462-1836.735,439.462"/>
	<path clip-path="url(#SVGID_7_)" fill="#FFFFFF" d="M-1859.585,406.514c0.922,0,1.845,0.363,2.531,1.083l22.85,23.949
		c1.336,1.398,1.283,3.613-0.115,4.947c-0.678,0.647-1.547,0.969-2.415,0.969c-0.924,0-1.847-0.363-2.533-1.084l-22.851-23.949
		c-1.334-1.398-1.282-3.614,0.117-4.948C-1861.323,406.835-1860.454,406.514-1859.585,406.514 M-1859.585,402.514L-1859.585,402.514
		c-1.937,0-3.774,0.735-5.176,2.07c-1.451,1.385-2.275,3.25-2.322,5.253s0.688,3.904,2.072,5.354l22.85,23.949
		c1.408,1.477,3.386,2.322,5.427,2.322c1.937,0,3.774-0.736,5.176-2.073c1.45-1.383,2.274-3.247,2.321-5.25
		s-0.689-3.905-2.072-5.354l-22.85-23.948C-1855.566,403.359-1857.544,402.514-1859.585,402.514"/>
	<path clip-path="url(#SVGID_7_)" fill="#1A171B" d="M-1752.979,437.462c0.923,0,1.845-0.363,2.533-1.084l22.85-23.949
		c1.334-1.398,1.282-3.612-0.116-4.946c-1.397-1.335-3.613-1.283-4.948,0.114l-22.851,23.949c-1.334,1.398-1.281,3.614,0.116,4.948
		C-1754.716,437.141-1753.847,437.462-1752.979,437.462"/>
	<path clip-path="url(#SVGID_7_)" fill="#1A171B" d="M-1697.101,436.378c0.687,0.721,1.608,1.084,2.532,1.084
		c0.868,0,1.738-0.321,2.415-0.968c1.399-1.334,1.451-3.55,0.115-4.948l-22.849-23.949c-1.333-1.397-3.549-1.449-4.948-0.114
		c-1.399,1.333-1.451,3.548-0.117,4.946L-1697.101,436.378z"/>
	<path clip-path="url(#SVGID_7_)" fill="#1A171B" d="M-1678.293,435.18h-9.05c-0.261,1.601-1.021,3.07-2.216,4.209
		c-1.401,1.337-3.239,2.073-5.177,2.073c-2.04,0-4.018-0.846-5.426-2.322l-3.778-3.96h-40.001l-3.777,3.959
		c-1.408,1.478-3.387,2.323-5.428,2.323c-1.936,0-3.775-0.736-5.176-2.073c-1.195-1.139-1.956-2.608-2.217-4.209h-8.088
		c-2.486,0-4.5,2.015-4.5,4.5s2.014,4.5,4.5,4.5h1.651l9.077,30.498c0.191,0.643,0.559,1.182,1.023,1.6
		c0.815,1.147,2.148,1.902,3.664,1.902h59.5c1.516,0,2.851-0.755,3.667-1.904c0.464-0.417,0.83-0.955,1.021-1.598l9.077-30.498
		h1.652c2.485,0,4.5-2.015,4.5-4.5S-1675.808,435.18-1678.293,435.18 M-1700.452,444.18l-4.96,25h-3.724l2.48-25H-1700.452z
		 M-1726.96,469.18h-3.79l-2.48-25h6.271V469.18z M-1719.96,444.18h6.271l-2.479,25h-3.792V444.18z M-1740.265,444.18l2.479,25
		h-3.721l-4.962-25H-1740.265z M-1759.671,444.18h6.067l4.96,25h-3.588L-1759.671,444.18z M-1694.689,469.18h-3.587l4.96-25h6.067
		L-1694.689,469.18z"/>
	<polyline clip-path="url(#SVGID_7_)" fill="none" stroke="#1A171B" stroke-width="27" stroke-miterlimit="10" points="
		-1581.293,399.484 -1505.793,456.68 -1581.293,513.875 	"/>
	<polygon clip-path="url(#SVGID_7_)" fill="#1A171B" points="-2018.021,377.68 -1949.108,377.68 -1983.565,339.055 	"/>
	
		<polygon clip-path="url(#SVGID_7_)" fill="none" stroke="#1A171B" stroke-width="8" stroke-linecap="round" stroke-linejoin="round" stroke-miterlimit="10" points="
		-2018.021,377.68 -1949.108,377.68 -1983.565,339.055 	"/>
	<polygon clip-path="url(#SVGID_7_)" fill="#1A171B" points="-2010.565,412.18 -1996.065,412.18 -1996.065,385.93 -1983.565,385.93 
		-1971.065,385.93 -1971.065,412.18 -1956.565,412.18 -1956.565,377.68 -2010.565,377.68 	"/>
	
		<polygon clip-path="url(#SVGID_7_)" fill="none" stroke="#1A171B" stroke-width="8" stroke-linecap="round" stroke-linejoin="round" stroke-miterlimit="10" points="
		-2010.565,412.18 -1996.065,412.18 -1996.065,385.93 -1983.565,385.93 -1971.065,385.93 -1971.065,412.18 -1956.565,412.18 
		-1956.565,377.68 -2010.565,377.68 	"/>
	<path clip-path="url(#SVGID_7_)" fill="#1A171B" d="M-1624.668,301.18c-17.989,0-32.625,14.636-32.625,32.625
		c0,8.617,3.364,16.459,8.841,22.297l-13.029,15.424c-1.602,1.898-1.363,4.737,0.536,6.342c0.845,0.713,1.875,1.062,2.901,1.062
		c1.279,0,2.55-0.543,3.438-1.597l13.149-15.566c4.908,2.959,10.653,4.664,16.789,4.664c17.989,0,32.625-14.636,32.625-32.625
		S-1606.679,301.18-1624.668,301.18 M-1624.668,357.43c-13.027,0-23.625-10.598-23.625-23.625s10.598-23.625,23.625-23.625
		s23.625,10.598,23.625,23.625S-1611.641,357.43-1624.668,357.43"/>
	<path clip-path="url(#SVGID_7_)" fill="#1A171B" d="M-1500.626,274.495h5.582v-11.5c0,0-0.425-0.043-5.915-0.5
		c-22.013-1.833-20.5,17.083-20.5,17.083v9.209h-11.042v13.083h11.042v33.208h13.083V301.87h11.417l1.5-13.083h-12.917v-9.209
		C-1508.263,273.495-1500.626,274.495-1500.626,274.495"/>
	
		<path clip-path="url(#SVGID_7_)" fill="none" stroke="#FFFFFF" stroke-width="5" stroke-linecap="round" stroke-linejoin="round" stroke-miterlimit="10" d="
		M-1952.466,141.082c-1.936,2.268-4.607,3.671-7.56,3.671c-5.905,0-10.69-5.611-10.69-12.534c0-6.922,4.785-12.532,10.69-12.532
		c2.952,0,5.624,1.401,7.56,3.67"/>
	
		<line clip-path="url(#SVGID_7_)" fill="none" stroke="#FFFFFF" stroke-width="4" stroke-linecap="round" stroke-linejoin="round" stroke-miterlimit="10" x1="-1973.856" y1="128.75" x2="-1957.026" y2="128.75"/>
	
		<line clip-path="url(#SVGID_7_)" fill="none" stroke="#FFFFFF" stroke-width="4" stroke-linecap="round" stroke-linejoin="round" stroke-miterlimit="10" x1="-1973.856" y1="135.688" x2="-1957.026" y2="135.688"/>
	
		<path clip-path="url(#SVGID_7_)" fill="none" stroke="#1A171B" stroke-width="7" stroke-linecap="round" stroke-linejoin="round" stroke-miterlimit="10" d="
		M-1739.144-118.835c0-10.778,8.737-19.515,19.514-19.515c10.778,0,19.516,8.737,19.516,19.515s-11.209,15.131-16.549,22.365
		c-2.967,4.016-2.967,11.041-2.967,11.041"/>
	
		<line clip-path="url(#SVGID_7_)" fill="none" stroke="#1A171B" stroke-width="7" stroke-linecap="round" stroke-linejoin="round" stroke-miterlimit="10" x1="-1719.629" y1="-72.613" x2="-1719.629" y2="-67.28"/>
	<rect x="-1600.271" y="118.071" clip-path="url(#SVGID_7_)" fill="#1A171B" width="68.645" height="74.898"/>
	
		<rect x="-1600.271" y="118.071" clip-path="url(#SVGID_7_)" fill="none" stroke="#1A171B" stroke-width="5" stroke-linecap="round" stroke-linejoin="round" stroke-miterlimit="10" width="68.645" height="74.898"/>
	<path clip-path="url(#SVGID_7_)" fill="#1A171B" d="M-1917.28-245.623c0,12.536-7.979,22.698-17.822,22.698
		c-9.842,0-17.821-10.162-17.821-22.698s7.979-22.698,17.821-22.698C-1925.259-268.32-1917.28-258.159-1917.28-245.623"/>
	
		<ellipse clip-path="url(#SVGID_7_)" fill="none" stroke="#1A171B" stroke-width="5" stroke-linecap="round" stroke-linejoin="round" stroke-miterlimit="10" cx="-1935.102" cy="-245.623" rx="17.822" ry="22.698"/>
	<path clip-path="url(#SVGID_7_)" fill="#1A171B" d="M-1896.468-193.68c0,0-1.561-4.258-6.244-6.245l-17.74-5.677l-14.76,11.922
		l-14.76-11.922l-17.74,5.677c-4.685,1.987-6.246,6.245-6.246,6.245l-3.973,11.354h42.719h42.719L-1896.468-193.68z"/>
	
		<path clip-path="url(#SVGID_7_)" fill="none" stroke="#1A171B" stroke-width="5" stroke-linecap="round" stroke-linejoin="round" stroke-miterlimit="10" d="
		M-1896.468-193.68c0,0-1.561-4.258-6.244-6.245l-17.74-5.677l-14.76,11.922l-14.76-11.922l-17.74,5.677
		c-4.685,1.987-6.246,6.245-6.246,6.245l-3.973,11.354h42.719h42.719L-1896.468-193.68z"/>
	<rect x="-1632.612" y="121.942" clip-path="url(#SVGID_7_)" fill="#1A171B" width="9.31" height="43.181"/>
	
		<rect x="-1632.612" y="121.942" clip-path="url(#SVGID_7_)" fill="none" stroke="#1A171B" stroke-width="5" stroke-linecap="round" stroke-linejoin="round" stroke-miterlimit="10" width="9.31" height="43.181"/>
	<rect x="-1639.205" y="167.942" clip-path="url(#SVGID_7_)" fill="#1A171B" width="22.496" height="25.026"/>
	
		<rect x="-1639.205" y="167.942" clip-path="url(#SVGID_7_)" fill="none" stroke="#1A171B" stroke-width="5" stroke-linecap="round" stroke-linejoin="round" stroke-miterlimit="10" width="22.496" height="25.026"/>
	<rect x="-1639.205" y="118.505" clip-path="url(#SVGID_7_)" fill="#1A171B" width="22.496" height="25.028"/>
	
		<rect x="-1639.205" y="118.505" clip-path="url(#SVGID_7_)" fill="none" stroke="#1A171B" stroke-width="5" stroke-linecap="round" stroke-linejoin="round" stroke-miterlimit="10" width="22.496" height="25.028"/>
	
		<path clip-path="url(#SVGID_7_)" fill="none" stroke="#1A171B" stroke-width="4" stroke-linecap="round" stroke-linejoin="round" stroke-miterlimit="10" d="
		M-1521.122,200.05c-6.512-4.564-2.402-12.61,0.268-12.589c8.434,0.063,1.166,15.969-6.007,14.37
		c-3.812-0.851-6.177-4.691-4.868-8.474"/>
	
		<path clip-path="url(#SVGID_7_)" fill="none" stroke="#1A171B" stroke-width="4" stroke-linecap="round" stroke-linejoin="round" stroke-miterlimit="10" d="
		M-1520.467,200.4c17.598,6.917,17.285-9.521,13.758-10.222c-7.747-1.538-5.499,15.038,1.838,15.467
		c3.898,0.228,7.227-2.817,7.003-6.813"/>
	<path clip-path="url(#SVGID_7_)" fill="#FFFFFF" d="M-1580.483,140.641h-4.909c-1.566,0-2.849-1.282-2.849-2.849
		c0-1.567,1.282-2.85,2.849-2.85h4.909c1.567,0,2.85,1.282,2.85,2.85C-1577.634,139.358-1578.916,140.641-1580.483,140.641"/>
	<path clip-path="url(#SVGID_7_)" fill="#FFFFFF" d="M-1561.893,140.641h-4.909c-1.568,0-2.85-1.282-2.85-2.849
		c0-1.567,1.281-2.85,2.85-2.85h4.909c1.566,0,2.849,1.282,2.849,2.85C-1559.044,139.358-1560.326,140.641-1561.893,140.641"/>
	<path clip-path="url(#SVGID_7_)" fill="#FFFFFF" d="M-1543.303,140.641h-4.909c-1.567,0-2.849-1.282-2.849-2.849
		c0-1.567,1.281-2.85,2.849-2.85h4.909c1.567,0,2.849,1.282,2.849,2.85C-1540.454,139.358-1541.735,140.641-1543.303,140.641"/>
	<path clip-path="url(#SVGID_7_)" fill="#FFFFFF" d="M-1580.483,154.102h-4.909c-1.566,0-2.849-1.282-2.849-2.849
		c0-1.567,1.282-2.85,2.849-2.85h4.909c1.567,0,2.85,1.282,2.85,2.85C-1577.634,152.819-1578.916,154.102-1580.483,154.102"/>
	<path clip-path="url(#SVGID_7_)" fill="#FFFFFF" d="M-1561.893,154.102h-4.909c-1.568,0-2.85-1.282-2.85-2.849
		c0-1.567,1.281-2.85,2.85-2.85h4.909c1.566,0,2.849,1.282,2.849,2.85C-1559.044,152.819-1560.326,154.102-1561.893,154.102"/>
	<path clip-path="url(#SVGID_7_)" fill="#FFFFFF" d="M-1543.303,154.102h-4.909c-1.567,0-2.849-1.282-2.849-2.849
		c0-1.567,1.281-2.85,2.849-2.85h4.909c1.567,0,2.849,1.282,2.849,2.85C-1540.454,152.819-1541.735,154.102-1543.303,154.102"/>
	<path clip-path="url(#SVGID_7_)" fill="#FFFFFF" d="M-1580.483,167.562h-4.909c-1.566,0-2.849-1.282-2.849-2.849
		c0-1.567,1.282-2.85,2.849-2.85h4.909c1.567,0,2.85,1.282,2.85,2.85C-1577.634,166.28-1578.916,167.562-1580.483,167.562"/>
	<path clip-path="url(#SVGID_7_)" fill="#FFFFFF" d="M-1561.893,167.562h-4.909c-1.568,0-2.85-1.282-2.85-2.849
		c0-1.567,1.281-2.85,2.85-2.85h4.909c1.566,0,2.849,1.282,2.849,2.85C-1559.044,166.28-1560.326,167.562-1561.893,167.562"/>
	<path clip-path="url(#SVGID_7_)" fill="#FFFFFF" d="M-1543.303,167.562h-4.909c-1.567,0-2.849-1.282-2.849-2.849
		c0-1.567,1.281-2.85,2.849-2.85h4.909c1.567,0,2.849,1.282,2.849,2.85C-1540.454,166.28-1541.735,167.562-1543.303,167.562"/>
	<path clip-path="url(#SVGID_7_)" fill="#FFFFFF" d="M-1561.893,181.023h-4.909c-1.568,0-2.85-1.282-2.85-2.849
		c0-1.567,1.281-2.85,2.85-2.85h4.909c1.566,0,2.849,1.282,2.849,2.85C-1559.044,179.741-1560.326,181.023-1561.893,181.023"/>
	
		<path clip-path="url(#SVGID_7_)" fill="none" stroke="#1A171B" stroke-width="5" stroke-linecap="round" stroke-linejoin="round" stroke-miterlimit="10" d="
		M-1961.126-244.823c0-18.746,11.933-33.943,26.651-33.943c14.72,0,26.651,15.197,26.651,33.943s-11.932,33.943-26.651,33.943"/>
	<path clip-path="url(#SVGID_7_)" fill="#1A171B" d="M-1931.437-205.964h-5.688c-2.535,0-4.608-2.074-4.608-4.608v-1.651
		c0-2.534,2.073-4.608,4.608-4.608h5.688c2.535,0,4.608,2.074,4.608,4.608v1.651
		C-1926.828-208.038-1928.901-205.964-1931.437-205.964"/>
	
		<ellipse clip-path="url(#SVGID_7_)" fill="none" stroke="#1A171B" stroke-width="5" stroke-linecap="round" stroke-linejoin="round" stroke-miterlimit="10" cx="-1762.237" cy="-245.623" rx="17.822" ry="22.698"/>
	
		<path clip-path="url(#SVGID_7_)" fill="none" stroke="#1A171B" stroke-width="5" stroke-linecap="round" stroke-linejoin="round" stroke-miterlimit="10" d="
		M-1723.603-193.68c0,0-1.562-4.258-6.245-6.245l-17.739-5.677l-14.761,11.922l-14.76-11.922l-17.74,5.677
		c-4.685,1.987-6.245,6.245-6.245,6.245l-3.974,11.354h42.719h42.719L-1723.603-193.68z"/>
	
		<path clip-path="url(#SVGID_7_)" fill="none" stroke="#1A171B" stroke-width="5" stroke-linecap="round" stroke-linejoin="round" stroke-miterlimit="10" d="
		M-1788.261-244.823c0-18.746,11.932-33.943,26.65-33.943s26.651,15.197,26.651,33.943s-11.933,33.943-26.651,33.943"/>
	<path clip-path="url(#SVGID_7_)" fill="#1A171B" d="M-1758.571-205.964h-5.689c-2.535,0-4.607-2.074-4.607-4.608v-1.651
		c0-2.534,2.072-4.608,4.607-4.608h5.689c2.534,0,4.607,2.074,4.607,4.608v1.651
		C-1753.964-208.038-1756.037-205.964-1758.571-205.964"/>
	
		<path clip-path="url(#SVGID_7_)" fill="none" stroke="#1A171B" stroke-width="5" stroke-linecap="round" stroke-linejoin="round" stroke-miterlimit="10" d="
		M-1918.934-101.989c0.651,16.667,23.333,17.667,24.349-10.996c1.649-22.404-18.211-40.676-40.675-40.676
		s-40.675,18.211-40.675,40.676c0,22.465,18.211,40.676,40.675,40.676c4.718-0.001,9.248-0.803,13.462-2.281"/>
	
		<circle clip-path="url(#SVGID_7_)" fill="none" stroke="#1A171B" stroke-width="5" stroke-linecap="round" stroke-linejoin="round" stroke-miterlimit="10" cx="-1936.212" cy="-110.904" r="17.416"/>
	
		<line clip-path="url(#SVGID_7_)" fill="none" stroke="#1A171B" stroke-width="5" stroke-linecap="round" stroke-linejoin="round" stroke-miterlimit="10" x1="-1918.677" y1="-100.01" x2="-1918.677" y2="-124.656"/>
	
		<path clip-path="url(#SVGID_7_)" fill="none" stroke="#1A171B" stroke-width="4" stroke-linecap="round" stroke-linejoin="round" stroke-miterlimit="10" d="
		M-1873.843-27.568c0.197,5.02,7.028,5.321,7.334-3.312c0.498-6.748-5.484-12.252-12.25-12.252c-6.768,0-12.252,5.485-12.252,12.252
		c0,6.766,5.484,12.252,12.252,12.252c1.42-0.001,2.785-0.242,4.054-0.687"/>
	
		<circle clip-path="url(#SVGID_7_)" fill="none" stroke="#1A171B" stroke-width="4" stroke-linecap="round" stroke-linejoin="round" stroke-miterlimit="10" cx="-1879.047" cy="-30.253" r="5.246"/>
	
		<line clip-path="url(#SVGID_7_)" fill="none" stroke="#1A171B" stroke-width="4" stroke-linecap="round" stroke-linejoin="round" stroke-miterlimit="10" x1="-1873.765" y1="-26.972" x2="-1873.765" y2="-34.395"/>
</g>
<polygon fill="#FFFFFF" stroke="#18A294" stroke-width="5" stroke-linecap="round" stroke-linejoin="round" stroke-miterlimit="10" points="
	-433.209,141.099 -506.946,141.099 -506.946,95.722 -471.674,83.812 -433.209,95.722 "/>
<polygon fill="#FBDFDD" stroke="#FBDFDD" stroke-miterlimit="10" points="-444.554,104.087 -471.674,124.083 -496.453,104.159 
	-496.453,65.66 -444.554,65.66 "/>
<polygon fill="#FFFFFF" stroke="#18A294" stroke-width="5" stroke-linecap="round" stroke-linejoin="round" stroke-miterlimit="10" points="
	-444.554,104.087 -471.674,124.083 -496.453,104.159 -496.453,65.66 -444.554,65.66 "/>
<path fill="none" stroke="#18A294" stroke-width="4" stroke-linecap="round" stroke-linejoin="round" stroke-miterlimit="10" d="
	M-466.059,92.563c0.197,5.021,7.028,5.321,7.334-3.312c0.498-6.748-5.484-12.252-12.25-12.252c-6.768,0-12.252,5.485-12.252,12.252
	s5.484,12.252,12.252,12.252c1.42-0.001,2.785-0.241,4.054-0.687"/>
<circle fill="none" stroke="#18A294" stroke-width="4" stroke-linecap="round" stroke-linejoin="round" stroke-miterlimit="10" cx="-471.263" cy="89.878" r="5.246"/>
<line fill="none" stroke="#18A294" stroke-width="4" stroke-linecap="round" stroke-linejoin="round" stroke-miterlimit="10" x1="-465.98" y1="93.159" x2="-465.98" y2="85.737"/>
<path fill="#18A294" d="M113.146,79.126h5.582v-11.5c0,0-0.425-0.043-5.915-0.5c-22.013-1.833-20.5,17.083-20.5,17.083v9.209H81.271
	v13.083h11.042v33.208h13.083v-33.208h11.417l1.5-13.083h-12.917v-9.209C105.51,78.126,113.146,79.126,113.146,79.126"/>
<g>
	<path fill="#18A294" d="M396.631,123.126c-4.61-0.358-6.545-2.642-10.158-4.837c-1.988,10.423-4.416,20.416-11.607,25.637
		c-2.222-15.754,3.258-27.587,5.803-40.148c-4.34-7.305,0.521-22.005,9.675-18.38c11.261,4.455-9.751,27.155,4.353,29.991
		c14.729,2.96,20.742-25.556,11.61-34.829c-13.196-13.39-38.413-0.306-35.312,18.866c0.755,4.686,5.597,6.108,1.936,12.576
		c-8.445-1.871-10.966-8.533-10.642-17.414c0.521-14.536,13.061-24.713,25.637-26.12c15.905-1.78,30.832,5.837,32.893,20.799
		C423.138,106.151,413.638,124.439,396.631,123.126z"/>
</g>
<path fill="#18A294" stroke="#18A294" stroke-width="3.5616" stroke-linecap="round" stroke-linejoin="round" stroke-miterlimit="10" d="
	M-147.32,133.932c0,4.971-4.029,9-9,9h-57.438c-4.971,0-9-4.029-9-9V76.493c0-4.971,4.029-9,9-9h57.438c4.971,0,9,4.029,9,9V133.932
	z"/>
<g>
	<path id="LinkedIn" fill="#FFFFFF" d="M-156.896,111.294v20.81h-12.063v-19.415c0-4.877-1.744-8.206-6.111-8.206
		c-3.335,0-5.318,2.243-6.189,4.414c-0.318,0.775-0.401,1.854-0.401,2.941v20.266h-12.066c0,0,0.162-32.883,0-36.29h12.066v5.145
		c-0.025,0.038-0.056,0.08-0.081,0.116h0.081v-0.116c1.603-2.471,4.464-5.997,10.874-5.997
		C-162.849,94.961-156.896,100.147-156.896,111.294z M-206.353,78.32c-4.128,0-6.829,2.707-6.829,6.269
		c0,3.483,2.621,6.273,6.669,6.273h0.08c4.207,0,6.826-2.79,6.826-6.273C-199.687,81.027-202.226,78.32-206.353,78.32z
		 M-212.466,132.104h12.063v-36.29h-12.063V132.104z"/>
</g>
<polyline fill="none" stroke="#18A294" stroke-width="5" stroke-linecap="round" stroke-linejoin="round" stroke-miterlimit="10" points="
	-433.395,95.722 -471.857,124.083 -507.131,95.722 "/>
</svg>
