<?xml version="1.0" encoding="utf-8"?>
<!-- Generator: Adobe Illustrator 15.1.0, SVG Export Plug-In . SVG Version: 6.00 Build 0)  -->
<!DOCTYPE svg PUBLIC "-//W3C//DTD SVG 1.1//EN" "http://www.w3.org/Graphics/SVG/1.1/DTD/svg11.dtd">
<svg version="1.1" id="Calque_1" xmlns="http://www.w3.org/2000/svg" xmlns:xlink="http://www.w3.org/1999/xlink" x="0px" y="0px"
	 width="35px" height="70px" viewBox="0 0 35 70" enable-background="new 0 0 35 70" xml:space="preserve">
<g>
	<path fill="#03A89A" d="M-85.039,52.5c0,9.666-7.837,17.5-17.5,17.5c-9.666,0-17.5-7.834-17.5-17.5c0-9.665,7.834-17.5,17.5-17.5
		C-92.876,35-85.039,42.836-85.039,52.5z"/>
	
		<polyline fill="none" stroke="#F9CBCD" stroke-width="3.6791" stroke-linecap="round" stroke-linejoin="round" stroke-miterlimit="10" points="
		-105.248,44.789 -97.536,52.5 -105.248,60.213 	"/>
</g>
<g>
	<path fill="#03A89A" d="M-137.539,35c9.666,0,17.5,7.835,17.5,17.5c0,9.666-7.834,17.5-17.5,17.5c-9.663,0-17.5-7.834-17.5-17.5
		C-155.039,42.836-147.202,35-137.539,35z"/>
	
		<polyline fill="none" stroke="#F9CBCD" stroke-width="3.6791" stroke-linecap="round" stroke-linejoin="round" stroke-miterlimit="10" points="
		-134.83,60.213 -142.542,52.5 -134.83,44.789 	"/>
</g>
<g>
	<path fill="#F9CBCC" d="M-85.039,17.5c0,9.666-7.838,17.5-17.5,17.5c-9.666,0-17.5-7.834-17.5-17.5c0-9.665,7.834-17.5,17.5-17.5
		C-92.877,0-85.039,7.836-85.039,17.5z"/>
	
		<polyline fill="none" stroke="#03A89A" stroke-width="3.6791" stroke-linecap="round" stroke-linejoin="round" stroke-miterlimit="10" points="
		-105.248,9.789 -97.537,17.5 -105.248,25.213 	"/>
</g>
<g>
	<path fill="#F9CBCC" d="M-137.54,0c9.666,0,17.5,7.835,17.5,17.5c0,9.666-7.834,17.5-17.5,17.5c-9.663,0-17.5-7.834-17.5-17.5
		C-155.04,7.836-147.203,0-137.54,0z"/>
	
		<polyline fill="none" stroke="#03A89A" stroke-width="3.6791" stroke-linecap="round" stroke-linejoin="round" stroke-miterlimit="10" points="
		-134.831,25.213 -142.542,17.5 -134.831,9.789 	"/>
</g>
<path fill="#03A89A" d="M0,52.5C0,42.834,7.835,35,17.5,35C27.166,35,35,42.834,35,52.5C35,62.163,27.166,70,17.5,70
	C7.836,70,0,62.163,0,52.5z"/>
<polyline fill="none" stroke="#F9CBCD" stroke-width="3.6791" stroke-linecap="round" stroke-linejoin="round" stroke-miterlimit="10" points="
	9.789,55.502 17.5,47.79 25.213,55.502 "/>
<g>
	<path fill="#F9CBCC" d="M35,17.5C34.999,27.167,27.164,35,17.5,35C7.834,35,0,27.167,0,17.5C0,7.836,7.834,0,17.5,0
		C27.164,0,35,7.836,35,17.5z"/>
	
		<polyline fill="none" stroke="#03A89A" stroke-width="3.6791" stroke-linecap="round" stroke-linejoin="round" stroke-miterlimit="10" points="
		9.787,20.209 17.5,12.497 25.211,20.209 	"/>
</g>
</svg>
