<?xml version="1.0" encoding="utf-8"?>
<!-- Generator: Adobe Illustrator 15.1.0, SVG Export Plug-In . SVG Version: 6.00 Build 0)  -->
<!DOCTYPE svg PUBLIC "-//W3C//DTD SVG 1.1//EN" "http://www.w3.org/Graphics/SVG/1.1/DTD/svg11.dtd">
<svg version="1.1" id="Calque_1" xmlns="http://www.w3.org/2000/svg" xmlns:xlink="http://www.w3.org/1999/xlink" x="0px" y="0px"
	 width="70px" height="70px" viewBox="0 0 70 70" enable-background="new 0 0 70 70" xml:space="preserve">
<g>
	<path fill="#03A89A" d="M70,52.5C70,62.166,62.163,70,52.5,70C42.834,70,35,62.166,35,52.5C35,42.835,42.834,35,52.5,35
		C62.163,35,70,42.836,70,52.5z"/>
	
		<polyline fill="none" stroke="#F9CBCD" stroke-width="3.6791" stroke-linecap="round" stroke-linejoin="round" stroke-miterlimit="10" points="
		49.791,44.789 57.503,52.5 49.791,60.213 	"/>
</g>
<g>
	<path fill="#03A89A" d="M17.5,35C27.166,35,35,42.835,35,52.5C35,62.166,27.166,70,17.5,70C7.837,70,0,62.166,0,52.5
		C0,42.836,7.837,35,17.5,35z"/>
	
		<polyline fill="none" stroke="#F9CBCD" stroke-width="3.6791" stroke-linecap="round" stroke-linejoin="round" stroke-miterlimit="10" points="
		20.209,60.213 12.497,52.5 20.209,44.789 	"/>
</g>
<g>
	<path fill="#F9CBCC" d="M70,17.5C70,27.166,62.162,35,52.5,35C42.834,35,35,27.166,35,17.5C35,7.835,42.834,0,52.5,0
		C62.162,0,70,7.836,70,17.5z"/>
	
		<polyline fill="none" stroke="#03A89A" stroke-width="3.6791" stroke-linecap="round" stroke-linejoin="round" stroke-miterlimit="10" points="
		49.791,9.789 57.502,17.5 49.791,25.213 	"/>
</g>
<g>
	<path fill="#F9CBCC" d="M17.5,0C27.166,0,35,7.835,35,17.5C35,27.166,27.166,35,17.5,35C7.836,35,0,27.166,0,17.5
		C0,7.836,7.836,0,17.5,0z"/>
	
		<polyline fill="none" stroke="#03A89A" stroke-width="3.6791" stroke-linecap="round" stroke-linejoin="round" stroke-miterlimit="10" points="
		20.208,25.213 12.497,17.5 20.208,9.789 	"/>
</g>
</svg>
