<?xml version="1.0" encoding="utf-8"?>
<!-- Generator: Adobe Illustrator 15.1.0, SVG Export Plug-In . SVG Version: 6.00 Build 0)  -->
<!DOCTYPE svg PUBLIC "-//W3C//DTD SVG 1.1//EN" "http://www.w3.org/Graphics/SVG/1.1/DTD/svg11.dtd">
<svg version="1.1" xmlns="http://www.w3.org/2000/svg" xmlns:xlink="http://www.w3.org/1999/xlink" x="0px" y="0px" width="200px"
	 height="200px" viewBox="0 0 200 200" enable-background="new 0 0 200 200" xml:space="preserve">
<g id="Calque_1" display="none">
	<circle display="inline" fill="#FBDFDD" cx="99.695" cy="99.311" r="92.288"/>
	<defs>
		<filter id="Adobe_OpacityMaskFilter" filterUnits="userSpaceOnUse" x="64.696" y="62.473" width="132.194" height="173.982">
			<feColorMatrix  type="matrix" values="1 0 0 0 0  0 1 0 0 0  0 0 1 0 0  0 0 0 1 0"/>
		</filter>
	</defs>
	<mask maskUnits="userSpaceOnUse" x="64.696" y="62.473" width="132.194" height="173.982" id="SVGID_5_" display="inline">
		<g filter="url(#Adobe_OpacityMaskFilter)">
			<linearGradient id="SVGID_6_" gradientUnits="userSpaceOnUse" x1="98.1533" y1="90.5122" x2="133.7325" y2="161.6696">
				<stop  offset="0.4724" style="stop-color:#FFFFFF"/>
				<stop  offset="0.6926" style="stop-color:#8F8F8F"/>
				<stop  offset="0.9056" style="stop-color:#282828"/>
				<stop  offset="1" style="stop-color:#000000"/>
			</linearGradient>
			<polygon opacity="0.6" fill="url(#SVGID_6_)" points="187.891,145.438 110.699,223.955 64.696,148.149 138.387,62.473 			"/>
		</g>
	</mask>
	<polygon display="inline" mask="url(#SVGID_5_)" fill="#F7C3BF" points="196.891,157.938 119.699,236.455 64.696,148.149 
		138.387,62.473 	"/>
	<polygon display="inline" fill="#FFFFFF" points="139.957,147.616 63.326,147.616 63.326,44.354 118.463,44.354 129.322,58.972 
		139.957,64.292 	"/>
	<g display="inline">
		<path fill="#00A597" d="M114.76,107.965c-0.693,0.98-1.582,1.738-2.672,2.276c-1.096,0.536-2.281,0.808-3.562,0.808
			c-1.062,0-2.059-0.2-2.986-0.602c-0.932-0.402-1.744-0.948-2.436-1.642c-0.686-0.688-1.234-1.498-1.637-2.427
			c-0.4-0.936-0.599-1.931-0.599-2.989s0.198-2.055,0.599-2.98c0.404-0.934,0.951-1.746,1.637-2.445
			c0.691-0.699,1.504-1.247,2.436-1.65c0.928-0.4,1.924-0.603,2.986-0.603c1.25,0,2.41,0.278,3.477,0.829
			c1.068,0.554,1.957,1.304,2.66,2.254c0.322,0.381,0.484,0.792,0.484,1.229c0,0.257-0.057,0.499-0.17,0.732
			c-0.111,0.234-0.258,0.44-0.434,0.624c-0.18,0.185-0.387,0.334-0.627,0.438c-0.24,0.104-0.49,0.158-0.742,0.158
			c-0.244,0-0.482-0.054-0.73-0.158c-0.234-0.104-0.471-0.274-0.695-0.518c-0.354-0.517-0.809-0.934-1.355-1.253
			c-0.559-0.319-1.172-0.483-1.848-0.483c-0.529,0-1.029,0.1-1.492,0.303c-0.467,0.201-0.875,0.479-1.23,0.83
			c-0.35,0.356-0.627,0.764-0.828,1.226c-0.201,0.468-0.301,0.966-0.301,1.497c0,0.527,0.1,1.023,0.301,1.49
			c0.203,0.469,0.479,0.876,0.828,1.232c0.355,0.352,0.764,0.627,1.23,0.829c0.463,0.202,0.963,0.301,1.492,0.301
			c0.658,0,1.262-0.15,1.809-0.447c0.545-0.291,0.994-0.704,1.348-1.214c0.414-0.42,0.875-0.627,1.373-0.627
			c0.256,0,0.504,0.056,0.748,0.166c0.24,0.115,0.453,0.27,0.637,0.461c0.184,0.189,0.33,0.406,0.432,0.652
			c0.107,0.238,0.16,0.484,0.16,0.744c0,0.178-0.021,0.34-0.062,0.495C114.949,107.647,114.875,107.805,114.76,107.965z"/>
		<path fill="#00A597" d="M122.719,104.282l2.262-7.49c0.111-0.369,0.326-0.647,0.639-0.838c0.312-0.197,0.654-0.289,1.02-0.289
			c0.307,0,0.594,0.054,0.869,0.166c0.367,0.162,0.654,0.39,0.854,0.686c0.203,0.299,0.301,0.632,0.301,0.998
			c0,0.291-0.057,0.558-0.168,0.793l-3.973,11.63c-0.174,0.404-0.422,0.688-0.732,0.858c-0.314,0.167-0.674,0.25-1.07,0.25
			c-0.371-0.016-0.73-0.119-1.076-0.312c-0.342-0.193-0.588-0.468-0.734-0.819l-3.994-11.607c-0.113-0.238-0.17-0.497-0.17-0.766
			c0-0.371,0.098-0.706,0.301-1.003c0.201-0.295,0.486-0.524,0.854-0.686c0.305-0.128,0.602-0.19,0.893-0.19
			c0.367,0,0.705,0.091,1.01,0.289c0.307,0.19,0.52,0.471,0.629,0.838L122.719,104.282z"/>
	</g>
	<g display="inline">
		
			<line fill="none" stroke="#00A597" stroke-width="3.7381" stroke-linecap="round" stroke-linejoin="round" stroke-miterlimit="10" x1="102.674" y1="127.061" x2="128.744" y2="127.061"/>
		
			<line fill="none" stroke="#00A597" stroke-width="3.7381" stroke-linecap="round" stroke-linejoin="round" stroke-miterlimit="10" x1="102.674" y1="119.115" x2="128.744" y2="119.115"/>
		
			<line fill="none" stroke="#00A597" stroke-width="3.7381" stroke-linecap="round" stroke-linejoin="round" stroke-miterlimit="10" x1="102.674" y1="135.002" x2="128.744" y2="135.002"/>
	</g>
	<polygon display="inline" fill="#E0E0E0" points="118.393,43.894 118.393,63.831 139.885,63.831 	"/>
	<g display="inline">
		<path fill="#18A294" d="M77.603,73.146c-2.252-3.874-6.28,4.111,1.269,6.096C77.872,76.322,77.603,73.146,77.603,73.146z"/>
		<path fill="#18A294" d="M103.461,73.225c2.271-3.858,6.256,4.151-1.308,6.086C103.168,76.4,103.461,73.225,103.461,73.225z"/>
		<g>
			<path fill="#FBDFDD" d="M90.976,88.498c-6.991-0.812-15.144-5.438-15.114-15.805c0.027-9.956,5.728-16.14,14.876-16.14
				c9.195,0.03,15.081,6.382,15.051,16.182c-0.028,9.836-7.343,15.005-14.58,15.764l-0.117,0.012L90.976,88.498z"/>
			<path fill="#18A294" d="M90.739,57.62c0.018,0,0.035,0,0.053,0c8.91,0.029,13.958,6.202,13.931,15.112
				c-0.025,8.91-6.625,13.972-13.624,14.707c-7.482-0.869-14.196-5.833-14.17-14.743C76.954,63.805,81.862,57.62,90.739,57.62
				 M90.739,55.486L90.739,55.486c-9.657,0-15.915,6.753-15.944,17.204c-0.03,10.361,8.043,15.938,16.058,16.868l0.234,0.027
				l0.234-0.025c7.461-0.783,15.505-6.381,15.535-16.823c0.032-10.447-6.271-17.219-16.058-17.251H90.739L90.739,55.486z"/>
		</g>
		<path fill="#18A294" d="M86.034,74.442c-0.002,1.009-0.902,1.822-2.01,1.82c-1.108-0.004-2.004-0.824-2.002-1.836
			c0.004-1.005,0.902-1.82,2.01-1.819C85.144,72.611,86.036,73.434,86.034,74.442z"/>
		<path fill="#FFFFFF" d="M84.162,73.973c0,0.304-0.271,0.551-0.607,0.546c-0.333,0-0.605-0.245-0.605-0.549
			c0.001-0.307,0.274-0.552,0.609-0.552C83.894,73.418,84.162,73.669,84.162,73.973z"/>
		<path fill="#18A294" d="M100.419,74.804c-0.001,1.009-0.904,1.823-2.012,1.82c-1.106-0.002-2-0.824-1.999-1.834
			c0.005-1.008,0.906-1.822,2.013-1.82C99.528,72.974,100.423,73.794,100.419,74.804z"/>
		<path fill="#FFFFFF" d="M98.507,74.5c0,0.305-0.27,0.55-0.601,0.548c-0.339,0-0.606-0.243-0.606-0.551
			c0-0.302,0.271-0.554,0.607-0.549C98.239,73.949,98.51,74.197,98.507,74.5z"/>
		<g>
			<path fill="#18A294" d="M89.431,82.088l1.103,1.249c0.347,0.369,0.761,0.714,1.022,0.711c0.224,0.056,0.603-0.234,0.929-0.633
				c0.33-0.396,0.639-0.86,1.019-1.315c0.004,0.593-0.11,1.169-0.366,1.724c-0.123,0.281-0.306,0.545-0.559,0.796
				c-0.25,0.238-0.665,0.445-1.106,0.411c-0.882-0.14-1.272-0.748-1.566-1.25C89.624,83.248,89.455,82.683,89.431,82.088z"/>
		</g>
		<path fill="#F7C3BF" d="M85.576,78.103c-0.002,0.642-1.057,1.158-2.357,1.152c-1.302-0.004-2.355-0.527-2.354-1.168
			c0.003-0.64,1.061-1.156,2.362-1.152C84.529,76.938,85.579,77.461,85.576,78.103z"/>
		<ellipse fill="#F7C3BF" cx="99.155" cy="78.49" rx="2.356" ry="1.157"/>
		<g>
			<path fill="#18A294" d="M100.722,89.29c0.101-0.854,0.255-1.943,0.413-3.063c0.859-6.083,2.297-16.265,0.627-21.244l-0.669-1.995
				l0.236,2.091c0.182,1.606-1.244,4.311-1.99,5.639c-0.192-1.848-0.813-5.253-1.463-6.162L97.62,64.2l-0.137,0.417
				c-0.211,0.641-0.38,1.429-0.56,2.263c-0.248,1.155-0.503,2.341-0.879,3.185c-0.307-2.183-1.232-4.126-1.807-5.334l-0.293-0.617
				l-0.188,0.481c-0.179,0.458-0.376,1.033-0.588,1.647c-0.483,1.406-1.074,3.122-1.645,3.977c-0.504-0.891-1.343-2.791-1.332-5.555
				l0.003-0.797l-0.416,0.68c-0.563,0.92-1.202,3.089-1.521,4.604c-0.839-1.557-0.948-1.807-0.94-4.495l0.002-0.59l-0.391,0.441
				c-0.812,0.916-1.212,2.882-1.144,5.578c-0.975-1.352-1.846-3.408-1.841-5.441l-0.442-0.039l-0.105,0.594
				c-0.295,1.659-0.809,4.548-1.02,6.012c-1.016-1.719-1.645-5.033-1.299-6.303l-0.419-0.148c-1.696,3.863-1.361,14.219,0.64,23.041
				c-2.125-5.123-4.665-15.594-4.369-18.727l0.093-0.981l-0.506,0.846c-0.316,0.53-0.602,3.341-0.5,5.864
				c-2.096-8.207-0.078-13.465,2.116-16.509c3.127-4.339,7.7-5.879,10.665-5.879c0.804,0,1.542,0.105,2.192,0.313l0.06,0.019
				l0.061-0.015c0.774-0.189,1.584-0.285,2.407-0.285c4.135,0,8.422,2.439,11.186,6.366c2.154,3.059,5.199,9.599,1.953,19.523
				c-0.533-4.36-0.406-6.727-0.32-7.575l-0.443-0.052c-0.566,4.163-3.148,12.247-4.691,17.076
				C101.026,88.333,100.865,88.839,100.722,89.29z"/>
			<path fill="#18A294" d="M88.798,52.637c0.781,0,1.496,0.102,2.124,0.302l0.12,0.039l0.122-0.03
				c0.757-0.185,1.549-0.279,2.354-0.279c4.064,0,8.28,2.403,11.004,6.271c2.055,2.919,4.93,9.048,2.236,18.314
				c-0.391-3.668-0.277-5.7-0.203-6.457c0.02-0.142,0.037-0.28,0.053-0.413l-0.885-0.116c-0.018,0.121-0.035,0.262-0.051,0.408
				c-0.529,3.896-2.84,11.262-4.395,16.138c0.025-0.185,0.053-0.371,0.078-0.558c0.861-6.103,2.304-16.317,0.617-21.346l-1.338-3.99
				l0.473,4.182c0.113,1.003-0.434,2.646-1.629,4.889c-0.255-1.938-0.817-4.722-1.422-5.567l-0.511-0.713l-0.274,0.834
				c-0.214,0.652-0.385,1.445-0.565,2.286c-0.171,0.795-0.355,1.652-0.585,2.381c-0.396-1.877-1.174-3.513-1.683-4.58l-0.072-0.151
				l-0.443-0.932l-0.375,0.962c-0.181,0.464-0.38,1.042-0.591,1.655c-0.424,1.232-0.93,2.705-1.422,3.599
				c-0.489-0.97-1.131-2.702-1.121-5.104l0.006-1.595l-0.832,1.36c-0.523,0.854-1.075,2.638-1.417,4.084
				c-0.572-1.107-0.638-1.559-0.631-3.857l0.003-1.18l-0.783,0.883c-0.95,1.071-1.188,3.221-1.205,4.976
				c-0.775-1.285-1.395-2.997-1.39-4.69l-0.885-0.079l-0.105,0.596c-0.255,1.432-0.672,3.782-0.918,5.344
				c-0.807-1.751-1.266-4.439-0.966-5.539l-0.838-0.296c-1.526,3.476-1.429,12.132,0.032,20.249
				c-1.807-5.445-3.576-13.282-3.335-15.824l0.185-1.963l-1.011,1.692c-0.246,0.411-0.475,2.045-0.539,3.902
				c-1.287-6.976,0.546-11.555,2.526-14.302C81.393,54.152,85.886,52.637,88.798,52.637 M88.798,52.191
				c-6.956,0-18.051,7.787-12.265,25.144c-0.61-2.673-0.201-7.652,0.176-8.283c-0.332,3.514,3.039,16.937,5.313,20.758
				c-2.498-9.417-2.898-20.999-1.158-24.961c-0.4,1.469,0.398,5.393,1.659,6.969c0.131-1.216,0.932-5.663,1.2-7.175
				c-0.007,2.431,1.199,4.834,2.312,6.117c-0.149-2.877,0.206-5.141,1.062-6.105c-0.009,3.035,0.136,3.04,1.263,5.153
				c0.244-1.438,0.975-4.108,1.61-5.146c-0.012,2.875,0.875,4.912,1.533,5.954c0.901-1.036,1.809-4.267,2.461-5.941
				c0.645,1.357,1.749,3.596,1.934,6.112c0.926-1.312,1.218-4.342,1.796-6.1c0.692,0.966,1.42,5.259,1.479,6.773
				c0.432-0.767,2.606-4.384,2.378-6.405c2.363,7.047-1.58,24.754-1.132,25.974c0.823-2.844,4.958-14.878,5.694-20.29
				c0.016-0.153,0.033-0.287,0.051-0.401c-0.016,0.129-0.031,0.263-0.051,0.401c-0.133,1.325-0.16,4.109,0.445,8.572
				c5.795-16.181-4.141-27.087-13.041-27.087c-0.833,0-1.658,0.096-2.46,0.292C90.385,52.3,89.621,52.191,88.798,52.191
				L88.798,52.191z M99.173,71.459c-0.053,0.094-0.08,0.145-0.073,0.145c0.005,0,0.029-0.028,0.075-0.087
				C99.174,71.498,99.174,71.479,99.173,71.459L99.173,71.459z M76.533,77.335c0.098,0.432,0.223,0.803,0.379,1.086
				C76.778,78.054,76.652,77.693,76.533,77.335L76.533,77.335z"/>
		</g>
		<path fill="#18A294" d="M80.19,87.928c0,0-5.093-17.671-1.034-24.039l1.207-8.298c0,0-13.31,9.201-2.528,29.63"/>
		<path fill="#18A294" d="M102.004,87.928c0,0,5.092-17.671,1.033-24.039l-1.207-8.298c0,0,13.309,9.201,2.529,29.63"/>
		<defs>
			<filter id="Adobe_OpacityMaskFilter_1_" filterUnits="userSpaceOnUse" x="74.684" y="56.248" width="32.699" height="11.829">
				<feColorMatrix  type="matrix" values="1 0 0 0 0  0 1 0 0 0  0 0 1 0 0  0 0 0 1 0"/>
			</filter>
		</defs>
		<mask maskUnits="userSpaceOnUse" x="74.684" y="56.248" width="32.699" height="11.829" id="SVGID_1_">
			<g filter="url(#Adobe_OpacityMaskFilter_1_)">
				
					<linearGradient id="SVGID_7_" gradientUnits="userSpaceOnUse" x1="296.3633" y1="-163.9268" x2="296.3633" y2="-148.0085" gradientTransform="matrix(1 0 0 -1 -206 -94)">
					<stop  offset="0" style="stop-color:#4A4A49"/>
					<stop  offset="0.7239" style="stop-color:#1D1D1B"/>
				</linearGradient>
				<rect x="69.593" y="53.366" opacity="0.82" fill="url(#SVGID_7_)" enable-background="new    " width="41.54" height="16.395"/>
			</g>
		</mask>
		<g mask="url(#SVGID_1_)">
			<path fill="#18A294" d="M83.325,66.885c-0.904-0.236-1.754-0.489-2.554-0.751"/>
			<path fill="#18A294" d="M86.121,67.496c-0.697-0.124-1.372-0.271-2.03-0.429"/>
			<path fill="#18A294" d="M80.474,66.036c-2.322-0.774-4.156-1.6-5.278-2.155"/>
			<path fill="#18A294" d="M92.755,68.071c-0.795,0.014-1.58-0.012-2.354-0.054"/>
			<path fill="#18A294" d="M101.402,66.542c-0.944,0.337-1.891,0.616-2.833,0.833"/>
			<path fill="#18A294" d="M96.975,67.691c-0.559,0.091-1.112,0.164-1.666,0.223"/>
			<path fill="#18A294" d="M103.193,56.474c-4.148,1.448-13.319,3.679-23.57-0.227c-0.91,0.893-1.771,1.695-2.476,2.896
				c0,0-1.149,1.438-2.463,4.643c1.123,0.556,3.468,1.476,5.79,2.249c0.116-0.439,0.243-0.852,0.39-1.187
				c-0.088,0.325-0.113,0.773-0.095,1.284c0.802,0.264,1.653,0.516,2.555,0.751c0.16-0.92,0.308-1.744,0.396-2.244
				c0,0.828,0.143,1.651,0.369,2.427c0.659,0.157,1.333,0.304,2.03,0.429c0.161-1.29,0.482-2.289,0.974-2.844
				c-0.003,1.616,0.036,2.373,0.246,3.048c0.477,0.072,0.96,0.13,1.452,0.182c0.331-1.242,0.773-2.563,1.178-3.221
				c-0.006,1.296,0.177,2.412,0.434,3.354c0.774,0.042,1.557,0.068,2.353,0.055c0.448-1.201,0.862-2.517,1.207-3.399
				c0.385,0.809,0.928,1.935,1.346,3.24c0.554-0.059,1.108-0.131,1.666-0.223c0.24-1.076,0.447-2.179,0.72-3.005
				c0.306,0.426,0.617,1.494,0.875,2.689c0.942-0.218,1.89-0.498,2.832-0.833c0.133-0.54,0.197-1.052,0.148-1.487
				c0.139,0.404,0.247,0.847,0.346,1.315c1.422-0.541,4.1-1.884,5.488-2.747C106.111,60.514,104.732,58.394,103.193,56.474z"/>
		</g>
	</g>
	<circle display="inline" fill="#FBDFDD" cx="384.694" cy="99.311" r="92.288"/>
	<circle display="inline" fill="#FBDFDD" cx="669.694" cy="99.311" r="92.288"/>
	<g display="inline">
		<path fill="#FFFFFF" d="M354.153,123.983c-1.455,0-2.635-1.18-2.635-2.635V92.875c0-1.456,1.18-2.635,2.635-2.635h62.929
			c1.455,0,2.635,1.18,2.635,2.635v28.473c0,1.455-1.18,2.635-2.635,2.635H354.153z"/>
		<path fill="#FFFFFF" d="M417.082,92.875v28.473h-62.929V92.875H417.082 M417.082,87.605h-62.929c-2.911,0-5.271,2.36-5.271,5.271
			v28.473c0,2.911,2.359,5.271,5.271,5.271h62.929c2.911,0,5.271-2.359,5.271-5.271V92.875
			C422.353,89.965,419.993,87.605,417.082,87.605L417.082,87.605z"/>
	</g>
	<defs>
		<filter id="Adobe_OpacityMaskFilter_2_" filterUnits="userSpaceOnUse" x="342.733" y="52.361" width="132.603" height="167.911">
			<feColorMatrix  type="matrix" values="1 0 0 0 0  0 1 0 0 0  0 0 1 0 0  0 0 0 1 0"/>
		</filter>
	</defs>
	<mask maskUnits="userSpaceOnUse" x="342.733" y="52.361" width="132.603" height="167.911" id="SVGID_8_" display="inline">
		<g filter="url(#Adobe_OpacityMaskFilter_2_)">
			
				<linearGradient id="SVGID_9_" gradientUnits="userSpaceOnUse" x1="724.6455" y1="201.1338" x2="694.038" y2="78.0268" gradientTransform="matrix(0.4804 -0.1339 0.1878 0.5329 34.0723 147.3945)">
				<stop  offset="0" style="stop-color:#000000"/>
				<stop  offset="0.0959" style="stop-color:#333333"/>
				<stop  offset="0.3103" style="stop-color:#A0A0A0"/>
				<stop  offset="0.4586" style="stop-color:#E4E4E4"/>
				<stop  offset="0.5276" style="stop-color:#FFFFFF"/>
			</linearGradient>
			<polygon opacity="0.75" fill="url(#SVGID_9_)" points="475.336,147.826 397.736,220.272 342.733,131.967 416.833,52.361 			"/>
		</g>
	</mask>
	<polygon display="inline" mask="url(#SVGID_8_)" fill="#F7C3BF" points="475.336,147.826 397.736,220.272 342.733,131.967 
		416.833,52.361 	"/>
	<g display="inline">
		<path fill="#18A294" d="M420.502,61.178v8.864c0,3.999-3.253,7.252-7.253,7.252c-3.999,0-7.252-3.253-7.252-7.252v-8.864h-4.298
			v8.864c0,3.999-3.254,7.252-7.253,7.252c-4,0-7.252-3.253-7.252-7.252v-8.864h-4.3v8.864c0,3.999-3.253,7.252-7.252,7.252
			s-7.253-3.253-7.253-7.252v-8.864h-4.298v8.864c0,3.999-3.254,7.252-7.252,7.252c-3.999,0-7.253-3.253-7.253-7.252v-8.864h-7.253
			v70.915h85.421V61.178H420.502z"/>
	</g>
	<g display="inline">
		
			<line fill="#18A294" stroke="#FFFFFF" stroke-width="2.7916" stroke-miterlimit="10" x1="356.638" y1="53.313" x2="356.638" y2="68.625"/>
		<path fill="#18A294" d="M356.638,72.653c-1.669,0-3.021-1.804-3.021-4.029V53.313c0-2.225,1.353-4.029,3.021-4.029
			s3.022,1.804,3.022,4.029v15.312C359.66,70.85,358.307,72.653,356.638,72.653z"/>
	</g>
	<g display="inline">
		
			<line fill="#18A294" stroke="#FFFFFF" stroke-width="2.7916" stroke-miterlimit="10" x1="375.665" y1="53.313" x2="375.665" y2="68.625"/>
		<path fill="#18A294" d="M375.665,72.653c-1.669,0-3.021-1.804-3.021-4.029V53.313c0-2.225,1.353-4.029,3.021-4.029
			c1.67,0,3.022,1.804,3.022,4.029v15.312C378.688,70.85,377.335,72.653,375.665,72.653z"/>
	</g>
	<g display="inline">
		
			<line fill="#18A294" stroke="#FBDFDD" stroke-width="4" stroke-miterlimit="10" x1="394.692" y1="53.313" x2="394.692" y2="68.625"/>
		<g>
			<path fill="#18A294" d="M394.692,74.653c-2.816,0-5.022-2.648-5.022-6.029V53.313c0-3.381,2.206-6.029,5.022-6.029
				c2.815,0,5.021,2.648,5.021,6.029v15.312C399.714,72.005,397.508,74.653,394.692,74.653z"/>
			<path fill="#FBDFDD" d="M394.692,49.284c1.669,0,3.021,1.804,3.021,4.029v15.312c0,2.225-1.353,4.029-3.021,4.029
				c-1.67,0-3.022-1.804-3.022-4.029V53.313C391.67,51.088,393.022,49.284,394.692,49.284 M394.692,45.284
				c-3.938,0-7.022,3.527-7.022,8.029v15.312c0,4.502,3.085,8.029,7.022,8.029s7.021-3.527,7.021-8.029V53.313
				C401.714,48.811,398.63,45.284,394.692,45.284L394.692,45.284z"/>
		</g>
	</g>
	<g display="inline">
		
			<line fill="#18A294" stroke="#FBDFDD" stroke-width="4" stroke-miterlimit="10" x1="413.386" y1="53.646" x2="413.386" y2="68.958"/>
		<g>
			<path fill="#18A294" d="M413.386,74.986c-2.816,0-5.022-2.648-5.022-6.029V53.646c0-3.381,2.206-6.029,5.022-6.029
				c2.815,0,5.021,2.648,5.021,6.029v15.312C418.407,72.338,416.201,74.986,413.386,74.986z"/>
			<path fill="#FBDFDD" d="M413.386,49.617c1.669,0,3.021,1.804,3.021,4.029v15.312c0,2.225-1.353,4.029-3.021,4.029
				c-1.67,0-3.022-1.804-3.022-4.029V53.646C410.363,51.421,411.716,49.617,413.386,49.617 M413.386,45.617
				c-3.938,0-7.022,3.527-7.022,8.029v15.312c0,4.502,3.085,8.029,7.022,8.029s7.021-3.527,7.021-8.029V53.646
				C420.407,49.144,417.323,45.617,413.386,45.617L413.386,45.617z"/>
		</g>
	</g>
	<rect x="349.318" y="86.965" display="inline" fill="#FFFFFF" width="69.84" height="38.681"/>
	<rect x="354.69" y="98.856" display="inline" fill="none" width="59.644" height="18.144"/>
	
		<text transform="matrix(1 0 0 1 354.6904 115.9883)" display="inline" fill="#18A294" font-family="'Antipasto-ExtraBold'" font-size="26.8944">2016</text>
	<defs>
		<filter id="Adobe_OpacityMaskFilter_3_" filterUnits="userSpaceOnUse" x="621.772" y="67.028" width="153.936" height="151.244">
			<feColorMatrix  type="matrix" values="1 0 0 0 0  0 1 0 0 0  0 0 1 0 0  0 0 0 1 0"/>
		</filter>
	</defs>
	<mask maskUnits="userSpaceOnUse" x="621.772" y="67.028" width="153.936" height="151.244" id="SVGID_10_" display="inline">
		<g filter="url(#Adobe_OpacityMaskFilter_3_)">
			
				<linearGradient id="SVGID_11_" gradientUnits="userSpaceOnUse" x1="1265.8027" y1="336.0186" x2="1240.0507" y2="232.4409" gradientTransform="matrix(0.4804 -0.1339 0.1878 0.5329 34.0723 147.3945)">
				<stop  offset="0" style="stop-color:#000000"/>
				<stop  offset="0.0959" style="stop-color:#333333"/>
				<stop  offset="0.3103" style="stop-color:#A0A0A0"/>
				<stop  offset="0.4586" style="stop-color:#E4E4E4"/>
				<stop  offset="0.5276" style="stop-color:#FFFFFF"/>
			</linearGradient>
			<polygon opacity="0.7" fill="url(#SVGID_11_)" points="775.042,161.826 676.775,218.272 621.772,129.967 716.539,66.361 			"/>
		</g>
	</mask>
	<polygon display="inline" mask="url(#SVGID_10_)" fill="#F7C3BF" points="775.708,162.493 676.775,218.272 621.772,129.967 
		717.205,67.028 	"/>
	
		<rect x="624.688" y="69.713" display="inline" fill="#18A294" stroke="#18A294" stroke-width="6.693" stroke-linecap="round" stroke-linejoin="round" stroke-miterlimit="10" width="90.719" height="60.158"/>
	<g display="inline">
		<path fill="#E0E0E0" d="M670.44,127.266c-13.458-6.593-29.208-6.593-42.666,0c0-17.654,0-35.309,0-52.964
			c13.458-6.593,29.208-6.593,42.666,0C670.44,91.957,670.44,109.611,670.44,127.266z"/>
	</g>
	<g display="inline">
		<path fill="#E0E0E0" d="M713.113,127.266c-13.458-6.593-29.208-6.593-42.666,0c0-17.654,0-35.309,0-52.964
			c13.458-6.593,29.208-6.593,42.666,0C713.113,91.957,713.113,109.611,713.113,127.266z"/>
	</g>
	<g display="inline">
		<path fill="#FFFFFF" d="M669.981,126.102c-12.011-9.555-26.067-13.226-38.078-11.012c0-17.655,0-35.309,0-52.964
			c12.011-2.213,26.067,1.457,38.078,11.012C669.981,90.792,669.981,108.447,669.981,126.102z"/>
	</g>
	<g display="inline">
		<path fill="#FFFFFF" d="M670.443,126.102c12.011-9.555,26.067-13.226,38.078-11.012c0-17.655,0-35.309,0-52.964
			c-12.011-2.213-26.067,1.457-38.078,11.012C670.443,90.792,670.443,108.447,670.443,126.102z"/>
	</g>
	
		<line display="inline" fill="none" stroke="#E0E0E0" stroke-width="2.688" stroke-linecap="round" stroke-linejoin="round" stroke-miterlimit="10" x1="669.756" y1="73.843" x2="669.756" y2="125.459"/>
	<circle display="inline" fill="#FBDFDD" cx="99.695" cy="-516.676" r="92.288"/>
	<defs>
		<filter id="Adobe_OpacityMaskFilter_4_" filterUnits="userSpaceOnUse" x="64.696" y="-553.515" width="132.194" height="173.982">
			<feColorMatrix  type="matrix" values="1 0 0 0 0  0 1 0 0 0  0 0 1 0 0  0 0 0 1 0"/>
		</filter>
	</defs>
	<mask maskUnits="userSpaceOnUse" x="64.696" y="-553.515" width="132.194" height="173.982" id="SVGID_12_" display="inline">
		<g filter="url(#Adobe_OpacityMaskFilter_4_)">
			<linearGradient id="SVGID_13_" gradientUnits="userSpaceOnUse" x1="97.6343" y1="-525.5117" x2="131.8882" y2="-457.0049">
				<stop  offset="0.4724" style="stop-color:#FFFFFF"/>
				<stop  offset="0.5228" style="stop-color:#F9F9F9"/>
				<stop  offset="0.5884" style="stop-color:#E9E9E9"/>
				<stop  offset="0.6625" style="stop-color:#CECECE"/>
				<stop  offset="0.7428" style="stop-color:#A8A8A8"/>
				<stop  offset="0.8281" style="stop-color:#787878"/>
				<stop  offset="0.9161" style="stop-color:#3E3E3E"/>
				<stop  offset="1" style="stop-color:#000000"/>
			</linearGradient>
			<polygon opacity="0.5" fill="url(#SVGID_13_)" points="184.891,-474.55 107.699,-396.032 64.696,-467.838 138.387,-553.515 			
				"/>
		</g>
	</mask>
	<polygon display="inline" mask="url(#SVGID_12_)" fill="#F7C3BF" points="196.891,-458.05 119.699,-379.532 64.696,-467.838 
		138.387,-553.515 	"/>
	<polygon display="inline" fill="#FFFFFF" points="139.957,-468.371 63.326,-468.371 63.326,-571.633 118.463,-571.633 
		129.322,-557.016 139.957,-551.695 	"/>
	<g display="inline">
		<path fill="#00A597" d="M114.76-508.022c-0.693,0.98-1.582,1.738-2.672,2.276c-1.096,0.536-2.281,0.808-3.562,0.808
			c-1.062,0-2.059-0.2-2.986-0.602c-0.932-0.402-1.744-0.948-2.436-1.642c-0.686-0.688-1.234-1.498-1.637-2.427
			c-0.4-0.936-0.599-1.931-0.599-2.989s0.198-2.055,0.599-2.98c0.404-0.934,0.951-1.746,1.637-2.445
			c0.691-0.699,1.504-1.247,2.436-1.65c0.928-0.4,1.924-0.603,2.986-0.603c1.25,0,2.41,0.278,3.477,0.829
			c1.068,0.554,1.957,1.304,2.66,2.254c0.322,0.381,0.484,0.792,0.484,1.229c0,0.257-0.057,0.499-0.17,0.732
			c-0.111,0.234-0.258,0.44-0.434,0.624c-0.18,0.185-0.387,0.334-0.627,0.438c-0.24,0.104-0.49,0.158-0.742,0.158
			c-0.244,0-0.482-0.054-0.73-0.158c-0.234-0.104-0.471-0.274-0.695-0.518c-0.354-0.517-0.809-0.934-1.355-1.253
			c-0.559-0.319-1.172-0.483-1.848-0.483c-0.529,0-1.029,0.1-1.492,0.303c-0.467,0.201-0.875,0.479-1.23,0.83
			c-0.35,0.356-0.627,0.764-0.828,1.226c-0.201,0.468-0.301,0.966-0.301,1.497c0,0.527,0.1,1.023,0.301,1.49
			c0.203,0.469,0.479,0.876,0.828,1.232c0.355,0.352,0.764,0.627,1.23,0.829c0.463,0.202,0.963,0.301,1.492,0.301
			c0.658,0,1.262-0.15,1.809-0.447c0.545-0.291,0.994-0.704,1.348-1.214c0.414-0.42,0.875-0.627,1.373-0.627
			c0.256,0,0.504,0.056,0.748,0.166c0.24,0.115,0.453,0.27,0.637,0.461c0.184,0.189,0.33,0.406,0.432,0.652
			c0.107,0.238,0.16,0.484,0.16,0.744c0,0.178-0.021,0.34-0.062,0.495C114.949-508.34,114.875-508.183,114.76-508.022z"/>
		<path fill="#00A597" d="M122.719-511.705l2.262-7.49c0.111-0.369,0.326-0.647,0.639-0.838c0.312-0.197,0.654-0.289,1.02-0.289
			c0.307,0,0.594,0.054,0.869,0.166c0.367,0.162,0.654,0.39,0.854,0.686c0.203,0.299,0.301,0.632,0.301,0.998
			c0,0.291-0.057,0.558-0.168,0.793l-3.973,11.63c-0.174,0.404-0.422,0.688-0.732,0.858c-0.314,0.167-0.674,0.25-1.07,0.25
			c-0.371-0.016-0.73-0.119-1.076-0.312c-0.342-0.193-0.588-0.468-0.734-0.819l-3.994-11.607c-0.113-0.238-0.17-0.497-0.17-0.766
			c0-0.371,0.098-0.706,0.301-1.003c0.201-0.295,0.486-0.524,0.854-0.686c0.305-0.128,0.602-0.19,0.893-0.19
			c0.367,0,0.705,0.091,1.01,0.289c0.307,0.19,0.52,0.471,0.629,0.838L122.719-511.705z"/>
	</g>
	<g display="inline">
		
			<line fill="none" stroke="#00A597" stroke-width="3.7381" stroke-linecap="round" stroke-linejoin="round" stroke-miterlimit="10" x1="102.674" y1="-488.927" x2="128.744" y2="-488.927"/>
		
			<line fill="none" stroke="#00A597" stroke-width="3.7381" stroke-linecap="round" stroke-linejoin="round" stroke-miterlimit="10" x1="102.674" y1="-496.872" x2="128.744" y2="-496.872"/>
		
			<line fill="none" stroke="#00A597" stroke-width="3.7381" stroke-linecap="round" stroke-linejoin="round" stroke-miterlimit="10" x1="102.674" y1="-480.985" x2="128.744" y2="-480.985"/>
	</g>
	<polygon display="inline" fill="#E0E0E0" points="118.393,-572.094 118.393,-552.156 139.885,-552.156 	"/>
	<g display="inline">
		<path fill="#18A294" d="M77.603-542.841c-2.252-3.874-6.28,4.111,1.269,6.096C77.872-539.665,77.603-542.841,77.603-542.841z"/>
		<path fill="#18A294" d="M103.461-542.763c2.271-3.858,6.256,4.151-1.308,6.086C103.168-539.587,103.461-542.763,103.461-542.763z"
			/>
		<g>
			<path fill="#FBDFDD" d="M90.976-527.49c-6.991-0.812-15.144-5.438-15.114-15.805c0.027-9.956,5.728-16.14,14.876-16.14
				c9.196,0.03,15.082,6.382,15.05,16.182c-0.027,9.836-7.342,15.005-14.579,15.764l-0.117,0.012L90.976-527.49z"/>
			<path fill="#18A294" d="M90.739-558.368c0.018,0,0.035,0,0.053,0c8.91,0.029,13.958,6.202,13.931,15.112
				c-0.025,8.91-6.625,13.972-13.624,14.707c-7.482-0.869-14.196-5.833-14.17-14.743C76.954-552.182,81.862-558.367,90.739-558.368
				 M90.739-560.501L90.739-560.501c-9.657,0-15.915,6.753-15.943,17.204c-0.03,10.361,8.043,15.938,16.058,16.868l0.234,0.027
				l0.234-0.025c7.461-0.783,15.504-6.381,15.534-16.823c0.033-10.447-6.269-17.219-16.057-17.251H90.739L90.739-560.501z"/>
		</g>
		<path fill="#18A294" d="M86.034-541.545c-0.002,1.009-0.902,1.822-2.01,1.82c-1.108-0.004-2.004-0.824-2.002-1.836
			c0.004-1.005,0.902-1.82,2.01-1.819C85.144-543.376,86.036-542.553,86.034-541.545z"/>
		<path fill="#FFFFFF" d="M84.162-542.014c0,0.304-0.271,0.551-0.607,0.546c-0.333,0-0.605-0.245-0.605-0.549
			c0.001-0.307,0.274-0.552,0.609-0.552C83.894-542.569,84.162-542.318,84.162-542.014z"/>
		<path fill="#18A294" d="M100.419-541.184c-0.001,1.009-0.904,1.823-2.012,1.82c-1.106-0.002-2-0.824-1.999-1.834
			c0.005-1.008,0.906-1.822,2.013-1.82C99.528-543.014,100.423-542.193,100.419-541.184z"/>
		<path fill="#FFFFFF" d="M98.507-541.487c0,0.305-0.27,0.55-0.601,0.548c-0.339,0-0.606-0.243-0.606-0.551
			c0-0.302,0.271-0.554,0.607-0.549C98.239-542.038,98.51-541.791,98.507-541.487z"/>
		<g>
			<path fill="#18A294" d="M89.431-533.899l1.103,1.249c0.347,0.369,0.761,0.714,1.022,0.711c0.224,0.056,0.603-0.234,0.929-0.633
				c0.33-0.396,0.639-0.86,1.019-1.315c0.004,0.593-0.11,1.169-0.366,1.724c-0.123,0.281-0.306,0.545-0.559,0.796
				c-0.25,0.238-0.665,0.445-1.106,0.411c-0.882-0.14-1.272-0.748-1.566-1.25C89.624-532.739,89.455-533.304,89.431-533.899z"/>
		</g>
		<path fill="#F7C3BF" d="M85.576-537.885c-0.002,0.642-1.057,1.158-2.357,1.152c-1.302-0.004-2.355-0.527-2.354-1.168
			c0.003-0.64,1.061-1.156,2.362-1.152C84.529-539.049,85.579-538.526,85.576-537.885z"/>
		<ellipse fill="#F7C3BF" cx="99.155" cy="-537.498" rx="2.356" ry="1.157"/>
		<g>
			<path fill="#18A294" d="M100.722-526.698c0.101-0.854,0.255-1.943,0.413-3.063c0.859-6.083,2.297-16.265,0.627-21.244
				L101.093-553l0.236,2.091c0.182,1.606-1.244,4.311-1.99,5.639c-0.192-1.848-0.813-5.253-1.463-6.162l-0.256-0.356l-0.137,0.417
				c-0.211,0.641-0.38,1.429-0.56,2.263c-0.248,1.155-0.503,2.341-0.879,3.185c-0.307-2.183-1.232-4.126-1.807-5.334l-0.293-0.617
				l-0.188,0.481c-0.179,0.458-0.376,1.033-0.588,1.647c-0.483,1.406-1.074,3.122-1.645,3.977c-0.504-0.891-1.343-2.791-1.332-5.555
				l0.003-0.797l-0.416,0.68c-0.563,0.92-1.202,3.089-1.521,4.604c-0.839-1.557-0.948-1.807-0.94-4.495l0.002-0.59l-0.391,0.441
				c-0.812,0.916-1.212,2.882-1.144,5.578c-0.975-1.352-1.846-3.408-1.841-5.441l-0.442-0.039l-0.105,0.594
				c-0.295,1.659-0.809,4.548-1.02,6.012c-1.016-1.719-1.645-5.033-1.299-6.303l-0.419-0.148c-1.696,3.863-1.361,14.219,0.64,23.041
				c-2.125-5.123-4.665-15.594-4.369-18.727l0.093-0.981l-0.506,0.846c-0.316,0.53-0.602,3.341-0.5,5.864
				c-2.096-8.207-0.078-13.465,2.116-16.509c3.127-4.339,7.7-5.879,10.665-5.879c0.804,0,1.542,0.105,2.192,0.313l0.06,0.019
				l0.061-0.015c0.774-0.189,1.584-0.285,2.407-0.285c4.135,0,8.422,2.439,11.186,6.366c2.154,3.059,5.199,9.599,1.953,19.523
				c-0.533-4.36-0.406-6.727-0.32-7.575l-0.443-0.052c-0.566,4.163-3.148,12.247-4.691,17.076
				C101.026-527.654,100.865-527.148,100.722-526.698z"/>
			<path fill="#18A294" d="M88.798-563.35c0.781,0,1.496,0.102,2.124,0.302l0.12,0.039l0.122-0.03
				c0.757-0.185,1.549-0.279,2.354-0.279c4.064,0,8.28,2.403,11.004,6.271c2.055,2.919,4.93,9.048,2.236,18.314
				c-0.391-3.668-0.277-5.7-0.203-6.457c0.02-0.142,0.037-0.28,0.053-0.413l-0.885-0.116c-0.018,0.121-0.035,0.262-0.051,0.408
				c-0.529,3.896-2.84,11.262-4.395,16.138c0.025-0.185,0.053-0.371,0.078-0.558c0.861-6.103,2.304-16.317,0.617-21.346l-1.338-3.99
				l0.473,4.182c0.113,1.003-0.434,2.646-1.629,4.889c-0.255-1.938-0.817-4.722-1.422-5.567l-0.511-0.713l-0.274,0.834
				c-0.214,0.652-0.385,1.445-0.565,2.286c-0.171,0.795-0.355,1.652-0.585,2.381c-0.396-1.877-1.174-3.513-1.683-4.58l-0.072-0.151
				l-0.443-0.932l-0.375,0.962c-0.181,0.464-0.38,1.042-0.591,1.655c-0.424,1.232-0.93,2.705-1.422,3.599
				c-0.489-0.97-1.131-2.702-1.121-5.104l0.006-1.595l-0.832,1.36c-0.523,0.854-1.075,2.638-1.417,4.084
				c-0.572-1.107-0.638-1.559-0.631-3.857l0.003-1.18l-0.783,0.883c-0.95,1.071-1.188,3.221-1.205,4.976
				c-0.775-1.285-1.395-2.997-1.39-4.69l-0.885-0.079l-0.105,0.596c-0.255,1.432-0.672,3.782-0.918,5.344
				c-0.807-1.751-1.266-4.439-0.966-5.539l-0.838-0.296c-1.526,3.476-1.429,12.132,0.032,20.249
				c-1.807-5.445-3.576-13.282-3.335-15.824l0.185-1.963l-1.011,1.692c-0.246,0.411-0.475,2.045-0.539,3.902
				c-1.287-6.976,0.546-11.555,2.526-14.302C81.393-561.835,85.886-563.35,88.798-563.35 M88.798-563.796
				c-6.956,0-18.051,7.787-12.265,25.144c-0.61-2.673-0.201-7.652,0.176-8.283c-0.332,3.514,3.039,16.937,5.313,20.758
				c-2.498-9.417-2.898-20.999-1.158-24.961c-0.4,1.469,0.398,5.393,1.659,6.969c0.131-1.216,0.932-5.663,1.2-7.175
				c-0.007,2.431,1.199,4.834,2.312,6.117c-0.149-2.877,0.206-5.141,1.062-6.105c-0.009,3.035,0.136,3.04,1.263,5.153
				c0.244-1.438,0.975-4.108,1.61-5.146c-0.012,2.875,0.875,4.912,1.533,5.954c0.901-1.036,1.809-4.267,2.461-5.941
				c0.645,1.357,1.749,3.596,1.934,6.112c0.926-1.312,1.218-4.342,1.796-6.1c0.692,0.966,1.42,5.259,1.479,6.773
				c0.432-0.767,2.606-4.384,2.378-6.405c2.363,7.047-1.58,24.754-1.132,25.974c0.823-2.844,4.958-14.878,5.694-20.29
				c0.016-0.153,0.033-0.287,0.051-0.401c-0.016,0.129-0.031,0.263-0.051,0.401c-0.133,1.325-0.16,4.109,0.445,8.572
				c5.795-16.181-4.141-27.087-13.041-27.087c-0.833,0-1.658,0.096-2.46,0.292C90.385-563.687,89.621-563.796,88.798-563.796
				L88.798-563.796z M99.173-544.528c-0.053,0.094-0.08,0.145-0.073,0.145c0.005,0,0.029-0.028,0.075-0.087
				C99.174-544.489,99.174-544.509,99.173-544.528L99.173-544.528z M76.533-538.652c0.098,0.432,0.223,0.803,0.379,1.086
				C76.778-537.933,76.652-538.294,76.533-538.652L76.533-538.652z"/>
		</g>
		<path fill="#18A294" d="M80.19-528.059c0,0-5.093-17.671-1.034-24.039l1.207-8.298c0,0-13.31,9.201-2.528,29.63"/>
		<path fill="#18A294" d="M102.004-528.059c0,0,5.092-17.671,1.033-24.039l-1.207-8.298c0,0,13.309,9.201,2.529,29.63"/>
		<defs>
			<filter id="Adobe_OpacityMaskFilter_5_" filterUnits="userSpaceOnUse" x="74.684" y="-559.74" width="32.699" height="11.829">
				<feColorMatrix  type="matrix" values="1 0 0 0 0  0 1 0 0 0  0 0 1 0 0  0 0 0 1 0"/>
			</filter>
		</defs>
		<mask maskUnits="userSpaceOnUse" x="74.684" y="-559.74" width="32.699" height="11.829" id="SVGID_2_">
			<g filter="url(#Adobe_OpacityMaskFilter_5_)">
				
					<linearGradient id="SVGID_14_" gradientUnits="userSpaceOnUse" x1="296.3633" y1="452.0605" x2="296.3633" y2="467.9788" gradientTransform="matrix(1 0 0 -1 -206 -94)">
					<stop  offset="0" style="stop-color:#4A4A49"/>
					<stop  offset="0.7239" style="stop-color:#1D1D1B"/>
				</linearGradient>
				
					<rect x="69.593" y="-562.621" opacity="0.82" fill="url(#SVGID_14_)" enable-background="new    " width="41.54" height="16.395"/>
			</g>
		</mask>
		<g mask="url(#SVGID_2_)">
			<path fill="#18A294" d="M83.325-549.102c-0.904-0.236-1.754-0.489-2.554-0.751"/>
			<path fill="#18A294" d="M86.121-548.491c-0.697-0.124-1.372-0.271-2.03-0.429"/>
			<path fill="#18A294" d="M80.474-549.951c-2.322-0.774-4.156-1.6-5.278-2.155"/>
			<path fill="#18A294" d="M92.755-547.917c-0.795,0.014-1.58-0.012-2.354-0.054"/>
			<path fill="#18A294" d="M101.402-549.445c-0.944,0.337-1.891,0.616-2.833,0.833"/>
			<path fill="#18A294" d="M96.975-548.296c-0.559,0.091-1.112,0.164-1.666,0.223"/>
			<path fill="#18A294" d="M103.193-559.513c-4.148,1.448-13.319,3.679-23.57-0.227c-0.91,0.893-1.771,1.695-2.476,2.896
				c0,0-1.149,1.438-2.463,4.643c1.123,0.556,3.468,1.476,5.79,2.249c0.116-0.439,0.243-0.852,0.39-1.187
				c-0.088,0.325-0.113,0.773-0.095,1.284c0.802,0.264,1.653,0.516,2.555,0.751c0.16-0.92,0.308-1.744,0.396-2.244
				c0,0.828,0.143,1.651,0.369,2.427c0.659,0.157,1.333,0.304,2.03,0.429c0.161-1.29,0.482-2.289,0.974-2.844
				c-0.003,1.616,0.036,2.373,0.246,3.048c0.477,0.072,0.96,0.13,1.452,0.182c0.331-1.242,0.773-2.563,1.178-3.221
				c-0.006,1.296,0.177,2.412,0.434,3.354c0.774,0.042,1.557,0.068,2.353,0.055c0.448-1.201,0.862-2.517,1.207-3.399
				c0.385,0.809,0.928,1.935,1.346,3.24c0.554-0.059,1.108-0.131,1.666-0.223c0.24-1.076,0.447-2.179,0.72-3.005
				c0.306,0.426,0.617,1.494,0.875,2.689c0.942-0.218,1.89-0.498,2.832-0.833c0.133-0.54,0.197-1.052,0.148-1.487
				c0.139,0.404,0.247,0.847,0.346,1.315c1.422-0.541,4.1-1.884,5.488-2.747C106.111-555.473,104.732-557.593,103.193-559.513z"/>
		</g>
	</g>
	<circle display="inline" fill="#FBDFDD" cx="384.694" cy="-516.676" r="92.288"/>
	<circle display="inline" fill="#FBDFDD" cx="669.694" cy="-516.676" r="92.288"/>
	<g display="inline">
		<path fill="#FFFFFF" d="M354.153-492.004c-1.455,0-2.635-1.18-2.635-2.635v-28.473c0-1.456,1.18-2.635,2.635-2.635h62.929
			c1.455,0,2.635,1.18,2.635,2.635v28.473c0,1.455-1.18,2.635-2.635,2.635H354.153z"/>
		<path fill="#FFFFFF" d="M417.082-523.112v28.473h-62.929v-28.473H417.082 M417.082-528.382h-62.929
			c-2.911,0-5.271,2.36-5.271,5.271v28.473c0,2.911,2.359,5.271,5.271,5.271h62.929c2.911,0,5.271-2.359,5.271-5.271v-28.473
			C422.353-526.022,419.993-528.382,417.082-528.382L417.082-528.382z"/>
	</g>
	<defs>
		
			<filter id="Adobe_OpacityMaskFilter_6_" filterUnits="userSpaceOnUse" x="342.733" y="-563.626" width="132.603" height="167.911">
			<feColorMatrix  type="matrix" values="1 0 0 0 0  0 1 0 0 0  0 0 1 0 0  0 0 0 1 0"/>
		</filter>
	</defs>
	<mask maskUnits="userSpaceOnUse" x="342.733" y="-563.626" width="132.603" height="167.911" id="SVGID_15_" display="inline">
		<g filter="url(#Adobe_OpacityMaskFilter_6_)">
			
				<linearGradient id="SVGID_16_" gradientUnits="userSpaceOnUse" x1="1136.1221" y1="-851.333" x2="1105.5145" y2="-974.44" gradientTransform="matrix(0.4804 -0.1339 0.1878 0.5329 34.0723 147.3945)">
				<stop  offset="0" style="stop-color:#000000"/>
				<stop  offset="0.0959" style="stop-color:#333333"/>
				<stop  offset="0.3103" style="stop-color:#A0A0A0"/>
				<stop  offset="0.4586" style="stop-color:#E4E4E4"/>
				<stop  offset="0.5276" style="stop-color:#FFFFFF"/>
			</linearGradient>
			<polygon opacity="0.95" fill="url(#SVGID_16_)" points="475.336,-468.161 397.736,-395.715 342.733,-484.021 416.833,-563.626 
							"/>
		</g>
	</mask>
	<polygon display="inline" mask="url(#SVGID_15_)" fill="#F7C3BF" points="475.336,-468.161 397.736,-395.715 342.733,-484.021 
		416.833,-563.626 	"/>
	<g display="inline">
		<path fill="#18A294" d="M420.502-554.81v8.864c0,3.999-3.253,7.252-7.253,7.252c-3.999,0-7.252-3.253-7.252-7.252v-8.864h-4.298
			v8.864c0,3.999-3.254,7.252-7.253,7.252c-4,0-7.252-3.253-7.252-7.252v-8.864h-4.3v8.864c0,3.999-3.253,7.252-7.252,7.252
			s-7.253-3.253-7.253-7.252v-8.864h-4.298v8.864c0,3.999-3.254,7.252-7.252,7.252c-3.999,0-7.253-3.253-7.253-7.252v-8.864h-7.253
			v70.915h85.421v-70.915H420.502z"/>
	</g>
	<g display="inline">
		
			<line fill="#18A294" stroke="#FFFFFF" stroke-width="2.7916" stroke-miterlimit="10" x1="356.638" y1="-562.674" x2="356.638" y2="-547.363"/>
		<path fill="#18A294" d="M356.638-543.334c-1.669,0-3.021-1.804-3.021-4.029v-15.312c0-2.225,1.353-4.029,3.021-4.029
			s3.022,1.804,3.022,4.029v15.312C359.66-545.138,358.307-543.334,356.638-543.334z"/>
	</g>
	<g display="inline">
		
			<line fill="#18A294" stroke="#FFFFFF" stroke-width="2.7916" stroke-miterlimit="10" x1="375.665" y1="-562.674" x2="375.665" y2="-547.363"/>
		<path fill="#18A294" d="M375.665-543.334c-1.669,0-3.021-1.804-3.021-4.029v-15.312c0-2.225,1.353-4.029,3.021-4.029
			c1.67,0,3.022,1.804,3.022,4.029v15.312C378.688-545.138,377.335-543.334,375.665-543.334z"/>
	</g>
	<g display="inline">
		
			<line fill="#18A294" stroke="#FBDFDD" stroke-width="4" stroke-miterlimit="10" x1="394.692" y1="-562.674" x2="394.692" y2="-547.363"/>
		<g>
			<path fill="#18A294" d="M394.692-541.334c-2.816,0-5.022-2.648-5.022-6.029v-15.312c0-3.381,2.206-6.029,5.022-6.029
				c2.815,0,5.021,2.648,5.021,6.029v15.312C399.714-543.982,397.508-541.334,394.692-541.334z"/>
			<path fill="#FBDFDD" d="M394.692-566.704c1.669,0,3.021,1.804,3.021,4.029v15.312c0,2.225-1.353,4.029-3.021,4.029
				c-1.67,0-3.022-1.804-3.022-4.029v-15.312C391.67-564.899,393.022-566.704,394.692-566.704 M394.692-570.704
				c-3.938,0-7.022,3.527-7.022,8.029v15.312c0,4.502,3.085,8.029,7.022,8.029s7.021-3.527,7.021-8.029v-15.312
				C401.714-567.177,398.63-570.704,394.692-570.704L394.692-570.704z"/>
		</g>
	</g>
	<g display="inline">
		
			<line fill="#18A294" stroke="#FBDFDD" stroke-width="4" stroke-miterlimit="10" x1="413.386" y1="-562.341" x2="413.386" y2="-547.03"/>
		<g>
			<path fill="#18A294" d="M413.386-541.001c-2.816,0-5.022-2.648-5.022-6.029v-15.312c0-3.381,2.206-6.029,5.022-6.029
				c2.815,0,5.021,2.648,5.021,6.029v15.312C418.407-543.649,416.201-541.001,413.386-541.001z"/>
			<path fill="#FBDFDD" d="M413.386-566.371c1.669,0,3.021,1.804,3.021,4.029v15.312c0,2.225-1.353,4.029-3.021,4.029
				c-1.67,0-3.022-1.804-3.022-4.029v-15.312C410.363-564.566,411.716-566.371,413.386-566.371 M413.386-570.371
				c-3.938,0-7.022,3.527-7.022,8.029v15.312c0,4.502,3.085,8.029,7.022,8.029s7.021-3.527,7.021-8.029v-15.312
				C420.407-566.844,417.323-570.371,413.386-570.371L413.386-570.371z"/>
		</g>
	</g>
	<rect x="349.318" y="-529.022" display="inline" fill="#FFFFFF" width="69.84" height="38.681"/>
	<rect x="354.69" y="-517.131" display="inline" fill="none" width="59.644" height="18.144"/>
	
		<text transform="matrix(1 0 0 1 354.6904 -499.999)" display="inline" fill="#18A294" font-family="'Antipasto-ExtraBold'" font-size="26.8944">2016</text>
	<defs>
		
			<filter id="Adobe_OpacityMaskFilter_7_" filterUnits="userSpaceOnUse" x="621.772" y="-548.959" width="153.936" height="151.244">
			<feColorMatrix  type="matrix" values="1 0 0 0 0  0 1 0 0 0  0 0 1 0 0  0 0 0 1 0"/>
		</filter>
	</defs>
	<mask maskUnits="userSpaceOnUse" x="621.772" y="-548.959" width="153.936" height="151.244" id="SVGID_17_" display="inline">
		<g filter="url(#Adobe_OpacityMaskFilter_7_)">
			
				<linearGradient id="SVGID_18_" gradientUnits="userSpaceOnUse" x1="1677.2793" y1="-716.4502" x2="1651.5272" y2="-820.0279" gradientTransform="matrix(0.4804 -0.1339 0.1878 0.5329 34.0723 147.3945)">
				<stop  offset="0" style="stop-color:#000000"/>
				<stop  offset="0.0959" style="stop-color:#333333"/>
				<stop  offset="0.3103" style="stop-color:#A0A0A0"/>
				<stop  offset="0.4586" style="stop-color:#E4E4E4"/>
				<stop  offset="0.5276" style="stop-color:#FFFFFF"/>
			</linearGradient>
			<polygon opacity="0.95" fill="url(#SVGID_18_)" points="775.042,-454.161 676.775,-397.715 621.772,-486.021 716.539,-549.626 
							"/>
		</g>
	</mask>
	<polygon display="inline" mask="url(#SVGID_17_)" fill="#F7C3BF" points="775.708,-453.494 676.775,-397.715 621.772,-486.021 
		717.205,-548.959 	"/>
	
		<rect x="624.688" y="-546.274" display="inline" fill="#18A294" stroke="#18A294" stroke-width="6.693" stroke-linecap="round" stroke-linejoin="round" stroke-miterlimit="10" width="90.719" height="60.158"/>
	<g display="inline">
		<path fill="#E0E0E0" d="M670.44-488.722c-13.458-6.593-29.208-6.593-42.666,0c0-17.654,0-35.309,0-52.964
			c13.458-6.593,29.208-6.593,42.666,0C670.44-524.031,670.44-506.376,670.44-488.722z"/>
	</g>
	<g display="inline">
		<path fill="#E0E0E0" d="M713.113-488.722c-13.458-6.593-29.208-6.593-42.666,0c0-17.654,0-35.309,0-52.964
			c13.458-6.593,29.208-6.593,42.666,0C713.113-524.031,713.113-506.376,713.113-488.722z"/>
	</g>
	<g display="inline">
		<path fill="#FFFFFF" d="M669.981-489.886c-12.011-9.555-26.067-13.226-38.078-11.012c0-17.655,0-35.309,0-52.964
			c12.011-2.213,26.067,1.457,38.078,11.012C669.981-525.195,669.981-507.54,669.981-489.886z"/>
	</g>
	<g display="inline">
		<path fill="#FFFFFF" d="M670.443-489.886c12.011-9.555,26.067-13.226,38.078-11.012c0-17.655,0-35.309,0-52.964
			c-12.011-2.213-26.067,1.457-38.078,11.012C670.443-525.195,670.443-507.54,670.443-489.886z"/>
	</g>
	
		<line display="inline" fill="none" stroke="#E0E0E0" stroke-width="2.688" stroke-linecap="round" stroke-linejoin="round" stroke-miterlimit="10" x1="669.756" y1="-542.145" x2="669.756" y2="-490.528"/>
	
		<line display="inline" fill="none" stroke="#18A294" stroke-width="5.8569" stroke-linecap="round" stroke-linejoin="round" stroke-miterlimit="10" x1="658.114" y1="147.852" x2="694.65" y2="147.852"/>
	
		<line display="inline" fill="none" stroke="#18A294" stroke-width="6.3374" stroke-linecap="round" stroke-linejoin="round" stroke-miterlimit="10" x1="651.874" y1="161.238" x2="694.65" y2="161.238"/>
	<path display="inline" fill="#18A294" d="M641.641,147.977h-0.018c0.003,0.004,0.007,0.007,0.009,0.01
		c-0.002,0.005-0.006,0.008-0.009,0.011h0.018c1.706,2.219,6.865,4.951,10.616,4.172c3.905-0.812,3.877-3.979,3.87-4.183
		c0.007-0.201,0.035-3.368-3.87-4.18c-2.606-0.542-5.296,1.487-7.632,2.985C643.6,147.45,642.75,148.042,641.641,147.977z"/>
	<rect x="655.064" y="144.923" display="inline" fill="#FFFFFF" width="2.471" height="5.805"/>
	<path display="inline" fill="#18A294" d="M811-435v44.333c0,0-13.332,0.5-16.665-11.833C791.228-414,802.168-429.833,811-435z"/>
	<path display="inline" fill="#18A294" d="M810.917-435v44.333c0,0,13.332,0.5,16.665-11.833
		C830.689-414,819.749-429.833,810.917-435z"/>
	<path display="inline" fill="#FFFFFF" d="M519.5,110.5"/>
	<polygon display="inline" fill="#FFFFFF" points="528.5,126.5 510.5,126.5 519.5,110.5 	"/>
	<polygon display="inline" fill="#FFFFFF" points="650.828,158.31 650.828,164.166 642.252,161.237 	"/>
	<polygon display="inline" fill="#18A294" points="645.918,159.917 645.418,160.583 645.833,161.209 645.458,161.584 
		645.75,162.459 642.252,161.237 	"/>
</g>
<g id="Calque_2" display="none">
	
		<circle display="inline" fill="none" stroke="#18A294" stroke-width="2" stroke-miterlimit="10" cx="99.695" cy="99.311" r="92.288"/>
	<polygon display="inline" fill="#FFFFFF" stroke="#18A294" stroke-width="2" stroke-miterlimit="10" points="139.957,147.616 
		63.326,147.616 63.326,44.354 118.463,44.354 129.322,58.972 139.957,64.292 	"/>
	<g display="inline">
		<path fill="#00A597" d="M114.76,107.965c-0.693,0.98-1.582,1.738-2.672,2.276c-1.096,0.536-2.281,0.808-3.562,0.808
			c-1.062,0-2.059-0.2-2.986-0.602c-0.932-0.402-1.744-0.948-2.436-1.642c-0.686-0.688-1.234-1.498-1.637-2.427
			c-0.4-0.936-0.599-1.931-0.599-2.989s0.198-2.055,0.599-2.98c0.404-0.934,0.951-1.746,1.637-2.445
			c0.691-0.699,1.504-1.247,2.436-1.65c0.928-0.4,1.924-0.603,2.986-0.603c1.25,0,2.41,0.278,3.477,0.829
			c1.068,0.554,1.957,1.304,2.66,2.254c0.322,0.381,0.484,0.792,0.484,1.229c0,0.257-0.057,0.499-0.17,0.732
			c-0.111,0.234-0.258,0.44-0.434,0.624c-0.18,0.185-0.387,0.334-0.627,0.438c-0.24,0.104-0.49,0.158-0.742,0.158
			c-0.244,0-0.482-0.054-0.73-0.158c-0.234-0.104-0.471-0.274-0.695-0.518c-0.354-0.517-0.809-0.934-1.355-1.253
			c-0.559-0.319-1.172-0.483-1.848-0.483c-0.529,0-1.029,0.1-1.492,0.303c-0.467,0.201-0.875,0.479-1.23,0.83
			c-0.35,0.356-0.627,0.764-0.828,1.226c-0.201,0.468-0.301,0.966-0.301,1.497c0,0.527,0.1,1.023,0.301,1.49
			c0.203,0.469,0.479,0.876,0.828,1.232c0.355,0.352,0.764,0.627,1.23,0.829c0.463,0.202,0.963,0.301,1.492,0.301
			c0.658,0,1.262-0.15,1.809-0.447c0.545-0.291,0.994-0.704,1.348-1.214c0.414-0.42,0.875-0.627,1.373-0.627
			c0.256,0,0.504,0.056,0.748,0.166c0.24,0.115,0.453,0.27,0.637,0.461c0.184,0.189,0.33,0.406,0.432,0.652
			c0.107,0.238,0.16,0.484,0.16,0.744c0,0.178-0.021,0.34-0.062,0.495C114.949,107.647,114.875,107.805,114.76,107.965z"/>
		<path fill="#00A597" d="M122.719,104.282l2.262-7.49c0.111-0.369,0.326-0.647,0.639-0.838c0.312-0.197,0.654-0.289,1.02-0.289
			c0.307,0,0.594,0.054,0.869,0.166c0.367,0.162,0.654,0.39,0.854,0.686c0.203,0.299,0.301,0.632,0.301,0.998
			c0,0.291-0.057,0.558-0.168,0.793l-3.973,11.63c-0.174,0.404-0.422,0.688-0.732,0.858c-0.314,0.167-0.674,0.25-1.07,0.25
			c-0.371-0.016-0.73-0.119-1.076-0.312c-0.342-0.193-0.588-0.468-0.734-0.819l-3.994-11.607c-0.113-0.238-0.17-0.497-0.17-0.766
			c0-0.371,0.098-0.706,0.301-1.003c0.201-0.295,0.486-0.524,0.854-0.686c0.305-0.128,0.602-0.19,0.893-0.19
			c0.367,0,0.705,0.091,1.01,0.289c0.307,0.19,0.52,0.471,0.629,0.838L122.719,104.282z"/>
	</g>
	<g display="inline">
		
			<line fill="none" stroke="#00A597" stroke-width="3.7381" stroke-linecap="round" stroke-linejoin="round" stroke-miterlimit="10" x1="102.674" y1="127.061" x2="128.744" y2="127.061"/>
		
			<line fill="none" stroke="#00A597" stroke-width="3.7381" stroke-linecap="round" stroke-linejoin="round" stroke-miterlimit="10" x1="102.674" y1="119.115" x2="128.744" y2="119.115"/>
		
			<line fill="none" stroke="#00A597" stroke-width="3.7381" stroke-linecap="round" stroke-linejoin="round" stroke-miterlimit="10" x1="102.674" y1="135.002" x2="128.744" y2="135.002"/>
	</g>
	<g display="inline">
		<polygon fill="#FFFFFF" points="119.393,62.831 119.393,46.185 137.336,62.831 		"/>
		<path fill="#18A294" d="M120.393,48.477l14.396,13.354h-14.396V48.477 M118.393,43.894v19.938h21.492L118.393,43.894
			L118.393,43.894z"/>
	</g>
	<g display="inline">
		<path fill="#18A294" d="M77.603,73.146c-2.252-3.874-6.28,4.111,1.269,6.096C77.872,76.322,77.603,73.146,77.603,73.146z"/>
		<path fill="#18A294" d="M103.461,73.225c2.271-3.858,6.256,4.151-1.308,6.086C103.168,76.4,103.461,73.225,103.461,73.225z"/>
		<g>
			<path fill="#FFFFFF" d="M90.976,88.498c-6.991-0.812-15.144-5.438-15.114-15.805c0.027-9.956,5.728-16.14,14.876-16.14
				c9.195,0.03,15.081,6.382,15.051,16.182c-0.028,9.836-7.343,15.005-14.58,15.764l-0.117,0.012L90.976,88.498z"/>
			<path fill="#18A294" d="M90.739,57.62c0.018,0,0.035,0,0.053,0c8.91,0.029,13.958,6.202,13.931,15.112
				c-0.025,8.91-6.625,13.972-13.624,14.707c-7.482-0.869-14.196-5.833-14.17-14.743C76.954,63.805,81.862,57.62,90.739,57.62
				 M90.739,55.486L90.739,55.486c-9.657,0-15.915,6.753-15.944,17.204c-0.03,10.361,8.043,15.938,16.058,16.868l0.234,0.027
				l0.234-0.025c7.461-0.783,15.505-6.381,15.535-16.823c0.032-10.447-6.271-17.219-16.058-17.251H90.739L90.739,55.486z"/>
		</g>
		<path fill="#18A294" d="M86.034,74.442c-0.002,1.009-0.902,1.822-2.01,1.82c-1.108-0.004-2.004-0.824-2.002-1.836
			c0.004-1.005,0.902-1.82,2.01-1.819C85.144,72.611,86.036,73.434,86.034,74.442z"/>
		<path fill="#FFFFFF" d="M84.162,73.973c0,0.304-0.271,0.551-0.607,0.546c-0.333,0-0.605-0.245-0.605-0.549
			c0.001-0.307,0.274-0.552,0.609-0.552C83.894,73.418,84.162,73.669,84.162,73.973z"/>
		<path fill="#18A294" d="M100.419,74.804c-0.001,1.009-0.904,1.823-2.012,1.82c-1.106-0.002-2-0.824-1.999-1.834
			c0.005-1.008,0.906-1.822,2.013-1.82C99.528,72.974,100.423,73.794,100.419,74.804z"/>
		<path fill="#FFFFFF" d="M98.507,74.5c0,0.305-0.27,0.55-0.601,0.548c-0.339,0-0.606-0.243-0.606-0.551
			c0-0.302,0.271-0.554,0.607-0.549C98.239,73.949,98.51,74.197,98.507,74.5z"/>
		<g>
			<path fill="#18A294" d="M89.431,82.088l1.103,1.249c0.347,0.369,0.761,0.714,1.022,0.711c0.224,0.056,0.603-0.234,0.929-0.633
				c0.33-0.396,0.639-0.86,1.019-1.315c0.004,0.593-0.11,1.169-0.366,1.724c-0.123,0.281-0.306,0.545-0.559,0.796
				c-0.25,0.238-0.665,0.445-1.106,0.411c-0.882-0.14-1.272-0.748-1.566-1.25C89.624,83.248,89.455,82.683,89.431,82.088z"/>
		</g>
		<path fill="#FFFFFF" d="M85.576,78.103c-0.002,0.642-1.057,1.158-2.357,1.152c-1.302-0.004-2.355-0.527-2.354-1.168
			c0.003-0.64,1.061-1.156,2.362-1.152C84.529,76.938,85.579,77.461,85.576,78.103z"/>
		<ellipse fill="#FFFFFF" cx="99.155" cy="78.49" rx="2.356" ry="1.157"/>
		<g>
			<path fill="#18A294" d="M100.722,89.29c0.101-0.854,0.255-1.943,0.414-3.063c0.858-6.083,2.296-16.265,0.626-21.244l-0.669-1.995
				l0.236,2.091c0.182,1.607-1.243,4.311-1.99,5.639c-0.192-1.848-0.813-5.253-1.463-6.162L97.62,64.2l-0.137,0.417
				c-0.211,0.641-0.38,1.429-0.56,2.263c-0.248,1.155-0.503,2.341-0.879,3.185c-0.307-2.183-1.232-4.126-1.807-5.334l-0.293-0.617
				l-0.188,0.481c-0.179,0.458-0.376,1.033-0.588,1.647c-0.483,1.406-1.074,3.122-1.645,3.977c-0.504-0.891-1.343-2.791-1.332-5.555
				l0.003-0.797l-0.416,0.68c-0.563,0.92-1.202,3.089-1.521,4.604c-0.839-1.557-0.948-1.807-0.94-4.495l0.002-0.59l-0.391,0.441
				c-0.812,0.916-1.212,2.882-1.144,5.578c-0.975-1.352-1.846-3.408-1.841-5.441l-0.442-0.039l-0.105,0.594
				c-0.295,1.659-0.809,4.548-1.02,6.012c-1.016-1.719-1.645-5.033-1.299-6.303l-0.419-0.148c-1.696,3.863-1.361,14.219,0.64,23.041
				c-2.125-5.123-4.665-15.594-4.369-18.727l0.093-0.981l-0.506,0.846c-0.316,0.53-0.602,3.341-0.5,5.864
				c-2.096-8.207-0.078-13.465,2.116-16.509c3.127-4.339,7.7-5.879,10.665-5.879c0.804,0,1.542,0.105,2.192,0.313l0.06,0.019
				l0.061-0.015c0.774-0.189,1.584-0.285,2.407-0.285c4.135,0,8.421,2.439,11.186,6.366c2.153,3.059,5.198,9.598,1.954,19.523
				c-0.534-4.36-0.406-6.727-0.321-7.574l-0.442-0.052c-0.566,4.163-3.148,12.246-4.691,17.075
				C101.026,88.333,100.865,88.838,100.722,89.29z"/>
			<path fill="#18A294" d="M88.798,52.637c0.781,0,1.496,0.102,2.124,0.302l0.12,0.039l0.122-0.03
				c0.757-0.185,1.549-0.279,2.354-0.279c4.063,0,8.28,2.403,11.003,6.271c2.056,2.92,4.932,9.048,2.237,18.315
				c-0.39-3.668-0.277-5.7-0.202-6.457c0.02-0.142,0.037-0.28,0.052-0.413l-0.884-0.116c-0.019,0.121-0.036,0.262-0.051,0.408
				c-0.53,3.896-2.841,11.262-4.396,16.138c0.025-0.185,0.052-0.371,0.078-0.559c0.862-6.103,2.304-16.317,0.618-21.345l-1.338-3.99
				l0.473,4.182c0.113,1.003-0.435,2.646-1.63,4.89c-0.255-1.938-0.817-4.723-1.422-5.567l-0.511-0.713l-0.274,0.834
				c-0.214,0.652-0.385,1.445-0.565,2.286c-0.171,0.795-0.355,1.652-0.585,2.381c-0.396-1.877-1.174-3.513-1.683-4.58l-0.072-0.151
				l-0.443-0.932l-0.375,0.962c-0.181,0.464-0.38,1.042-0.591,1.655c-0.424,1.232-0.93,2.705-1.422,3.599
				c-0.489-0.97-1.131-2.702-1.121-5.104l0.006-1.595l-0.832,1.36c-0.523,0.854-1.074,2.638-1.417,4.084
				c-0.572-1.107-0.638-1.559-0.631-3.857l0.003-1.18l-0.783,0.883c-0.95,1.071-1.188,3.221-1.205,4.976
				c-0.775-1.285-1.395-2.997-1.39-4.69l-0.885-0.079l-0.105,0.594c-0.254,1.433-0.672,3.783-0.918,5.346
				c-0.807-1.751-1.266-4.439-0.966-5.539l-0.838-0.296c-1.526,3.476-1.429,12.132,0.032,20.249
				c-1.807-5.445-3.576-13.282-3.335-15.824l0.185-1.963l-1.011,1.692c-0.246,0.411-0.475,2.045-0.539,3.902
				c-1.287-6.976,0.546-11.555,2.526-14.302C81.393,54.152,85.886,52.637,88.798,52.637 M88.798,52.191
				c-6.956,0-18.051,7.787-12.266,25.144c-0.61-2.673-0.2-7.652,0.176-8.283c-0.332,3.514,3.039,16.937,5.313,20.758
				c-2.498-9.417-2.898-20.999-1.158-24.961c-0.4,1.469,0.398,5.393,1.659,6.969c0.131-1.216,0.932-5.663,1.2-7.175
				c-0.007,2.431,1.199,4.834,2.312,6.117c-0.149-2.877,0.206-5.141,1.062-6.105c-0.009,3.035,0.136,3.04,1.263,5.153
				c0.244-1.438,0.975-4.108,1.61-5.146c-0.012,2.875,0.875,4.912,1.533,5.954c0.901-1.036,1.809-4.267,2.461-5.941
				c0.645,1.357,1.749,3.596,1.934,6.112c0.926-1.312,1.218-4.342,1.796-6.1c0.692,0.966,1.42,5.259,1.479,6.773
				c0.432-0.766,2.606-4.384,2.378-6.405c2.363,7.047-1.58,24.754-1.132,25.974c0.822-2.844,4.959-14.878,5.695-20.29
				c0.016-0.153,0.032-0.287,0.05-0.401c-0.015,0.129-0.031,0.263-0.05,0.401c-0.133,1.325-0.161,4.109,0.444,8.572
				c5.795-16.181-4.142-27.087-13.041-27.087c-0.833,0-1.658,0.096-2.46,0.292C90.385,52.3,89.621,52.191,88.798,52.191
				L88.798,52.191z M99.173,71.459c-0.053,0.094-0.08,0.145-0.073,0.145c0.005,0,0.029-0.028,0.075-0.087
				C99.174,71.498,99.174,71.479,99.173,71.459L99.173,71.459z M76.532,77.335c0.099,0.432,0.224,0.803,0.38,1.086
				C76.778,78.054,76.652,77.693,76.532,77.335L76.532,77.335z"/>
		</g>
		<path fill="#18A294" d="M80.19,87.928c0,0-5.093-17.671-1.034-24.039l1.207-8.298c0,0-13.31,9.201-2.528,29.63"/>
		<path fill="#18A294" d="M102.004,87.928c0,0,5.092-17.671,1.033-24.039l-1.207-8.298c0,0,13.309,9.201,2.529,29.63"/>
		<defs>
			<filter id="Adobe_OpacityMaskFilter_8_" filterUnits="userSpaceOnUse" x="74.684" y="56.248" width="32.699" height="11.829">
				<feColorMatrix  type="matrix" values="1 0 0 0 0  0 1 0 0 0  0 0 1 0 0  0 0 0 1 0"/>
			</filter>
		</defs>
		<mask maskUnits="userSpaceOnUse" x="74.684" y="56.248" width="32.699" height="11.829" id="SVGID_3_">
			<g filter="url(#Adobe_OpacityMaskFilter_8_)">
				
					<linearGradient id="SVGID_19_" gradientUnits="userSpaceOnUse" x1="296.3633" y1="-163.9268" x2="296.3633" y2="-148.0085" gradientTransform="matrix(1 0 0 -1 -206 -94)">
					<stop  offset="0" style="stop-color:#4A4A49"/>
					<stop  offset="0.7239" style="stop-color:#1D1D1B"/>
				</linearGradient>
				
					<rect x="69.593" y="53.366" opacity="0.82" fill="url(#SVGID_19_)" enable-background="new    " width="41.54" height="16.395"/>
			</g>
		</mask>
		<g mask="url(#SVGID_3_)">
			<path fill="#18A294" d="M83.325,66.885c-0.904-0.236-1.754-0.489-2.554-0.751"/>
			<path fill="#18A294" d="M86.121,67.496c-0.697-0.124-1.372-0.271-2.03-0.429"/>
			<path fill="#18A294" d="M80.474,66.036c-2.322-0.774-4.156-1.6-5.278-2.155"/>
			<path fill="#18A294" d="M92.755,68.071c-0.795,0.014-1.58-0.012-2.354-0.054"/>
			<path fill="#18A294" d="M101.402,66.542c-0.944,0.337-1.891,0.616-2.833,0.833"/>
			<path fill="#18A294" d="M96.975,67.691c-0.559,0.091-1.112,0.164-1.666,0.223"/>
			<path fill="#18A294" d="M103.193,56.474c-4.148,1.448-13.319,3.679-23.57-0.227c-0.91,0.893-1.771,1.695-2.476,2.896
				c0,0-1.149,1.438-2.463,4.643c1.123,0.556,3.468,1.476,5.79,2.249c0.116-0.439,0.243-0.852,0.39-1.187
				c-0.088,0.325-0.113,0.773-0.095,1.284c0.802,0.264,1.653,0.516,2.555,0.751c0.16-0.92,0.308-1.744,0.396-2.244
				c0,0.828,0.143,1.651,0.369,2.427c0.659,0.157,1.333,0.304,2.03,0.429c0.161-1.29,0.482-2.289,0.974-2.844
				c-0.003,1.616,0.036,2.373,0.246,3.048c0.477,0.072,0.96,0.13,1.452,0.182c0.331-1.242,0.773-2.563,1.178-3.221
				c-0.006,1.296,0.177,2.412,0.434,3.354c0.774,0.042,1.557,0.068,2.353,0.055c0.448-1.201,0.862-2.517,1.207-3.399
				c0.385,0.809,0.928,1.935,1.346,3.24c0.554-0.059,1.108-0.131,1.666-0.223c0.24-1.076,0.447-2.179,0.72-3.005
				c0.306,0.426,0.617,1.494,0.875,2.689c0.942-0.218,1.89-0.498,2.832-0.833c0.133-0.54,0.197-1.052,0.148-1.487
				c0.139,0.404,0.247,0.847,0.346,1.315c1.422-0.541,4.1-1.884,5.488-2.747C106.111,60.514,104.732,58.394,103.193,56.474z"/>
		</g>
	</g>
	
		<circle display="inline" fill="none" stroke="#18A294" stroke-width="2" stroke-miterlimit="10" cx="384.694" cy="99.311" r="92.288"/>
	
		<circle display="inline" fill="none" stroke="#18A294" stroke-width="2" stroke-miterlimit="10" cx="669.694" cy="99.311" r="92.288"/>
	<g display="inline">
		<path fill="#FFFFFF" d="M354.153,123.983c-1.455,0-2.635-1.18-2.635-2.635V92.875c0-1.456,1.18-2.635,2.635-2.635h62.929
			c1.455,0,2.635,1.18,2.635,2.635v28.473c0,1.455-1.18,2.635-2.635,2.635H354.153z"/>
		<path fill="#FFFFFF" d="M417.082,92.875v28.473h-62.929V92.875H417.082 M417.082,87.605h-62.929c-2.911,0-5.271,2.36-5.271,5.271
			v28.473c0,2.911,2.359,5.271,5.271,5.271h62.929c2.911,0,5.271-2.359,5.271-5.271V92.875
			C422.353,89.965,419.993,87.605,417.082,87.605L417.082,87.605z"/>
	</g>
	<g display="inline">
		<path fill="#18A294" d="M420.502,61.178v8.864c0,3.999-3.253,7.252-7.253,7.252c-3.999,0-7.252-3.253-7.252-7.252v-8.864h-4.298
			v8.864c0,3.999-3.254,7.252-7.253,7.252c-4,0-7.252-3.253-7.252-7.252v-8.864h-4.3v8.864c0,3.999-3.253,7.252-7.252,7.252
			s-7.253-3.253-7.253-7.252v-8.864h-4.298v8.864c0,3.999-3.254,7.252-7.252,7.252c-3.999,0-7.253-3.253-7.253-7.252v-8.864h-7.253
			v70.915h85.421V61.178H420.502z"/>
	</g>
	<g display="inline">
		
			<line fill="#18A294" stroke="#FFFFFF" stroke-width="2.7916" stroke-miterlimit="10" x1="356.638" y1="53.313" x2="356.638" y2="68.625"/>
		<path fill="#18A294" d="M356.638,72.653c-1.669,0-3.021-1.804-3.021-4.029V53.313c0-2.225,1.353-4.029,3.021-4.029
			s3.022,1.804,3.022,4.029v15.312C359.66,70.85,358.307,72.653,356.638,72.653z"/>
	</g>
	<g display="inline">
		
			<line fill="#18A294" stroke="#FFFFFF" stroke-width="2.7916" stroke-miterlimit="10" x1="375.665" y1="53.313" x2="375.665" y2="68.625"/>
		<path fill="#18A294" d="M375.665,72.653c-1.669,0-3.021-1.804-3.021-4.029V53.313c0-2.225,1.353-4.029,3.021-4.029
			c1.67,0,3.022,1.804,3.022,4.029v15.312C378.688,70.85,377.335,72.653,375.665,72.653z"/>
	</g>
	<g display="inline">
		
			<line fill="#18A294" stroke="#FFFFFF" stroke-width="4" stroke-miterlimit="10" x1="394.692" y1="53.313" x2="394.692" y2="68.625"/>
		<g>
			<path fill="#18A294" d="M394.692,74.653c-2.816,0-5.022-2.648-5.022-6.029V53.313c0-3.381,2.206-6.029,5.022-6.029
				c2.815,0,5.021,2.648,5.021,6.029v15.312C399.714,72.005,397.508,74.653,394.692,74.653z"/>
			<path fill="#FFFFFF" d="M394.692,49.284c1.669,0,3.021,1.804,3.021,4.029v15.312c0,2.225-1.353,4.029-3.021,4.029
				c-1.67,0-3.022-1.804-3.022-4.029V53.313C391.67,51.088,393.022,49.284,394.692,49.284 M394.692,45.284
				c-3.938,0-7.022,3.527-7.022,8.029v15.312c0,4.502,3.085,8.029,7.022,8.029s7.021-3.527,7.021-8.029V53.313
				C401.714,48.811,398.63,45.284,394.692,45.284L394.692,45.284z"/>
		</g>
	</g>
	<g display="inline">
		
			<line fill="#18A294" stroke="#FFFFFF" stroke-width="4" stroke-miterlimit="10" x1="413.386" y1="53.646" x2="413.386" y2="68.958"/>
		<g>
			<path fill="#18A294" d="M413.386,74.986c-2.816,0-5.022-2.648-5.022-6.029V53.646c0-3.381,2.206-6.029,5.022-6.029
				c2.815,0,5.021,2.648,5.021,6.029v15.312C418.407,72.338,416.201,74.986,413.386,74.986z"/>
			<path fill="#FFFFFF" d="M413.386,49.617c1.669,0,3.021,1.804,3.021,4.029v15.312c0,2.225-1.353,4.029-3.021,4.029
				c-1.67,0-3.022-1.804-3.022-4.029V53.646C410.363,51.421,411.716,49.617,413.386,49.617 M413.386,45.617
				c-3.938,0-7.022,3.527-7.022,8.029v15.312c0,4.502,3.085,8.029,7.022,8.029s7.021-3.527,7.021-8.029V53.646
				C420.407,49.144,417.323,45.617,413.386,45.617L413.386,45.617z"/>
		</g>
	</g>
	<rect x="349.318" y="86.965" display="inline" fill="#FFFFFF" width="69.84" height="38.681"/>
	<rect x="354.69" y="98.856" display="inline" fill="none" width="59.644" height="18.144"/>
	
		<text transform="matrix(1 0 0 1 354.6904 115.9883)" display="inline" fill="#18A294" font-family="'Antipasto-ExtraBold'" font-size="26.8944">2016</text>
	
		<rect x="624.688" y="69.713" display="inline" fill="#18A294" stroke="#18A294" stroke-width="6.693" stroke-linecap="round" stroke-linejoin="round" stroke-miterlimit="10" width="90.719" height="60.158"/>
	<g display="inline">
		<path fill="#FFFFFF" d="M670.44,127.266c-13.458-6.593-29.208-6.593-42.666,0c0-17.654,0-35.309,0-52.964
			c13.458-6.593,29.208-6.593,42.666,0C670.44,91.957,670.44,109.611,670.44,127.266z"/>
	</g>
	<g display="inline">
		<path fill="#FFFFFF" d="M713.113,127.266c-13.458-6.593-29.208-6.593-42.666,0c0-17.654,0-35.309,0-52.964
			c13.458-6.593,29.208-6.593,42.666,0C713.113,91.957,713.113,109.611,713.113,127.266z"/>
	</g>
	<g display="inline">
		<path fill="#FFFFFF" d="M669.981,126.102c-12.011-9.555-26.067-13.226-38.078-11.012c0-17.655,0-35.309,0-52.964
			c12.011-2.213,26.067,1.457,38.078,11.012C669.981,90.792,669.981,108.447,669.981,126.102z"/>
		<path fill="none" stroke="#18A294" stroke-width="2" stroke-miterlimit="10" d="M669.981,126.102
			c-12.011-9.555-26.067-13.226-38.078-11.012c0-17.655,0-35.309,0-52.964c12.011-2.213,26.067,1.457,38.078,11.012
			C669.981,90.792,669.981,108.447,669.981,126.102z"/>
	</g>
	<g display="inline">
		<path fill="#FFFFFF" d="M670.443,126.102c12.011-9.555,26.067-13.226,38.078-11.012c0-17.655,0-35.309,0-52.964
			c-12.011-2.213-26.067,1.457-38.078,11.012C670.443,90.792,670.443,108.447,670.443,126.102z"/>
		<path fill="none" stroke="#18A294" stroke-width="2" stroke-miterlimit="10" d="M670.443,126.102
			c12.011-9.555,26.067-13.226,38.078-11.012c0-17.655,0-35.309,0-52.964c-12.011-2.213-26.067,1.457-38.078,11.012
			C670.443,90.792,670.443,108.447,670.443,126.102z"/>
	</g>
	
		<line display="inline" fill="none" stroke="#18A294" stroke-width="2.688" stroke-linecap="round" stroke-linejoin="round" stroke-miterlimit="10" x1="669.756" y1="73.843" x2="669.756" y2="125.459"/>
	
		<line display="inline" fill="none" stroke="#18A294" stroke-width="6.8" stroke-linecap="round" stroke-linejoin="round" stroke-miterlimit="10" x1="658.114" y1="147.852" x2="694.65" y2="147.852"/>
	
		<line display="inline" fill="none" stroke="#18A294" stroke-width="6.9" stroke-linecap="round" stroke-linejoin="round" stroke-miterlimit="10" x1="651.874" y1="161.238" x2="694.65" y2="161.238"/>
	<path display="inline" fill="#18A294" d="M641.641,147.977h-0.018c0.003,0.004,0.007,0.007,0.009,0.01
		c-0.002,0.005-0.006,0.008-0.009,0.011h0.018c1.706,2.219,6.865,4.951,10.616,4.172c3.905-0.812,3.877-3.979,3.87-4.183
		c0.007-0.201,0.035-3.368-3.87-4.18c-2.606-0.542-5.296,1.487-7.632,2.985C643.6,147.45,642.75,148.042,641.641,147.977z"/>
	
		<rect x="655.064" y="144.923" display="inline" fill="#FFFFFF" stroke="#18A294" stroke-miterlimit="10" width="2.471" height="5.805"/>
	<path display="inline" fill="#FFFFFF" d="M519.5,110.5"/>
	<polygon display="inline" fill="#FFFFFF" stroke="#18A294" stroke-miterlimit="10" points="650.828,158.31 650.828,164.166 
		642.252,161.237 	"/>
	<polygon display="inline" fill="#18A294" points="645.918,159.917 645.418,160.583 645.833,161.209 645.458,161.584 
		645.75,162.459 642.252,161.237 	"/>
</g>
<g id="Calque_3">
	<circle fill="none" stroke="#18A294" stroke-width="2" stroke-miterlimit="10" cx="99.695" cy="99.311" r="92.288"/>
	<polygon fill="#FFFFFF" stroke="#18A294" stroke-width="2" stroke-miterlimit="10" points="139.957,147.616 63.326,147.616 
		63.326,44.354 118.463,44.354 129.322,58.972 139.957,64.292 	"/>
	<g>
		<path fill="#00A597" d="M114.76,107.965c-0.693,0.98-1.582,1.738-2.672,2.276c-1.096,0.536-2.281,0.808-3.562,0.808
			c-1.062,0-2.059-0.2-2.986-0.602c-0.932-0.402-1.744-0.948-2.436-1.642c-0.686-0.688-1.234-1.498-1.637-2.427
			c-0.4-0.936-0.599-1.931-0.599-2.989s0.198-2.055,0.599-2.98c0.404-0.934,0.951-1.746,1.637-2.445
			c0.691-0.699,1.504-1.247,2.436-1.65c0.928-0.4,1.924-0.603,2.986-0.603c1.25,0,2.41,0.278,3.477,0.829
			c1.068,0.554,1.957,1.304,2.66,2.254c0.322,0.381,0.484,0.792,0.484,1.229c0,0.257-0.057,0.499-0.17,0.732
			c-0.111,0.234-0.258,0.44-0.434,0.624c-0.18,0.185-0.387,0.334-0.627,0.438c-0.24,0.104-0.49,0.158-0.742,0.158
			c-0.244,0-0.482-0.054-0.73-0.158c-0.234-0.104-0.471-0.274-0.695-0.518c-0.354-0.517-0.809-0.934-1.355-1.253
			c-0.559-0.319-1.172-0.483-1.848-0.483c-0.529,0-1.029,0.1-1.492,0.303c-0.467,0.201-0.875,0.479-1.23,0.83
			c-0.35,0.356-0.627,0.764-0.828,1.226c-0.201,0.468-0.301,0.966-0.301,1.497c0,0.527,0.1,1.023,0.301,1.49
			c0.203,0.469,0.479,0.876,0.828,1.232c0.355,0.352,0.764,0.627,1.23,0.829c0.463,0.202,0.963,0.301,1.492,0.301
			c0.658,0,1.262-0.15,1.809-0.447c0.545-0.291,0.994-0.704,1.348-1.214c0.414-0.42,0.875-0.627,1.373-0.627
			c0.256,0,0.504,0.056,0.748,0.166c0.24,0.115,0.453,0.27,0.637,0.461c0.184,0.189,0.33,0.406,0.432,0.652
			c0.107,0.238,0.16,0.484,0.16,0.744c0,0.178-0.021,0.34-0.062,0.495C114.949,107.647,114.875,107.805,114.76,107.965z"/>
		<path fill="#00A597" d="M122.719,104.282l2.262-7.49c0.111-0.369,0.326-0.647,0.639-0.838c0.312-0.197,0.654-0.289,1.02-0.289
			c0.307,0,0.594,0.054,0.869,0.166c0.367,0.162,0.654,0.39,0.854,0.686c0.203,0.299,0.301,0.632,0.301,0.998
			c0,0.291-0.057,0.558-0.168,0.793l-3.973,11.63c-0.174,0.404-0.422,0.688-0.732,0.858c-0.314,0.167-0.674,0.25-1.07,0.25
			c-0.371-0.016-0.73-0.119-1.076-0.312c-0.342-0.193-0.588-0.468-0.734-0.819l-3.994-11.607c-0.113-0.238-0.17-0.497-0.17-0.766
			c0-0.371,0.098-0.706,0.301-1.003c0.201-0.295,0.486-0.524,0.854-0.686c0.305-0.128,0.602-0.19,0.893-0.19
			c0.367,0,0.705,0.091,1.01,0.289c0.307,0.19,0.52,0.471,0.629,0.838L122.719,104.282z"/>
	</g>
	<g>
		
			<line fill="none" stroke="#00A597" stroke-width="3.7381" stroke-linecap="round" stroke-linejoin="round" stroke-miterlimit="10" x1="102.674" y1="127.061" x2="128.744" y2="127.061"/>
		
			<line fill="none" stroke="#00A597" stroke-width="3.7381" stroke-linecap="round" stroke-linejoin="round" stroke-miterlimit="10" x1="102.674" y1="119.115" x2="128.744" y2="119.115"/>
		
			<line fill="none" stroke="#00A597" stroke-width="3.7381" stroke-linecap="round" stroke-linejoin="round" stroke-miterlimit="10" x1="102.674" y1="135.002" x2="128.744" y2="135.002"/>
	</g>
	<g>
		<polygon fill="#FFFFFF" points="119.393,62.831 119.393,46.185 137.336,62.831 		"/>
		<path fill="#18A294" d="M120.393,48.477l14.396,13.354h-14.396V48.477 M118.393,43.894v19.938h21.492L118.393,43.894
			L118.393,43.894z"/>
	</g>
	<g>
		<path fill="#18A294" d="M77.603,73.146c-2.252-3.874-6.28,4.111,1.269,6.096C77.872,76.322,77.603,73.146,77.603,73.146z"/>
		<path fill="#18A294" d="M103.461,73.225c2.271-3.858,6.256,4.151-1.308,6.086C103.168,76.4,103.461,73.225,103.461,73.225z"/>
		<g>
			<path fill="#FBDFDD" d="M90.976,88.498c-6.991-0.812-15.144-5.438-15.114-15.805c0.027-9.956,5.728-16.14,14.876-16.14
				c9.195,0.03,15.081,6.382,15.051,16.182c-0.028,9.836-7.343,15.005-14.58,15.764l-0.117,0.012L90.976,88.498z"/>
			<path fill="#18A294" d="M90.739,57.62c0.018,0,0.035,0,0.053,0c8.91,0.029,13.958,6.202,13.931,15.112
				c-0.025,8.91-6.625,13.972-13.624,14.707c-7.482-0.869-14.196-5.833-14.17-14.743C76.954,63.805,81.862,57.62,90.739,57.62
				 M90.739,55.486L90.739,55.486c-9.657,0-15.915,6.753-15.944,17.204c-0.03,10.361,8.043,15.938,16.058,16.868l0.234,0.027
				l0.234-0.025c7.461-0.783,15.505-6.381,15.535-16.823c0.032-10.447-6.271-17.219-16.058-17.251H90.739L90.739,55.486z"/>
		</g>
		<path fill="#18A294" d="M86.034,74.442c-0.002,1.009-0.902,1.822-2.01,1.82c-1.108-0.004-2.004-0.824-2.002-1.836
			c0.004-1.005,0.902-1.82,2.01-1.819C85.144,72.611,86.036,73.434,86.034,74.442z"/>
		<path fill="#FFFFFF" d="M84.162,73.973c0,0.304-0.271,0.551-0.607,0.546c-0.333,0-0.605-0.245-0.605-0.549
			c0.001-0.307,0.274-0.552,0.609-0.552C83.894,73.418,84.162,73.669,84.162,73.973z"/>
		<path fill="#18A294" d="M100.419,74.804c-0.001,1.009-0.904,1.823-2.012,1.82c-1.106-0.002-2-0.824-1.999-1.834
			c0.005-1.008,0.906-1.822,2.013-1.82C99.528,72.974,100.423,73.794,100.419,74.804z"/>
		<path fill="#FFFFFF" d="M98.507,74.5c0,0.305-0.27,0.55-0.601,0.548c-0.339,0-0.606-0.243-0.606-0.551
			c0-0.302,0.271-0.554,0.607-0.549C98.239,73.949,98.51,74.197,98.507,74.5z"/>
		<g>
			<path fill="#18A294" d="M89.431,82.088l1.103,1.249c0.347,0.369,0.761,0.714,1.022,0.711c0.224,0.056,0.603-0.234,0.929-0.633
				c0.33-0.396,0.639-0.86,1.019-1.315c0.004,0.593-0.11,1.169-0.366,1.724c-0.123,0.281-0.306,0.545-0.559,0.796
				c-0.25,0.238-0.665,0.445-1.106,0.411c-0.882-0.14-1.272-0.748-1.566-1.25C89.624,83.248,89.455,82.683,89.431,82.088z"/>
		</g>
		<path fill="#FFFFFF" d="M85.576,78.103c-0.002,0.642-1.057,1.158-2.357,1.152c-1.302-0.004-2.355-0.527-2.354-1.168
			c0.003-0.64,1.061-1.156,2.362-1.152C84.529,76.938,85.579,77.461,85.576,78.103z"/>
		<ellipse fill="#FFFFFF" cx="99.155" cy="78.49" rx="2.356" ry="1.157"/>
		<g>
			<path fill="#18A294" d="M100.722,89.29c0.101-0.854,0.255-1.943,0.414-3.063c0.858-6.083,2.296-16.265,0.626-21.244l-0.669-1.995
				l0.236,2.091c0.182,1.607-1.243,4.311-1.99,5.639c-0.192-1.848-0.813-5.253-1.463-6.162L97.62,64.2l-0.137,0.417
				c-0.211,0.641-0.38,1.429-0.56,2.263c-0.248,1.155-0.503,2.341-0.879,3.185c-0.307-2.183-1.232-4.126-1.807-5.334l-0.293-0.617
				l-0.188,0.481c-0.179,0.458-0.376,1.033-0.588,1.647c-0.483,1.406-1.074,3.122-1.645,3.977c-0.504-0.891-1.343-2.791-1.332-5.555
				l0.003-0.797l-0.416,0.68c-0.563,0.92-1.202,3.089-1.521,4.604c-0.839-1.557-0.948-1.807-0.94-4.495l0.002-0.59l-0.391,0.441
				c-0.812,0.916-1.212,2.882-1.144,5.578c-0.975-1.352-1.846-3.408-1.841-5.441l-0.442-0.039l-0.105,0.594
				c-0.295,1.659-0.809,4.548-1.02,6.012c-1.016-1.719-1.645-5.033-1.299-6.303l-0.419-0.148c-1.696,3.863-1.361,14.219,0.64,23.041
				c-2.125-5.123-4.665-15.594-4.369-18.727l0.093-0.981l-0.506,0.846c-0.316,0.53-0.602,3.341-0.5,5.864
				c-2.096-8.207-0.078-13.465,2.116-16.509c3.127-4.339,7.7-5.879,10.665-5.879c0.804,0,1.542,0.105,2.192,0.313l0.06,0.019
				l0.061-0.015c0.774-0.189,1.584-0.285,2.407-0.285c4.135,0,8.421,2.439,11.186,6.366c2.153,3.059,5.198,9.598,1.954,19.523
				c-0.534-4.36-0.406-6.727-0.321-7.574l-0.442-0.052c-0.566,4.163-3.148,12.246-4.691,17.075
				C101.026,88.333,100.865,88.838,100.722,89.29z"/>
			<path fill="#18A294" d="M88.798,52.637c0.781,0,1.496,0.102,2.124,0.302l0.12,0.039l0.122-0.03
				c0.757-0.185,1.549-0.279,2.354-0.279c4.063,0,8.28,2.403,11.003,6.271c2.056,2.92,4.932,9.048,2.237,18.315
				c-0.39-3.668-0.277-5.7-0.202-6.457c0.02-0.142,0.037-0.28,0.052-0.413l-0.884-0.116c-0.019,0.121-0.036,0.262-0.051,0.408
				c-0.53,3.896-2.841,11.262-4.396,16.138c0.025-0.185,0.052-0.371,0.078-0.559c0.862-6.103,2.304-16.317,0.618-21.345l-1.338-3.99
				l0.473,4.182c0.113,1.003-0.435,2.646-1.63,4.89c-0.255-1.938-0.817-4.723-1.422-5.567l-0.511-0.713l-0.274,0.834
				c-0.214,0.652-0.385,1.445-0.565,2.286c-0.171,0.795-0.355,1.652-0.585,2.381c-0.396-1.877-1.174-3.513-1.683-4.58l-0.072-0.151
				l-0.443-0.932l-0.375,0.962c-0.181,0.464-0.38,1.042-0.591,1.655c-0.424,1.232-0.93,2.705-1.422,3.599
				c-0.489-0.97-1.131-2.702-1.121-5.104l0.006-1.595l-0.832,1.36c-0.523,0.854-1.074,2.638-1.417,4.084
				c-0.572-1.107-0.638-1.559-0.631-3.857l0.003-1.18l-0.783,0.883c-0.95,1.071-1.188,3.221-1.205,4.976
				c-0.775-1.285-1.395-2.997-1.39-4.69l-0.885-0.079l-0.105,0.594c-0.254,1.433-0.672,3.783-0.918,5.346
				c-0.807-1.751-1.266-4.439-0.966-5.539l-0.838-0.296c-1.526,3.476-1.429,12.132,0.032,20.249
				c-1.807-5.445-3.576-13.282-3.335-15.824l0.185-1.963l-1.011,1.692c-0.246,0.411-0.475,2.045-0.539,3.902
				c-1.287-6.976,0.546-11.555,2.526-14.302C81.393,54.152,85.886,52.637,88.798,52.637 M88.798,52.191
				c-6.956,0-18.051,7.787-12.266,25.144c-0.61-2.673-0.2-7.652,0.176-8.283c-0.332,3.514,3.039,16.937,5.313,20.758
				c-2.498-9.417-2.898-20.999-1.158-24.961c-0.4,1.469,0.398,5.393,1.659,6.969c0.131-1.216,0.932-5.663,1.2-7.175
				c-0.007,2.431,1.199,4.834,2.312,6.117c-0.149-2.877,0.206-5.141,1.062-6.105c-0.009,3.035,0.136,3.04,1.263,5.153
				c0.244-1.438,0.975-4.108,1.61-5.146c-0.012,2.875,0.875,4.912,1.533,5.954c0.901-1.036,1.809-4.267,2.461-5.941
				c0.645,1.357,1.749,3.596,1.934,6.112c0.926-1.312,1.218-4.342,1.796-6.1c0.692,0.966,1.42,5.259,1.479,6.773
				c0.432-0.766,2.606-4.384,2.378-6.405c2.363,7.047-1.58,24.754-1.132,25.974c0.822-2.844,4.959-14.878,5.695-20.29
				c0.016-0.153,0.032-0.287,0.05-0.401c-0.015,0.129-0.031,0.263-0.05,0.401c-0.133,1.325-0.161,4.109,0.444,8.572
				c5.795-16.181-4.142-27.087-13.041-27.087c-0.833,0-1.658,0.096-2.46,0.292C90.385,52.3,89.621,52.191,88.798,52.191
				L88.798,52.191z M99.173,71.459c-0.053,0.094-0.08,0.145-0.073,0.145c0.005,0,0.029-0.028,0.075-0.087
				C99.174,71.498,99.174,71.479,99.173,71.459L99.173,71.459z M76.532,77.335c0.099,0.432,0.224,0.803,0.38,1.086
				C76.778,78.054,76.652,77.693,76.532,77.335L76.532,77.335z"/>
		</g>
		<path fill="#18A294" d="M80.19,87.928c0,0-5.093-17.671-1.034-24.039l1.207-8.298c0,0-13.31,9.201-2.528,29.63"/>
		<path fill="#18A294" d="M102.004,87.928c0,0,5.092-17.671,1.033-24.039l-1.207-8.298c0,0,13.309,9.201,2.529,29.63"/>
		<defs>
			<filter id="Adobe_OpacityMaskFilter_9_" filterUnits="userSpaceOnUse" x="74.684" y="56.248" width="32.699" height="11.829">
				<feColorMatrix  type="matrix" values="1 0 0 0 0  0 1 0 0 0  0 0 1 0 0  0 0 0 1 0"/>
			</filter>
		</defs>
		<mask maskUnits="userSpaceOnUse" x="74.684" y="56.248" width="32.699" height="11.829" id="SVGID_4_">
			<g filter="url(#Adobe_OpacityMaskFilter_9_)">
				
					<linearGradient id="SVGID_20_" gradientUnits="userSpaceOnUse" x1="296.3633" y1="-163.9268" x2="296.3633" y2="-148.0085" gradientTransform="matrix(1 0 0 -1 -206 -94)">
					<stop  offset="0" style="stop-color:#4A4A49"/>
					<stop  offset="0.7239" style="stop-color:#1D1D1B"/>
				</linearGradient>
				
					<rect x="69.593" y="53.366" opacity="0.82" fill="url(#SVGID_20_)" enable-background="new    " width="41.54" height="16.395"/>
			</g>
		</mask>
		<g mask="url(#SVGID_4_)">
			<path fill="#18A294" d="M83.325,66.885c-0.904-0.236-1.754-0.489-2.554-0.751"/>
			<path fill="#18A294" d="M86.121,67.496c-0.697-0.124-1.372-0.271-2.03-0.429"/>
			<path fill="#18A294" d="M80.474,66.036c-2.322-0.774-4.156-1.6-5.278-2.155"/>
			<path fill="#18A294" d="M92.755,68.071c-0.795,0.014-1.58-0.012-2.354-0.054"/>
			<path fill="#18A294" d="M101.402,66.542c-0.944,0.337-1.891,0.616-2.833,0.833"/>
			<path fill="#18A294" d="M96.975,67.691c-0.559,0.091-1.112,0.164-1.666,0.223"/>
			<path fill="#18A294" d="M103.193,56.474c-4.148,1.448-13.319,3.679-23.57-0.227c-0.91,0.893-1.771,1.695-2.476,2.896
				c0,0-1.149,1.438-2.463,4.643c1.123,0.556,3.468,1.476,5.79,2.249c0.116-0.439,0.243-0.852,0.39-1.187
				c-0.088,0.325-0.113,0.773-0.095,1.284c0.802,0.264,1.653,0.516,2.555,0.751c0.16-0.92,0.308-1.744,0.396-2.244
				c0,0.828,0.143,1.651,0.369,2.427c0.659,0.157,1.333,0.304,2.03,0.429c0.161-1.29,0.482-2.289,0.974-2.844
				c-0.003,1.616,0.036,2.373,0.246,3.048c0.477,0.072,0.96,0.13,1.452,0.182c0.331-1.242,0.773-2.563,1.178-3.221
				c-0.006,1.296,0.177,2.412,0.434,3.354c0.774,0.042,1.557,0.068,2.353,0.055c0.448-1.201,0.862-2.517,1.207-3.399
				c0.385,0.809,0.928,1.935,1.346,3.24c0.554-0.059,1.108-0.131,1.666-0.223c0.24-1.076,0.447-2.179,0.72-3.005
				c0.306,0.426,0.617,1.494,0.875,2.689c0.942-0.218,1.89-0.498,2.832-0.833c0.133-0.54,0.197-1.052,0.148-1.487
				c0.139,0.404,0.247,0.847,0.346,1.315c1.422-0.541,4.1-1.884,5.488-2.747C106.111,60.514,104.732,58.394,103.193,56.474z"/>
		</g>
	</g>
	<circle fill="none" stroke="#18A294" stroke-width="2" stroke-miterlimit="10" cx="384.694" cy="99.311" r="92.288"/>
	<circle fill="none" stroke="#18A294" stroke-width="2" stroke-miterlimit="10" cx="669.694" cy="99.311" r="92.288"/>
	<g>
		<path fill="#FFFFFF" d="M354.153,123.983c-1.455,0-2.635-1.18-2.635-2.635V92.875c0-1.456,1.18-2.635,2.635-2.635h62.929
			c1.455,0,2.635,1.18,2.635,2.635v28.473c0,1.455-1.18,2.635-2.635,2.635H354.153z"/>
		<path fill="#FFFFFF" d="M417.082,92.875v28.473h-62.929V92.875H417.082 M417.082,87.605h-62.929c-2.911,0-5.271,2.36-5.271,5.271
			v28.473c0,2.911,2.359,5.271,5.271,5.271h62.929c2.911,0,5.271-2.359,5.271-5.271V92.875
			C422.353,89.965,419.993,87.605,417.082,87.605L417.082,87.605z"/>
	</g>
	<g>
		<path fill="#18A294" d="M420.502,61.178v8.864c0,3.999-3.253,7.252-7.253,7.252c-3.999,0-7.252-3.253-7.252-7.252v-8.864h-4.298
			v8.864c0,3.999-3.254,7.252-7.253,7.252c-4,0-7.252-3.253-7.252-7.252v-8.864h-4.3v8.864c0,3.999-3.253,7.252-7.252,7.252
			s-7.253-3.253-7.253-7.252v-8.864h-4.298v8.864c0,3.999-3.254,7.252-7.252,7.252c-3.999,0-7.253-3.253-7.253-7.252v-8.864h-7.253
			v70.915h85.421V61.178H420.502z"/>
	</g>
	<g>
		
			<line fill="#18A294" stroke="#FFFFFF" stroke-width="2.7916" stroke-miterlimit="10" x1="356.638" y1="53.313" x2="356.638" y2="68.625"/>
		<path fill="#18A294" d="M356.638,72.653c-1.669,0-3.021-1.804-3.021-4.029V53.313c0-2.225,1.353-4.029,3.021-4.029
			s3.022,1.804,3.022,4.029v15.312C359.66,70.85,358.307,72.653,356.638,72.653z"/>
	</g>
	<g>
		
			<line fill="#18A294" stroke="#FFFFFF" stroke-width="2.7916" stroke-miterlimit="10" x1="375.665" y1="53.313" x2="375.665" y2="68.625"/>
		<path fill="#18A294" d="M375.665,72.653c-1.669,0-3.021-1.804-3.021-4.029V53.313c0-2.225,1.353-4.029,3.021-4.029
			c1.67,0,3.022,1.804,3.022,4.029v15.312C378.688,70.85,377.335,72.653,375.665,72.653z"/>
	</g>
	<g>
		
			<line fill="#18A294" stroke="#FFFFFF" stroke-width="4" stroke-miterlimit="10" x1="394.692" y1="53.313" x2="394.692" y2="68.625"/>
		<g>
			<path fill="#18A294" d="M394.692,74.653c-2.816,0-5.022-2.648-5.022-6.029V53.313c0-3.381,2.206-6.029,5.022-6.029
				c2.815,0,5.021,2.648,5.021,6.029v15.312C399.714,72.005,397.508,74.653,394.692,74.653z"/>
			<path fill="#FFFFFF" d="M394.692,49.284c1.669,0,3.021,1.804,3.021,4.029v15.312c0,2.225-1.353,4.029-3.021,4.029
				c-1.67,0-3.022-1.804-3.022-4.029V53.313C391.67,51.088,393.022,49.284,394.692,49.284 M394.692,45.284
				c-3.938,0-7.022,3.527-7.022,8.029v15.312c0,4.502,3.085,8.029,7.022,8.029s7.021-3.527,7.021-8.029V53.313
				C401.714,48.811,398.63,45.284,394.692,45.284L394.692,45.284z"/>
		</g>
	</g>
	<g>
		
			<line fill="#18A294" stroke="#FFFFFF" stroke-width="4" stroke-miterlimit="10" x1="413.386" y1="53.646" x2="413.386" y2="68.958"/>
		<g>
			<path fill="#18A294" d="M413.386,74.986c-2.816,0-5.022-2.648-5.022-6.029V53.646c0-3.381,2.206-6.029,5.022-6.029
				c2.815,0,5.021,2.648,5.021,6.029v15.312C418.407,72.338,416.201,74.986,413.386,74.986z"/>
			<path fill="#FFFFFF" d="M413.386,49.617c1.669,0,3.021,1.804,3.021,4.029v15.312c0,2.225-1.353,4.029-3.021,4.029
				c-1.67,0-3.022-1.804-3.022-4.029V53.646C410.363,51.421,411.716,49.617,413.386,49.617 M413.386,45.617
				c-3.938,0-7.022,3.527-7.022,8.029v15.312c0,4.502,3.085,8.029,7.022,8.029s7.021-3.527,7.021-8.029V53.646
				C420.407,49.144,417.323,45.617,413.386,45.617L413.386,45.617z"/>
		</g>
	</g>
	<rect x="349.318" y="86.965" fill="#FBDFDD" width="69.84" height="38.681"/>
	<rect x="354.69" y="98.856" fill="none" width="59.644" height="18.144"/>
	<text transform="matrix(1 0 0 1 354.6904 115.9883)" fill="#18A294" font-family="'Antipasto-ExtraBold'" font-size="26.8944">2016</text>
	
		<rect x="624.688" y="69.713" fill="#18A294" stroke="#18A294" stroke-width="6.693" stroke-linecap="round" stroke-linejoin="round" stroke-miterlimit="10" width="90.719" height="60.158"/>
	<g>
		<path fill="#FFFFFF" d="M670.44,127.266c-13.458-6.593-29.208-6.593-42.666,0c0-17.654,0-35.309,0-52.964
			c13.458-6.593,29.208-6.593,42.666,0C670.44,91.957,670.44,109.611,670.44,127.266z"/>
	</g>
	<g>
		<path fill="#FFFFFF" d="M713.113,127.266c-13.458-6.593-29.208-6.593-42.666,0c0-17.654,0-35.309,0-52.964
			c13.458-6.593,29.208-6.593,42.666,0C713.113,91.957,713.113,109.611,713.113,127.266z"/>
	</g>
	<g>
		<path fill="#FFFFFF" d="M669.981,126.102c-12.011-9.555-26.067-13.226-38.078-11.012c0-17.655,0-35.309,0-52.964
			c12.011-2.213,26.067,1.457,38.078,11.012C669.981,90.792,669.981,108.447,669.981,126.102z"/>
		<path fill="none" stroke="#18A294" stroke-width="2" stroke-miterlimit="10" d="M669.981,126.102
			c-12.011-9.555-26.067-13.226-38.078-11.012c0-17.655,0-35.309,0-52.964c12.011-2.213,26.067,1.457,38.078,11.012
			C669.981,90.792,669.981,108.447,669.981,126.102z"/>
	</g>
	<g>
		<path fill="#FFFFFF" d="M670.443,126.102c12.011-9.555,26.067-13.226,38.078-11.012c0-17.655,0-35.309,0-52.964
			c-12.011-2.213-26.067,1.457-38.078,11.012C670.443,90.792,670.443,108.447,670.443,126.102z"/>
		<path fill="none" stroke="#18A294" stroke-width="2" stroke-miterlimit="10" d="M670.443,126.102
			c12.011-9.555,26.067-13.226,38.078-11.012c0-17.655,0-35.309,0-52.964c-12.011-2.213-26.067,1.457-38.078,11.012
			C670.443,90.792,670.443,108.447,670.443,126.102z"/>
	</g>
	
		<line fill="none" stroke="#18A294" stroke-width="2.688" stroke-linecap="round" stroke-linejoin="round" stroke-miterlimit="10" x1="669.756" y1="73.843" x2="669.756" y2="125.459"/>
	
		<line fill="none" stroke="#18A294" stroke-width="6.8" stroke-linecap="round" stroke-linejoin="round" stroke-miterlimit="10" x1="658.114" y1="147.852" x2="694.65" y2="147.852"/>
	
		<line fill="none" stroke="#18A294" stroke-width="6.9" stroke-linecap="round" stroke-linejoin="round" stroke-miterlimit="10" x1="651.874" y1="161.238" x2="694.65" y2="161.238"/>
	<path fill="#F7C3BF" d="M641.641,147.977h-0.018c0.003,0.004,0.007,0.007,0.009,0.01c-0.002,0.005-0.006,0.008-0.009,0.011h0.018
		c1.706,2.219,6.865,4.951,10.616,4.172c3.905-0.812,3.877-3.979,3.87-4.183c0.007-0.201,0.035-3.368-3.87-4.18
		c-2.606-0.542-5.296,1.487-7.632,2.985C643.6,147.45,642.75,148.042,641.641,147.977z"/>
	<rect x="655.064" y="144.923" fill="#FFFFFF" stroke="#18A294" stroke-miterlimit="10" width="2.471" height="5.805"/>
	<path fill="#FFFFFF" d="M519.5,110.5"/>
	<polygon fill="#FFFFFF" stroke="#18A294" stroke-miterlimit="10" points="650.828,158.31 650.828,164.166 642.252,161.237 	"/>
	<polygon fill="#18A294" points="645.918,159.917 645.418,160.583 645.833,161.209 645.458,161.584 645.75,162.459 642.252,161.237 
			"/>
</g>
</svg>
