<?xml version="1.0" encoding="utf-8"?>
<!-- Generator: Adobe Illustrator 15.1.0, SVG Export Plug-In . SVG Version: 6.00 Build 0)  -->
<!DOCTYPE svg PUBLIC "-//W3C//DTD SVG 1.1//EN" "http://www.w3.org/Graphics/SVG/1.1/DTD/svg11.dtd">
<svg version="1.1" xmlns="http://www.w3.org/2000/svg" xmlns:xlink="http://www.w3.org/1999/xlink" x="0px" y="0px" width="200px"
	 height="200px" viewBox="0 0 200 200" enable-background="new 0 0 200 200" xml:space="preserve">
<g id="Calque_1" display="none">
	<circle display="inline" fill="#FBDFDD" cx="-470.384" cy="99.311" r="92.288"/>
	<defs>
		<filter id="Adobe_OpacityMaskFilter" filterUnits="userSpaceOnUse" x="-505.382" y="62.473" width="132.194" height="173.982">
			<feColorMatrix  type="matrix" values="1 0 0 0 0  0 1 0 0 0  0 0 1 0 0  0 0 0 1 0"/>
		</filter>
	</defs>
	<mask maskUnits="userSpaceOnUse" x="-505.382" y="62.473" width="132.194" height="173.982" id="SVGID_5_" display="inline">
		<g filter="url(#Adobe_OpacityMaskFilter)">
			<linearGradient id="SVGID_6_" gradientUnits="userSpaceOnUse" x1="-471.9248" y1="90.5122" x2="-436.3456" y2="161.6696">
				<stop  offset="0.4724" style="stop-color:#FFFFFF"/>
				<stop  offset="0.6926" style="stop-color:#8F8F8F"/>
				<stop  offset="0.9056" style="stop-color:#282828"/>
				<stop  offset="1" style="stop-color:#000000"/>
			</linearGradient>
			<polygon opacity="0.6" fill="url(#SVGID_6_)" points="-382.188,145.438 -459.379,223.955 -505.382,148.149 -431.691,62.473 			
				"/>
		</g>
	</mask>
	<polygon display="inline" mask="url(#SVGID_5_)" fill="#F7C3BF" points="-373.188,157.938 -450.379,236.455 -505.382,148.149 
		-431.691,62.473 	"/>
	<polygon display="inline" fill="#FFFFFF" points="-430.121,147.616 -506.752,147.616 -506.752,44.354 -451.615,44.354 
		-440.756,58.972 -430.121,64.292 	"/>
	<g display="inline">
		<path fill="#00A597" d="M-455.318,107.965c-0.693,0.98-1.582,1.738-2.672,2.276c-1.096,0.536-2.281,0.808-3.562,0.808
			c-1.062,0-2.059-0.2-2.986-0.602c-0.932-0.402-1.744-0.948-2.436-1.642c-0.686-0.688-1.234-1.498-1.637-2.427
			c-0.4-0.936-0.599-1.931-0.599-2.989s0.198-2.055,0.599-2.98c0.404-0.934,0.951-1.746,1.637-2.445
			c0.691-0.699,1.504-1.247,2.436-1.65c0.928-0.4,1.924-0.603,2.986-0.603c1.25,0,2.41,0.278,3.477,0.829
			c1.068,0.554,1.957,1.304,2.66,2.254c0.322,0.381,0.484,0.792,0.484,1.229c0,0.257-0.057,0.499-0.17,0.732
			c-0.111,0.234-0.258,0.44-0.434,0.624c-0.18,0.185-0.387,0.334-0.627,0.438c-0.24,0.104-0.49,0.158-0.742,0.158
			c-0.244,0-0.482-0.054-0.73-0.158c-0.234-0.104-0.471-0.274-0.695-0.518c-0.354-0.517-0.809-0.934-1.355-1.253
			c-0.559-0.319-1.172-0.483-1.848-0.483c-0.529,0-1.029,0.1-1.492,0.303c-0.467,0.201-0.875,0.479-1.23,0.83
			c-0.35,0.356-0.627,0.764-0.828,1.226c-0.201,0.468-0.301,0.966-0.301,1.497c0,0.527,0.1,1.023,0.301,1.49
			c0.203,0.469,0.479,0.876,0.828,1.232c0.355,0.352,0.764,0.627,1.23,0.829c0.463,0.202,0.963,0.301,1.492,0.301
			c0.658,0,1.262-0.15,1.809-0.447c0.545-0.291,0.994-0.704,1.348-1.214c0.414-0.42,0.875-0.627,1.373-0.627
			c0.256,0,0.504,0.056,0.748,0.166c0.24,0.115,0.453,0.27,0.637,0.461c0.184,0.189,0.33,0.406,0.432,0.652
			c0.107,0.238,0.16,0.484,0.16,0.744c0,0.178-0.021,0.34-0.062,0.495C-455.129,107.647-455.203,107.805-455.318,107.965z"/>
		<path fill="#00A597" d="M-447.359,104.282l2.262-7.49c0.111-0.369,0.326-0.647,0.639-0.838c0.312-0.197,0.654-0.289,1.02-0.289
			c0.307,0,0.594,0.054,0.869,0.166c0.367,0.162,0.654,0.39,0.854,0.686c0.203,0.299,0.301,0.632,0.301,0.998
			c0,0.291-0.057,0.558-0.168,0.793l-3.973,11.63c-0.174,0.404-0.422,0.688-0.732,0.858c-0.314,0.167-0.674,0.25-1.07,0.25
			c-0.371-0.016-0.73-0.119-1.076-0.312c-0.342-0.193-0.588-0.468-0.734-0.819l-3.994-11.607c-0.113-0.238-0.17-0.497-0.17-0.766
			c0-0.371,0.098-0.706,0.301-1.003c0.201-0.295,0.486-0.524,0.854-0.686c0.305-0.128,0.602-0.19,0.893-0.19
			c0.367,0,0.705,0.091,1.01,0.289c0.307,0.19,0.52,0.471,0.629,0.838L-447.359,104.282z"/>
	</g>
	<g display="inline">
		
			<line fill="none" stroke="#00A597" stroke-width="3.7381" stroke-linecap="round" stroke-linejoin="round" stroke-miterlimit="10" x1="-467.404" y1="127.061" x2="-441.334" y2="127.061"/>
		
			<line fill="none" stroke="#00A597" stroke-width="3.7381" stroke-linecap="round" stroke-linejoin="round" stroke-miterlimit="10" x1="-467.404" y1="119.115" x2="-441.334" y2="119.115"/>
		
			<line fill="none" stroke="#00A597" stroke-width="3.7381" stroke-linecap="round" stroke-linejoin="round" stroke-miterlimit="10" x1="-467.404" y1="135.002" x2="-441.334" y2="135.002"/>
	</g>
	<polygon display="inline" fill="#E0E0E0" points="-451.686,43.894 -451.686,63.831 -430.193,63.831 	"/>
	<g display="inline">
		<path fill="#18A294" d="M-492.475,73.146c-2.252-3.874-6.28,4.111,1.269,6.096C-492.207,76.322-492.475,73.146-492.475,73.146z"/>
		<path fill="#18A294" d="M-466.617,73.225c2.271-3.858,6.256,4.151-1.308,6.086C-466.91,76.4-466.617,73.225-466.617,73.225z"/>
		<g>
			<path fill="#FBDFDD" d="M-479.102,88.498c-6.991-0.812-15.144-5.438-15.114-15.805c0.027-9.956,5.728-16.14,14.876-16.14
				c9.195,0.03,15.081,6.382,15.051,16.182c-0.028,9.836-7.343,15.005-14.58,15.764l-0.117,0.012L-479.102,88.498z"/>
			<path fill="#18A294" d="M-479.339,57.62c0.018,0,0.035,0,0.053,0c8.91,0.029,13.958,6.202,13.931,15.112
				c-0.025,8.91-6.625,13.972-13.624,14.707c-7.482-0.869-14.196-5.833-14.17-14.743C-493.125,63.805-488.216,57.62-479.339,57.62
				 M-479.339,55.486L-479.339,55.486c-9.657,0-15.915,6.753-15.944,17.204c-0.03,10.361,8.043,15.938,16.058,16.868l0.234,0.027
				l0.234-0.025c7.461-0.783,15.505-6.381,15.535-16.823c0.032-10.447-6.271-17.219-16.058-17.251H-479.339L-479.339,55.486z"/>
		</g>
		<path fill="#18A294" d="M-484.044,74.442c-0.002,1.009-0.902,1.822-2.01,1.82c-1.108-0.004-2.004-0.824-2.002-1.836
			c0.004-1.005,0.902-1.82,2.01-1.819C-484.934,72.611-484.042,73.434-484.044,74.442z"/>
		<path fill="#FFFFFF" d="M-485.917,73.973c0,0.304-0.271,0.551-0.607,0.546c-0.333,0-0.605-0.245-0.605-0.549
			c0.001-0.307,0.274-0.552,0.609-0.552C-486.184,73.418-485.917,73.669-485.917,73.973z"/>
		<path fill="#18A294" d="M-469.659,74.804c-0.001,1.009-0.904,1.823-2.012,1.82c-1.106-0.002-2-0.824-1.999-1.834
			c0.005-1.008,0.906-1.822,2.013-1.82C-470.55,72.974-469.655,73.794-469.659,74.804z"/>
		<path fill="#FFFFFF" d="M-471.571,74.5c0,0.305-0.27,0.55-0.601,0.548c-0.339,0-0.606-0.243-0.606-0.551
			c0-0.302,0.271-0.554,0.607-0.549C-471.839,73.949-471.568,74.197-471.571,74.5z"/>
		<g>
			<path fill="#18A294" d="M-480.647,82.088l1.103,1.249c0.347,0.369,0.761,0.714,1.022,0.711c0.224,0.056,0.603-0.234,0.929-0.633
				c0.33-0.396,0.639-0.86,1.019-1.315c0.004,0.593-0.11,1.169-0.366,1.724c-0.123,0.281-0.306,0.545-0.559,0.796
				c-0.25,0.238-0.665,0.445-1.106,0.411c-0.882-0.14-1.272-0.748-1.566-1.25C-480.454,83.248-480.623,82.683-480.647,82.088z"/>
		</g>
		<path fill="#F7C3BF" d="M-484.502,78.103c-0.002,0.642-1.057,1.158-2.357,1.152c-1.302-0.004-2.355-0.527-2.354-1.168
			c0.003-0.64,1.061-1.156,2.362-1.152C-485.549,76.938-484.499,77.461-484.502,78.103z"/>
		<ellipse fill="#F7C3BF" cx="-470.923" cy="78.49" rx="2.356" ry="1.157"/>
		<g>
			<path fill="#18A294" d="M-469.356,89.29c0.101-0.854,0.255-1.943,0.413-3.063c0.859-6.083,2.297-16.265,0.627-21.244
				l-0.669-1.995l0.236,2.091c0.182,1.606-1.244,4.311-1.99,5.639c-0.192-1.848-0.813-5.253-1.463-6.162l-0.256-0.356l-0.137,0.417
				c-0.211,0.641-0.38,1.429-0.56,2.263c-0.248,1.155-0.503,2.341-0.879,3.185c-0.307-2.183-1.232-4.126-1.807-5.334l-0.293-0.617
				l-0.188,0.481c-0.179,0.458-0.376,1.033-0.588,1.647c-0.483,1.406-1.074,3.122-1.645,3.977c-0.504-0.891-1.343-2.791-1.332-5.555
				l0.003-0.797l-0.416,0.68c-0.563,0.92-1.202,3.089-1.521,4.604c-0.839-1.557-0.948-1.807-0.94-4.495l0.002-0.59l-0.391,0.441
				c-0.812,0.916-1.212,2.882-1.144,5.578c-0.975-1.352-1.846-3.408-1.841-5.441l-0.442-0.039l-0.105,0.594
				c-0.295,1.659-0.809,4.548-1.02,6.012c-1.016-1.719-1.645-5.033-1.299-6.303l-0.419-0.148c-1.696,3.863-1.361,14.219,0.64,23.041
				c-2.125-5.123-4.665-15.594-4.369-18.727l0.093-0.981l-0.506,0.846c-0.316,0.53-0.602,3.341-0.5,5.864
				c-2.096-8.207-0.078-13.465,2.116-16.509c3.127-4.339,7.7-5.879,10.665-5.879c0.804,0,1.542,0.105,2.192,0.313l0.06,0.019
				l0.061-0.015c0.774-0.189,1.584-0.285,2.407-0.285c4.135,0,8.422,2.439,11.186,6.366c2.154,3.059,5.199,9.599,1.953,19.523
				c-0.533-4.36-0.406-6.727-0.32-7.575l-0.443-0.052c-0.566,4.163-3.148,12.247-4.691,17.076
				C-469.052,88.333-469.213,88.839-469.356,89.29z"/>
			<path fill="#18A294" d="M-481.28,52.637c0.781,0,1.496,0.102,2.124,0.302l0.12,0.039l0.122-0.03
				c0.757-0.185,1.549-0.279,2.354-0.279c4.064,0,8.28,2.403,11.004,6.271c2.055,2.919,4.93,9.048,2.236,18.314
				c-0.391-3.668-0.277-5.7-0.203-6.457c0.02-0.142,0.037-0.28,0.053-0.413l-0.885-0.116c-0.018,0.121-0.035,0.262-0.051,0.408
				c-0.529,3.896-2.84,11.262-4.395,16.138c0.025-0.185,0.053-0.371,0.078-0.558c0.861-6.103,2.304-16.317,0.617-21.346l-1.338-3.99
				l0.473,4.182c0.113,1.003-0.434,2.646-1.629,4.889c-0.255-1.938-0.817-4.722-1.422-5.567l-0.511-0.713l-0.274,0.834
				c-0.214,0.652-0.385,1.445-0.565,2.286c-0.171,0.795-0.355,1.652-0.585,2.381c-0.396-1.877-1.174-3.513-1.683-4.58l-0.072-0.151
				l-0.443-0.932l-0.375,0.962c-0.181,0.464-0.38,1.042-0.591,1.655c-0.424,1.232-0.93,2.705-1.422,3.599
				c-0.489-0.97-1.131-2.702-1.121-5.104l0.006-1.595l-0.832,1.36c-0.523,0.854-1.075,2.638-1.417,4.084
				c-0.572-1.107-0.638-1.559-0.631-3.857l0.003-1.18l-0.783,0.883c-0.95,1.071-1.188,3.221-1.205,4.976
				c-0.775-1.285-1.395-2.997-1.39-4.69l-0.885-0.079l-0.105,0.596c-0.255,1.432-0.672,3.782-0.918,5.344
				c-0.807-1.751-1.266-4.439-0.966-5.539l-0.838-0.296c-1.526,3.476-1.429,12.132,0.032,20.249
				c-1.807-5.445-3.576-13.282-3.335-15.824l0.185-1.963l-1.011,1.692c-0.246,0.411-0.475,2.045-0.539,3.902
				c-1.287-6.976,0.546-11.555,2.526-14.302C-488.686,54.152-484.192,52.637-481.28,52.637 M-481.28,52.191
				c-6.956,0-18.051,7.787-12.265,25.144c-0.61-2.673-0.201-7.652,0.176-8.283c-0.332,3.514,3.039,16.937,5.313,20.758
				c-2.498-9.417-2.898-20.999-1.158-24.961c-0.4,1.469,0.398,5.393,1.659,6.969c0.131-1.216,0.932-5.663,1.2-7.175
				c-0.007,2.431,1.199,4.834,2.312,6.117c-0.149-2.877,0.206-5.141,1.062-6.105c-0.009,3.035,0.136,3.04,1.263,5.153
				c0.244-1.438,0.975-4.108,1.61-5.146c-0.012,2.875,0.875,4.912,1.533,5.954c0.901-1.036,1.809-4.267,2.461-5.941
				c0.645,1.357,1.749,3.596,1.934,6.112c0.926-1.312,1.218-4.342,1.796-6.1c0.692,0.966,1.42,5.259,1.479,6.773
				c0.432-0.767,2.606-4.384,2.378-6.405c2.363,7.047-1.58,24.754-1.132,25.974c0.823-2.844,4.958-14.878,5.694-20.29
				c0.016-0.153,0.033-0.287,0.051-0.401c-0.016,0.129-0.031,0.263-0.051,0.401c-0.133,1.325-0.16,4.109,0.445,8.572
				c5.795-16.181-4.141-27.087-13.041-27.087c-0.833,0-1.658,0.096-2.46,0.292C-479.693,52.3-480.457,52.191-481.28,52.191
				L-481.28,52.191z M-470.905,71.459c-0.053,0.094-0.08,0.145-0.073,0.145c0.005,0,0.029-0.028,0.075-0.087
				C-470.904,71.498-470.904,71.479-470.905,71.459L-470.905,71.459z M-493.545,77.335c0.098,0.432,0.223,0.803,0.379,1.086
				C-493.3,78.054-493.426,77.693-493.545,77.335L-493.545,77.335z"/>
		</g>
		<path fill="#18A294" d="M-489.888,87.928c0,0-5.093-17.671-1.034-24.039l1.207-8.298c0,0-13.31,9.201-2.528,29.63"/>
		<path fill="#18A294" d="M-468.074,87.928c0,0,5.092-17.671,1.033-24.039l-1.207-8.298c0,0,13.309,9.201,2.529,29.63"/>
		<defs>
			<filter id="Adobe_OpacityMaskFilter_1_" filterUnits="userSpaceOnUse" x="-495.394" y="56.248" width="32.699" height="11.829">
				<feColorMatrix  type="matrix" values="1 0 0 0 0  0 1 0 0 0  0 0 1 0 0  0 0 0 1 0"/>
			</filter>
		</defs>
		<mask maskUnits="userSpaceOnUse" x="-495.394" y="56.248" width="32.699" height="11.829" id="SVGID_1_">
			<g filter="url(#Adobe_OpacityMaskFilter_1_)">
				
					<linearGradient id="SVGID_7_" gradientUnits="userSpaceOnUse" x1="-273.7148" y1="-163.9268" x2="-273.7148" y2="-148.0085" gradientTransform="matrix(1 0 0 -1 -206 -94)">
					<stop  offset="0" style="stop-color:#4A4A49"/>
					<stop  offset="0.7239" style="stop-color:#1D1D1B"/>
				</linearGradient>
				
					<rect x="-500.485" y="53.366" opacity="0.82" fill="url(#SVGID_7_)" enable-background="new    " width="41.54" height="16.395"/>
			</g>
		</mask>
		<g mask="url(#SVGID_1_)">
			<path fill="#18A294" d="M-486.753,66.885c-0.904-0.236-1.754-0.489-2.554-0.751"/>
			<path fill="#18A294" d="M-483.957,67.496c-0.697-0.124-1.372-0.271-2.03-0.429"/>
			<path fill="#18A294" d="M-489.604,66.036c-2.322-0.774-4.156-1.6-5.278-2.155"/>
			<path fill="#18A294" d="M-477.323,68.071c-0.795,0.014-1.58-0.012-2.354-0.054"/>
			<path fill="#18A294" d="M-468.676,66.542c-0.944,0.337-1.891,0.616-2.833,0.833"/>
			<path fill="#18A294" d="M-473.104,67.691c-0.559,0.091-1.112,0.164-1.666,0.223"/>
			<path fill="#18A294" d="M-466.885,56.474c-4.148,1.448-13.319,3.679-23.57-0.227c-0.91,0.893-1.771,1.695-2.476,2.896
				c0,0-1.149,1.438-2.463,4.643c1.123,0.556,3.468,1.476,5.79,2.249c0.116-0.439,0.243-0.852,0.39-1.187
				c-0.088,0.325-0.113,0.773-0.095,1.284c0.802,0.264,1.653,0.516,2.555,0.751c0.16-0.92,0.308-1.744,0.396-2.244
				c0,0.828,0.143,1.651,0.369,2.427c0.659,0.157,1.333,0.304,2.03,0.429c0.161-1.29,0.482-2.289,0.974-2.844
				c-0.003,1.616,0.036,2.373,0.246,3.048c0.477,0.072,0.96,0.13,1.452,0.182c0.331-1.242,0.773-2.563,1.178-3.221
				c-0.006,1.296,0.177,2.412,0.434,3.354c0.774,0.042,1.557,0.068,2.353,0.055c0.448-1.201,0.862-2.517,1.207-3.399
				c0.385,0.809,0.928,1.935,1.346,3.24c0.554-0.059,1.108-0.131,1.666-0.223c0.24-1.076,0.447-2.179,0.72-3.005
				c0.306,0.426,0.617,1.494,0.875,2.689c0.942-0.218,1.89-0.498,2.832-0.833c0.133-0.54,0.197-1.052,0.148-1.487
				c0.139,0.404,0.247,0.847,0.346,1.315c1.422-0.541,4.1-1.884,5.488-2.747C-463.967,60.514-465.346,58.394-466.885,56.474z"/>
		</g>
	</g>
	<circle display="inline" fill="#FBDFDD" cx="-185.384" cy="99.311" r="92.288"/>
	<circle display="inline" fill="#FBDFDD" cx="99.616" cy="99.311" r="92.288"/>
	<g display="inline">
		<path fill="#FFFFFF" d="M-215.925,123.983c-1.455,0-2.635-1.18-2.635-2.635V92.875c0-1.456,1.18-2.635,2.635-2.635h62.929
			c1.455,0,2.635,1.18,2.635,2.635v28.473c0,1.455-1.18,2.635-2.635,2.635H-215.925z"/>
		<path fill="#FFFFFF" d="M-152.996,92.875v28.473h-62.929V92.875H-152.996 M-152.996,87.605h-62.929
			c-2.911,0-5.271,2.36-5.271,5.271v28.473c0,2.911,2.359,5.271,5.271,5.271h62.929c2.911,0,5.271-2.359,5.271-5.271V92.875
			C-147.726,89.965-150.085,87.605-152.996,87.605L-152.996,87.605z"/>
	</g>
	<defs>
		<filter id="Adobe_OpacityMaskFilter_2_" filterUnits="userSpaceOnUse" x="-227.345" y="52.361" width="132.603" height="167.911">
			<feColorMatrix  type="matrix" values="1 0 0 0 0  0 1 0 0 0  0 0 1 0 0  0 0 0 1 0"/>
		</filter>
	</defs>
	<mask maskUnits="userSpaceOnUse" x="-227.345" y="52.361" width="132.603" height="167.911" id="SVGID_8_" display="inline">
		<g filter="url(#Adobe_OpacityMaskFilter_2_)">
			
				<linearGradient id="SVGID_9_" gradientUnits="userSpaceOnUse" x1="154.5674" y1="201.1338" x2="123.9599" y2="78.0268" gradientTransform="matrix(0.4804 -0.1339 0.1878 0.5329 -262.1343 71.0365)">
				<stop  offset="0" style="stop-color:#000000"/>
				<stop  offset="0.0959" style="stop-color:#333333"/>
				<stop  offset="0.3103" style="stop-color:#A0A0A0"/>
				<stop  offset="0.4586" style="stop-color:#E4E4E4"/>
				<stop  offset="0.5276" style="stop-color:#FFFFFF"/>
			</linearGradient>
			<polygon opacity="0.75" fill="url(#SVGID_9_)" points="-94.742,147.826 -172.342,220.272 -227.345,131.967 -153.245,52.361 			
				"/>
		</g>
	</mask>
	<polygon display="inline" mask="url(#SVGID_8_)" fill="#F7C3BF" points="-94.742,147.826 -172.342,220.272 -227.345,131.967 
		-153.245,52.361 	"/>
	<g display="inline">
		<path fill="#18A294" d="M-149.576,61.178v8.864c0,3.999-3.253,7.252-7.253,7.252c-3.999,0-7.252-3.253-7.252-7.252v-8.864h-4.298
			v8.864c0,3.999-3.254,7.252-7.253,7.252c-4,0-7.252-3.253-7.252-7.252v-8.864h-4.3v8.864c0,3.999-3.253,7.252-7.252,7.252
			s-7.253-3.253-7.253-7.252v-8.864h-4.298v8.864c0,3.999-3.254,7.252-7.252,7.252c-3.999,0-7.253-3.253-7.253-7.252v-8.864h-7.253
			v70.915h85.421V61.178H-149.576z"/>
	</g>
	<g display="inline">
		
			<line fill="#18A294" stroke="#FFFFFF" stroke-width="2.7916" stroke-miterlimit="10" x1="-213.44" y1="53.313" x2="-213.44" y2="68.625"/>
		<path fill="#18A294" d="M-213.44,72.653c-1.669,0-3.021-1.804-3.021-4.029V53.313c0-2.225,1.353-4.029,3.021-4.029
			s3.022,1.804,3.022,4.029v15.312C-210.418,70.85-211.771,72.653-213.44,72.653z"/>
	</g>
	<g display="inline">
		
			<line fill="#18A294" stroke="#FFFFFF" stroke-width="2.7916" stroke-miterlimit="10" x1="-194.413" y1="53.313" x2="-194.413" y2="68.625"/>
		<path fill="#18A294" d="M-194.413,72.653c-1.669,0-3.021-1.804-3.021-4.029V53.313c0-2.225,1.353-4.029,3.021-4.029
			c1.67,0,3.022,1.804,3.022,4.029v15.312C-191.391,70.85-192.743,72.653-194.413,72.653z"/>
	</g>
	<g display="inline">
		
			<line fill="#18A294" stroke="#FBDFDD" stroke-width="4" stroke-miterlimit="10" x1="-175.386" y1="53.313" x2="-175.386" y2="68.625"/>
		<g>
			<path fill="#18A294" d="M-175.386,74.653c-2.816,0-5.022-2.648-5.022-6.029V53.313c0-3.381,2.206-6.029,5.022-6.029
				c2.815,0,5.021,2.648,5.021,6.029v15.312C-170.364,72.005-172.57,74.653-175.386,74.653z"/>
			<path fill="#FBDFDD" d="M-175.386,49.284c1.669,0,3.021,1.804,3.021,4.029v15.312c0,2.225-1.353,4.029-3.021,4.029
				c-1.67,0-3.022-1.804-3.022-4.029V53.313C-178.408,51.088-177.056,49.284-175.386,49.284 M-175.386,45.284
				c-3.938,0-7.022,3.527-7.022,8.029v15.312c0,4.502,3.085,8.029,7.022,8.029s7.021-3.527,7.021-8.029V53.313
				C-168.364,48.811-171.448,45.284-175.386,45.284L-175.386,45.284z"/>
		</g>
	</g>
	<g display="inline">
		
			<line fill="#18A294" stroke="#FBDFDD" stroke-width="4" stroke-miterlimit="10" x1="-156.692" y1="53.646" x2="-156.692" y2="68.958"/>
		<g>
			<path fill="#18A294" d="M-156.692,74.986c-2.816,0-5.022-2.648-5.022-6.029V53.646c0-3.381,2.206-6.029,5.022-6.029
				c2.815,0,5.021,2.648,5.021,6.029v15.312C-151.671,72.338-153.877,74.986-156.692,74.986z"/>
			<path fill="#FBDFDD" d="M-156.692,49.617c1.669,0,3.021,1.804,3.021,4.029v15.312c0,2.225-1.353,4.029-3.021,4.029
				c-1.67,0-3.022-1.804-3.022-4.029V53.646C-159.715,51.421-158.362,49.617-156.692,49.617 M-156.692,45.617
				c-3.938,0-7.022,3.527-7.022,8.029v15.312c0,4.502,3.085,8.029,7.022,8.029s7.021-3.527,7.021-8.029V53.646
				C-149.671,49.144-152.755,45.617-156.692,45.617L-156.692,45.617z"/>
		</g>
	</g>
	<rect x="-220.76" y="86.965" display="inline" fill="#FFFFFF" width="69.84" height="38.681"/>
	<rect x="-215.388" y="98.856" display="inline" fill="none" width="59.644" height="18.144"/>
	
		<text transform="matrix(1 0 0 1 -215.3877 115.9883)" display="inline" fill="#18A294" font-family="'Antipasto-ExtraBold'" font-size="26.8944">2016</text>
	<defs>
		<filter id="Adobe_OpacityMaskFilter_3_" filterUnits="userSpaceOnUse" x="51.694" y="67.028" width="153.936" height="151.244">
			<feColorMatrix  type="matrix" values="1 0 0 0 0  0 1 0 0 0  0 0 1 0 0  0 0 0 1 0"/>
		</filter>
	</defs>
	<mask maskUnits="userSpaceOnUse" x="51.694" y="67.028" width="153.936" height="151.244" id="SVGID_10_" display="inline">
		<g filter="url(#Adobe_OpacityMaskFilter_3_)">
			
				<linearGradient id="SVGID_11_" gradientUnits="userSpaceOnUse" x1="695.7246" y1="336.0186" x2="669.9726" y2="232.4409" gradientTransform="matrix(0.4804 -0.1339 0.1878 0.5329 -262.1343 71.0365)">
				<stop  offset="0" style="stop-color:#000000"/>
				<stop  offset="0.0959" style="stop-color:#333333"/>
				<stop  offset="0.3103" style="stop-color:#A0A0A0"/>
				<stop  offset="0.4586" style="stop-color:#E4E4E4"/>
				<stop  offset="0.5276" style="stop-color:#FFFFFF"/>
			</linearGradient>
			<polygon opacity="0.7" fill="url(#SVGID_11_)" points="204.964,161.826 106.697,218.272 51.694,129.967 146.461,66.361 			"/>
		</g>
	</mask>
	<polygon display="inline" mask="url(#SVGID_10_)" fill="#F7C3BF" points="205.63,162.493 106.697,218.272 51.694,129.967 
		147.127,67.028 	"/>
	
		<rect x="54.61" y="69.713" display="inline" fill="#18A294" stroke="#18A294" stroke-width="6.693" stroke-linecap="round" stroke-linejoin="round" stroke-miterlimit="10" width="90.719" height="60.158"/>
	<g display="inline">
		<path fill="#E0E0E0" d="M100.362,127.266c-13.458-6.593-29.208-6.593-42.666,0c0-17.654,0-35.309,0-52.964
			c13.458-6.593,29.208-6.593,42.666,0C100.362,91.957,100.362,109.611,100.362,127.266z"/>
	</g>
	<g display="inline">
		<path fill="#E0E0E0" d="M143.035,127.266c-13.458-6.593-29.208-6.593-42.666,0c0-17.654,0-35.309,0-52.964
			c13.458-6.593,29.208-6.593,42.666,0C143.035,91.957,143.035,109.611,143.035,127.266z"/>
	</g>
	<g display="inline">
		<path fill="#FFFFFF" d="M99.903,126.102c-12.011-9.555-26.067-13.226-38.078-11.012c0-17.655,0-35.309,0-52.964
			c12.011-2.213,26.067,1.457,38.078,11.012C99.903,90.792,99.903,108.447,99.903,126.102z"/>
	</g>
	<g display="inline">
		<path fill="#FFFFFF" d="M100.365,126.102c12.011-9.555,26.067-13.226,38.078-11.012c0-17.655,0-35.309,0-52.964
			c-12.011-2.213-26.067,1.457-38.078,11.012C100.365,90.792,100.365,108.447,100.365,126.102z"/>
	</g>
	
		<line display="inline" fill="none" stroke="#E0E0E0" stroke-width="2.688" stroke-linecap="round" stroke-linejoin="round" stroke-miterlimit="10" x1="99.678" y1="73.843" x2="99.678" y2="125.459"/>
	<circle display="inline" fill="#FBDFDD" cx="-470.384" cy="-516.676" r="92.288"/>
	<defs>
		
			<filter id="Adobe_OpacityMaskFilter_4_" filterUnits="userSpaceOnUse" x="-505.382" y="-553.515" width="132.194" height="173.982">
			<feColorMatrix  type="matrix" values="1 0 0 0 0  0 1 0 0 0  0 0 1 0 0  0 0 0 1 0"/>
		</filter>
	</defs>
	<mask maskUnits="userSpaceOnUse" x="-505.382" y="-553.515" width="132.194" height="173.982" id="SVGID_12_" display="inline">
		<g filter="url(#Adobe_OpacityMaskFilter_4_)">
			<linearGradient id="SVGID_13_" gradientUnits="userSpaceOnUse" x1="-472.4438" y1="-525.5117" x2="-438.19" y2="-457.0049">
				<stop  offset="0.4724" style="stop-color:#FFFFFF"/>
				<stop  offset="0.5228" style="stop-color:#F9F9F9"/>
				<stop  offset="0.5884" style="stop-color:#E9E9E9"/>
				<stop  offset="0.6625" style="stop-color:#CECECE"/>
				<stop  offset="0.7428" style="stop-color:#A8A8A8"/>
				<stop  offset="0.8281" style="stop-color:#787878"/>
				<stop  offset="0.9161" style="stop-color:#3E3E3E"/>
				<stop  offset="1" style="stop-color:#000000"/>
			</linearGradient>
			<polygon opacity="0.5" fill="url(#SVGID_13_)" points="-385.188,-474.55 -462.379,-396.032 -505.382,-467.838 -431.691,-553.515 
							"/>
		</g>
	</mask>
	<polygon display="inline" mask="url(#SVGID_12_)" fill="#F7C3BF" points="-373.188,-458.05 -450.379,-379.532 -505.382,-467.838 
		-431.691,-553.515 	"/>
	<polygon display="inline" fill="#FFFFFF" points="-430.121,-468.371 -506.752,-468.371 -506.752,-571.633 -451.615,-571.633 
		-440.756,-557.016 -430.121,-551.695 	"/>
	<g display="inline">
		<path fill="#00A597" d="M-455.318-508.022c-0.693,0.98-1.582,1.738-2.672,2.276c-1.096,0.536-2.281,0.808-3.562,0.808
			c-1.062,0-2.059-0.2-2.986-0.602c-0.932-0.402-1.744-0.948-2.436-1.642c-0.686-0.688-1.234-1.498-1.637-2.427
			c-0.4-0.936-0.599-1.931-0.599-2.989s0.198-2.055,0.599-2.98c0.404-0.934,0.951-1.746,1.637-2.445
			c0.691-0.699,1.504-1.247,2.436-1.65c0.928-0.4,1.924-0.603,2.986-0.603c1.25,0,2.41,0.278,3.477,0.829
			c1.068,0.554,1.957,1.304,2.66,2.254c0.322,0.381,0.484,0.792,0.484,1.229c0,0.257-0.057,0.499-0.17,0.732
			c-0.111,0.234-0.258,0.44-0.434,0.624c-0.18,0.185-0.387,0.334-0.627,0.438c-0.24,0.104-0.49,0.158-0.742,0.158
			c-0.244,0-0.482-0.054-0.73-0.158c-0.234-0.104-0.471-0.274-0.695-0.518c-0.354-0.517-0.809-0.934-1.355-1.253
			c-0.559-0.319-1.172-0.483-1.848-0.483c-0.529,0-1.029,0.1-1.492,0.303c-0.467,0.201-0.875,0.479-1.23,0.83
			c-0.35,0.356-0.627,0.764-0.828,1.226c-0.201,0.468-0.301,0.966-0.301,1.497c0,0.527,0.1,1.023,0.301,1.49
			c0.203,0.469,0.479,0.876,0.828,1.232c0.355,0.352,0.764,0.627,1.23,0.829c0.463,0.202,0.963,0.301,1.492,0.301
			c0.658,0,1.262-0.15,1.809-0.447c0.545-0.291,0.994-0.704,1.348-1.214c0.414-0.42,0.875-0.627,1.373-0.627
			c0.256,0,0.504,0.056,0.748,0.166c0.24,0.115,0.453,0.27,0.637,0.461c0.184,0.189,0.33,0.406,0.432,0.652
			c0.107,0.238,0.16,0.484,0.16,0.744c0,0.178-0.021,0.34-0.062,0.495C-455.129-508.34-455.203-508.183-455.318-508.022z"/>
		<path fill="#00A597" d="M-447.359-511.705l2.262-7.49c0.111-0.369,0.326-0.647,0.639-0.838c0.312-0.197,0.654-0.289,1.02-0.289
			c0.307,0,0.594,0.054,0.869,0.166c0.367,0.162,0.654,0.39,0.854,0.686c0.203,0.299,0.301,0.632,0.301,0.998
			c0,0.291-0.057,0.558-0.168,0.793l-3.973,11.63c-0.174,0.404-0.422,0.688-0.732,0.858c-0.314,0.167-0.674,0.25-1.07,0.25
			c-0.371-0.016-0.73-0.119-1.076-0.312c-0.342-0.193-0.588-0.468-0.734-0.819l-3.994-11.607c-0.113-0.238-0.17-0.497-0.17-0.766
			c0-0.371,0.098-0.706,0.301-1.003c0.201-0.295,0.486-0.524,0.854-0.686c0.305-0.128,0.602-0.19,0.893-0.19
			c0.367,0,0.705,0.091,1.01,0.289c0.307,0.19,0.52,0.471,0.629,0.838L-447.359-511.705z"/>
	</g>
	<g display="inline">
		
			<line fill="none" stroke="#00A597" stroke-width="3.7381" stroke-linecap="round" stroke-linejoin="round" stroke-miterlimit="10" x1="-467.404" y1="-488.927" x2="-441.334" y2="-488.927"/>
		
			<line fill="none" stroke="#00A597" stroke-width="3.7381" stroke-linecap="round" stroke-linejoin="round" stroke-miterlimit="10" x1="-467.404" y1="-496.872" x2="-441.334" y2="-496.872"/>
		
			<line fill="none" stroke="#00A597" stroke-width="3.7381" stroke-linecap="round" stroke-linejoin="round" stroke-miterlimit="10" x1="-467.404" y1="-480.985" x2="-441.334" y2="-480.985"/>
	</g>
	<polygon display="inline" fill="#E0E0E0" points="-451.686,-572.094 -451.686,-552.156 -430.193,-552.156 	"/>
	<g display="inline">
		<path fill="#18A294" d="M-492.475-542.841c-2.252-3.874-6.28,4.111,1.269,6.096C-492.207-539.665-492.475-542.841-492.475-542.841
			z"/>
		<path fill="#18A294" d="M-466.617-542.763c2.271-3.858,6.256,4.151-1.308,6.086C-466.91-539.587-466.617-542.763-466.617-542.763z
			"/>
		<g>
			<path fill="#FBDFDD" d="M-479.102-527.49c-6.991-0.812-15.144-5.438-15.114-15.805c0.027-9.956,5.728-16.14,14.876-16.14
				c9.196,0.03,15.082,6.382,15.05,16.182c-0.027,9.836-7.342,15.005-14.579,15.764l-0.117,0.012L-479.102-527.49z"/>
			<path fill="#18A294" d="M-479.339-558.368c0.018,0,0.035,0,0.053,0c8.91,0.029,13.958,6.202,13.931,15.112
				c-0.025,8.91-6.625,13.972-13.624,14.707c-7.482-0.869-14.196-5.833-14.17-14.743
				C-493.125-552.182-488.216-558.367-479.339-558.368 M-479.339-560.501L-479.339-560.501c-9.657,0-15.915,6.753-15.943,17.204
				c-0.03,10.361,8.043,15.938,16.058,16.868l0.234,0.027l0.234-0.025c7.461-0.783,15.504-6.381,15.534-16.823
				c0.033-10.447-6.269-17.219-16.057-17.251H-479.339L-479.339-560.501z"/>
		</g>
		<path fill="#18A294" d="M-484.044-541.545c-0.002,1.009-0.902,1.822-2.01,1.82c-1.108-0.004-2.004-0.824-2.002-1.836
			c0.004-1.005,0.902-1.82,2.01-1.819C-484.934-543.376-484.042-542.553-484.044-541.545z"/>
		<path fill="#FFFFFF" d="M-485.917-542.014c0,0.304-0.271,0.551-0.607,0.546c-0.333,0-0.605-0.245-0.605-0.549
			c0.001-0.307,0.274-0.552,0.609-0.552C-486.184-542.569-485.917-542.318-485.917-542.014z"/>
		<path fill="#18A294" d="M-469.659-541.184c-0.001,1.009-0.904,1.823-2.012,1.82c-1.106-0.002-2-0.824-1.999-1.834
			c0.005-1.008,0.906-1.822,2.013-1.82C-470.55-543.014-469.655-542.193-469.659-541.184z"/>
		<path fill="#FFFFFF" d="M-471.571-541.487c0,0.305-0.27,0.55-0.601,0.548c-0.339,0-0.606-0.243-0.606-0.551
			c0-0.302,0.271-0.554,0.607-0.549C-471.839-542.038-471.568-541.791-471.571-541.487z"/>
		<g>
			<path fill="#18A294" d="M-480.647-533.899l1.103,1.249c0.347,0.369,0.761,0.714,1.022,0.711c0.224,0.056,0.603-0.234,0.929-0.633
				c0.33-0.396,0.639-0.86,1.019-1.315c0.004,0.593-0.11,1.169-0.366,1.724c-0.123,0.281-0.306,0.545-0.559,0.796
				c-0.25,0.238-0.665,0.445-1.106,0.411c-0.882-0.14-1.272-0.748-1.566-1.25C-480.454-532.739-480.623-533.304-480.647-533.899z"/>
		</g>
		<path fill="#F7C3BF" d="M-484.502-537.885c-0.002,0.642-1.057,1.158-2.357,1.152c-1.302-0.004-2.355-0.527-2.354-1.168
			c0.003-0.64,1.061-1.156,2.362-1.152C-485.549-539.049-484.499-538.526-484.502-537.885z"/>
		<ellipse fill="#F7C3BF" cx="-470.923" cy="-537.498" rx="2.356" ry="1.157"/>
		<g>
			<path fill="#18A294" d="M-469.356-526.698c0.101-0.854,0.255-1.943,0.413-3.063c0.859-6.083,2.297-16.265,0.627-21.244
				l-0.669-1.995l0.236,2.091c0.182,1.606-1.244,4.311-1.99,5.639c-0.192-1.848-0.813-5.253-1.463-6.162l-0.256-0.356l-0.137,0.417
				c-0.211,0.641-0.38,1.429-0.56,2.263c-0.248,1.155-0.503,2.341-0.879,3.185c-0.307-2.183-1.232-4.126-1.807-5.334l-0.293-0.617
				l-0.188,0.481c-0.179,0.458-0.376,1.033-0.588,1.647c-0.483,1.406-1.074,3.122-1.645,3.977c-0.504-0.891-1.343-2.791-1.332-5.555
				l0.003-0.797l-0.416,0.68c-0.563,0.92-1.202,3.089-1.521,4.604c-0.839-1.557-0.948-1.807-0.94-4.495l0.002-0.59l-0.391,0.441
				c-0.812,0.916-1.212,2.882-1.144,5.578c-0.975-1.352-1.846-3.408-1.841-5.441l-0.442-0.039l-0.105,0.594
				c-0.295,1.659-0.809,4.548-1.02,6.012c-1.016-1.719-1.645-5.033-1.299-6.303l-0.419-0.148c-1.696,3.863-1.361,14.219,0.64,23.041
				c-2.125-5.123-4.665-15.594-4.369-18.727l0.093-0.981l-0.506,0.846c-0.316,0.53-0.602,3.341-0.5,5.864
				c-2.096-8.207-0.078-13.465,2.116-16.509c3.127-4.339,7.7-5.879,10.665-5.879c0.804,0,1.542,0.105,2.192,0.313l0.06,0.019
				l0.061-0.015c0.774-0.189,1.584-0.285,2.407-0.285c4.135,0,8.422,2.439,11.186,6.366c2.154,3.059,5.199,9.599,1.953,19.523
				c-0.533-4.36-0.406-6.727-0.32-7.575l-0.443-0.052c-0.566,4.163-3.148,12.247-4.691,17.076
				C-469.052-527.654-469.213-527.148-469.356-526.698z"/>
			<path fill="#18A294" d="M-481.28-563.35c0.781,0,1.496,0.102,2.124,0.302l0.12,0.039l0.122-0.03
				c0.757-0.185,1.549-0.279,2.354-0.279c4.064,0,8.28,2.403,11.004,6.271c2.055,2.919,4.93,9.048,2.236,18.314
				c-0.391-3.668-0.277-5.7-0.203-6.457c0.02-0.142,0.037-0.28,0.053-0.413l-0.885-0.116c-0.018,0.121-0.035,0.262-0.051,0.408
				c-0.529,3.896-2.84,11.262-4.395,16.138c0.025-0.185,0.053-0.371,0.078-0.558c0.861-6.103,2.304-16.317,0.617-21.346l-1.338-3.99
				l0.473,4.182c0.113,1.003-0.434,2.646-1.629,4.889c-0.255-1.938-0.817-4.722-1.422-5.567l-0.511-0.713l-0.274,0.834
				c-0.214,0.652-0.385,1.445-0.565,2.286c-0.171,0.795-0.355,1.652-0.585,2.381c-0.396-1.877-1.174-3.513-1.683-4.58l-0.072-0.151
				l-0.443-0.932l-0.375,0.962c-0.181,0.464-0.38,1.042-0.591,1.655c-0.424,1.232-0.93,2.705-1.422,3.599
				c-0.489-0.97-1.131-2.702-1.121-5.104l0.006-1.595l-0.832,1.36c-0.523,0.854-1.075,2.638-1.417,4.084
				c-0.572-1.107-0.638-1.559-0.631-3.857l0.003-1.18l-0.783,0.883c-0.95,1.071-1.188,3.221-1.205,4.976
				c-0.775-1.285-1.395-2.997-1.39-4.69l-0.885-0.079l-0.105,0.596c-0.255,1.432-0.672,3.782-0.918,5.344
				c-0.807-1.751-1.266-4.439-0.966-5.539l-0.838-0.296c-1.526,3.476-1.429,12.132,0.032,20.249
				c-1.807-5.445-3.576-13.282-3.335-15.824l0.185-1.963l-1.011,1.692c-0.246,0.411-0.475,2.045-0.539,3.902
				c-1.287-6.976,0.546-11.555,2.526-14.302C-488.686-561.835-484.192-563.35-481.28-563.35 M-481.28-563.796
				c-6.956,0-18.051,7.787-12.265,25.144c-0.61-2.673-0.201-7.652,0.176-8.283c-0.332,3.514,3.039,16.937,5.313,20.758
				c-2.498-9.417-2.898-20.999-1.158-24.961c-0.4,1.469,0.398,5.393,1.659,6.969c0.131-1.216,0.932-5.663,1.2-7.175
				c-0.007,2.431,1.199,4.834,2.312,6.117c-0.149-2.877,0.206-5.141,1.062-6.105c-0.009,3.035,0.136,3.04,1.263,5.153
				c0.244-1.438,0.975-4.108,1.61-5.146c-0.012,2.875,0.875,4.912,1.533,5.954c0.901-1.036,1.809-4.267,2.461-5.941
				c0.645,1.357,1.749,3.596,1.934,6.112c0.926-1.312,1.218-4.342,1.796-6.1c0.692,0.966,1.42,5.259,1.479,6.773
				c0.432-0.767,2.606-4.384,2.378-6.405c2.363,7.047-1.58,24.754-1.132,25.974c0.823-2.844,4.958-14.878,5.694-20.29
				c0.016-0.153,0.033-0.287,0.051-0.401c-0.016,0.129-0.031,0.263-0.051,0.401c-0.133,1.325-0.16,4.109,0.445,8.572
				c5.795-16.181-4.141-27.087-13.041-27.087c-0.833,0-1.658,0.096-2.46,0.292C-479.693-563.687-480.457-563.796-481.28-563.796
				L-481.28-563.796z M-470.905-544.528c-0.053,0.094-0.08,0.145-0.073,0.145c0.005,0,0.029-0.028,0.075-0.087
				C-470.904-544.489-470.904-544.509-470.905-544.528L-470.905-544.528z M-493.545-538.652c0.098,0.432,0.223,0.803,0.379,1.086
				C-493.3-537.933-493.426-538.294-493.545-538.652L-493.545-538.652z"/>
		</g>
		<path fill="#18A294" d="M-489.888-528.059c0,0-5.093-17.671-1.034-24.039l1.207-8.298c0,0-13.31,9.201-2.528,29.63"/>
		<path fill="#18A294" d="M-468.074-528.059c0,0,5.092-17.671,1.033-24.039l-1.207-8.298c0,0,13.309,9.201,2.529,29.63"/>
		<defs>
			<filter id="Adobe_OpacityMaskFilter_5_" filterUnits="userSpaceOnUse" x="-495.394" y="-559.74" width="32.699" height="11.829">
				<feColorMatrix  type="matrix" values="1 0 0 0 0  0 1 0 0 0  0 0 1 0 0  0 0 0 1 0"/>
			</filter>
		</defs>
		<mask maskUnits="userSpaceOnUse" x="-495.394" y="-559.74" width="32.699" height="11.829" id="SVGID_2_">
			<g filter="url(#Adobe_OpacityMaskFilter_5_)">
				
					<linearGradient id="SVGID_14_" gradientUnits="userSpaceOnUse" x1="-273.7148" y1="452.0605" x2="-273.7148" y2="467.9788" gradientTransform="matrix(1 0 0 -1 -206 -94)">
					<stop  offset="0" style="stop-color:#4A4A49"/>
					<stop  offset="0.7239" style="stop-color:#1D1D1B"/>
				</linearGradient>
				
					<rect x="-500.485" y="-562.621" opacity="0.82" fill="url(#SVGID_14_)" enable-background="new    " width="41.54" height="16.395"/>
			</g>
		</mask>
		<g mask="url(#SVGID_2_)">
			<path fill="#18A294" d="M-486.753-549.102c-0.904-0.236-1.754-0.489-2.554-0.751"/>
			<path fill="#18A294" d="M-483.957-548.491c-0.697-0.124-1.372-0.271-2.03-0.429"/>
			<path fill="#18A294" d="M-489.604-549.951c-2.322-0.774-4.156-1.6-5.278-2.155"/>
			<path fill="#18A294" d="M-477.323-547.917c-0.795,0.014-1.58-0.012-2.354-0.054"/>
			<path fill="#18A294" d="M-468.676-549.445c-0.944,0.337-1.891,0.616-2.833,0.833"/>
			<path fill="#18A294" d="M-473.104-548.296c-0.559,0.091-1.112,0.164-1.666,0.223"/>
			<path fill="#18A294" d="M-466.885-559.513c-4.148,1.448-13.319,3.679-23.57-0.227c-0.91,0.893-1.771,1.695-2.476,2.896
				c0,0-1.149,1.438-2.463,4.643c1.123,0.556,3.468,1.476,5.79,2.249c0.116-0.439,0.243-0.852,0.39-1.187
				c-0.088,0.325-0.113,0.773-0.095,1.284c0.802,0.264,1.653,0.516,2.555,0.751c0.16-0.92,0.308-1.744,0.396-2.244
				c0,0.828,0.143,1.651,0.369,2.427c0.659,0.157,1.333,0.304,2.03,0.429c0.161-1.29,0.482-2.289,0.974-2.844
				c-0.003,1.616,0.036,2.373,0.246,3.048c0.477,0.072,0.96,0.13,1.452,0.182c0.331-1.242,0.773-2.563,1.178-3.221
				c-0.006,1.296,0.177,2.412,0.434,3.354c0.774,0.042,1.557,0.068,2.353,0.055c0.448-1.201,0.862-2.517,1.207-3.399
				c0.385,0.809,0.928,1.935,1.346,3.24c0.554-0.059,1.108-0.131,1.666-0.223c0.24-1.076,0.447-2.179,0.72-3.005
				c0.306,0.426,0.617,1.494,0.875,2.689c0.942-0.218,1.89-0.498,2.832-0.833c0.133-0.54,0.197-1.052,0.148-1.487
				c0.139,0.404,0.247,0.847,0.346,1.315c1.422-0.541,4.1-1.884,5.488-2.747C-463.967-555.473-465.346-557.593-466.885-559.513z"/>
		</g>
	</g>
	<circle display="inline" fill="#FBDFDD" cx="-185.384" cy="-516.676" r="92.288"/>
	<circle display="inline" fill="#FBDFDD" cx="99.616" cy="-516.676" r="92.288"/>
	<g display="inline">
		<path fill="#FFFFFF" d="M-215.925-492.004c-1.455,0-2.635-1.18-2.635-2.635v-28.473c0-1.456,1.18-2.635,2.635-2.635h62.929
			c1.455,0,2.635,1.18,2.635,2.635v28.473c0,1.455-1.18,2.635-2.635,2.635H-215.925z"/>
		<path fill="#FFFFFF" d="M-152.996-523.112v28.473h-62.929v-28.473H-152.996 M-152.996-528.382h-62.929
			c-2.911,0-5.271,2.36-5.271,5.271v28.473c0,2.911,2.359,5.271,5.271,5.271h62.929c2.911,0,5.271-2.359,5.271-5.271v-28.473
			C-147.726-526.022-150.085-528.382-152.996-528.382L-152.996-528.382z"/>
	</g>
	<defs>
		
			<filter id="Adobe_OpacityMaskFilter_6_" filterUnits="userSpaceOnUse" x="-227.345" y="-563.626" width="132.603" height="167.911">
			<feColorMatrix  type="matrix" values="1 0 0 0 0  0 1 0 0 0  0 0 1 0 0  0 0 0 1 0"/>
		</filter>
	</defs>
	<mask maskUnits="userSpaceOnUse" x="-227.345" y="-563.626" width="132.603" height="167.911" id="SVGID_15_" display="inline">
		<g filter="url(#Adobe_OpacityMaskFilter_6_)">
			
				<linearGradient id="SVGID_16_" gradientUnits="userSpaceOnUse" x1="566.0439" y1="-851.333" x2="535.4364" y2="-974.44" gradientTransform="matrix(0.4804 -0.1339 0.1878 0.5329 -262.1343 71.0365)">
				<stop  offset="0" style="stop-color:#000000"/>
				<stop  offset="0.0959" style="stop-color:#333333"/>
				<stop  offset="0.3103" style="stop-color:#A0A0A0"/>
				<stop  offset="0.4586" style="stop-color:#E4E4E4"/>
				<stop  offset="0.5276" style="stop-color:#FFFFFF"/>
			</linearGradient>
			<polygon opacity="0.95" fill="url(#SVGID_16_)" points="-94.742,-468.161 -172.342,-395.715 -227.345,-484.021 
				-153.245,-563.626 			"/>
		</g>
	</mask>
	<polygon display="inline" mask="url(#SVGID_15_)" fill="#F7C3BF" points="-94.742,-468.161 -172.342,-395.715 -227.345,-484.021 
		-153.245,-563.626 	"/>
	<g display="inline">
		<path fill="#18A294" d="M-149.576-554.81v8.864c0,3.999-3.253,7.252-7.253,7.252c-3.999,0-7.252-3.253-7.252-7.252v-8.864h-4.298
			v8.864c0,3.999-3.254,7.252-7.253,7.252c-4,0-7.252-3.253-7.252-7.252v-8.864h-4.3v8.864c0,3.999-3.253,7.252-7.252,7.252
			s-7.253-3.253-7.253-7.252v-8.864h-4.298v8.864c0,3.999-3.254,7.252-7.252,7.252c-3.999,0-7.253-3.253-7.253-7.252v-8.864h-7.253
			v70.915h85.421v-70.915H-149.576z"/>
	</g>
	<g display="inline">
		
			<line fill="#18A294" stroke="#FFFFFF" stroke-width="2.7916" stroke-miterlimit="10" x1="-213.44" y1="-562.674" x2="-213.44" y2="-547.363"/>
		<path fill="#18A294" d="M-213.44-543.334c-1.669,0-3.021-1.804-3.021-4.029v-15.312c0-2.225,1.353-4.029,3.021-4.029
			s3.022,1.804,3.022,4.029v15.312C-210.418-545.138-211.771-543.334-213.44-543.334z"/>
	</g>
	<g display="inline">
		
			<line fill="#18A294" stroke="#FFFFFF" stroke-width="2.7916" stroke-miterlimit="10" x1="-194.413" y1="-562.674" x2="-194.413" y2="-547.363"/>
		<path fill="#18A294" d="M-194.413-543.334c-1.669,0-3.021-1.804-3.021-4.029v-15.312c0-2.225,1.353-4.029,3.021-4.029
			c1.67,0,3.022,1.804,3.022,4.029v15.312C-191.391-545.138-192.743-543.334-194.413-543.334z"/>
	</g>
	<g display="inline">
		
			<line fill="#18A294" stroke="#FBDFDD" stroke-width="4" stroke-miterlimit="10" x1="-175.386" y1="-562.674" x2="-175.386" y2="-547.363"/>
		<g>
			<path fill="#18A294" d="M-175.386-541.334c-2.816,0-5.022-2.648-5.022-6.029v-15.312c0-3.381,2.206-6.029,5.022-6.029
				c2.815,0,5.021,2.648,5.021,6.029v15.312C-170.364-543.982-172.57-541.334-175.386-541.334z"/>
			<path fill="#FBDFDD" d="M-175.386-566.704c1.669,0,3.021,1.804,3.021,4.029v15.312c0,2.225-1.353,4.029-3.021,4.029
				c-1.67,0-3.022-1.804-3.022-4.029v-15.312C-178.408-564.899-177.056-566.704-175.386-566.704 M-175.386-570.704
				c-3.938,0-7.022,3.527-7.022,8.029v15.312c0,4.502,3.085,8.029,7.022,8.029s7.021-3.527,7.021-8.029v-15.312
				C-168.364-567.177-171.448-570.704-175.386-570.704L-175.386-570.704z"/>
		</g>
	</g>
	<g display="inline">
		
			<line fill="#18A294" stroke="#FBDFDD" stroke-width="4" stroke-miterlimit="10" x1="-156.692" y1="-562.341" x2="-156.692" y2="-547.03"/>
		<g>
			<path fill="#18A294" d="M-156.692-541.001c-2.816,0-5.022-2.648-5.022-6.029v-15.312c0-3.381,2.206-6.029,5.022-6.029
				c2.815,0,5.021,2.648,5.021,6.029v15.312C-151.671-543.649-153.877-541.001-156.692-541.001z"/>
			<path fill="#FBDFDD" d="M-156.692-566.371c1.669,0,3.021,1.804,3.021,4.029v15.312c0,2.225-1.353,4.029-3.021,4.029
				c-1.67,0-3.022-1.804-3.022-4.029v-15.312C-159.715-564.566-158.362-566.371-156.692-566.371 M-156.692-570.371
				c-3.938,0-7.022,3.527-7.022,8.029v15.312c0,4.502,3.085,8.029,7.022,8.029s7.021-3.527,7.021-8.029v-15.312
				C-149.671-566.844-152.755-570.371-156.692-570.371L-156.692-570.371z"/>
		</g>
	</g>
	<rect x="-220.76" y="-529.022" display="inline" fill="#FFFFFF" width="69.84" height="38.681"/>
	<rect x="-215.388" y="-517.131" display="inline" fill="none" width="59.644" height="18.144"/>
	
		<text transform="matrix(1 0 0 1 -215.3877 -499.999)" display="inline" fill="#18A294" font-family="'Antipasto-ExtraBold'" font-size="26.8944">2016</text>
	<defs>
		<filter id="Adobe_OpacityMaskFilter_7_" filterUnits="userSpaceOnUse" x="51.694" y="-548.959" width="153.936" height="151.244">
			<feColorMatrix  type="matrix" values="1 0 0 0 0  0 1 0 0 0  0 0 1 0 0  0 0 0 1 0"/>
		</filter>
	</defs>
	<mask maskUnits="userSpaceOnUse" x="51.694" y="-548.959" width="153.936" height="151.244" id="SVGID_17_" display="inline">
		<g filter="url(#Adobe_OpacityMaskFilter_7_)">
			
				<linearGradient id="SVGID_18_" gradientUnits="userSpaceOnUse" x1="1107.2012" y1="-716.4502" x2="1081.4491" y2="-820.0279" gradientTransform="matrix(0.4804 -0.1339 0.1878 0.5329 -262.1343 71.0365)">
				<stop  offset="0" style="stop-color:#000000"/>
				<stop  offset="0.0959" style="stop-color:#333333"/>
				<stop  offset="0.3103" style="stop-color:#A0A0A0"/>
				<stop  offset="0.4586" style="stop-color:#E4E4E4"/>
				<stop  offset="0.5276" style="stop-color:#FFFFFF"/>
			</linearGradient>
			<polygon opacity="0.95" fill="url(#SVGID_18_)" points="204.964,-454.161 106.697,-397.715 51.694,-486.021 146.461,-549.626 			
				"/>
		</g>
	</mask>
	<polygon display="inline" mask="url(#SVGID_17_)" fill="#F7C3BF" points="205.63,-453.494 106.697,-397.715 51.694,-486.021 
		147.127,-548.959 	"/>
	
		<rect x="54.61" y="-546.274" display="inline" fill="#18A294" stroke="#18A294" stroke-width="6.693" stroke-linecap="round" stroke-linejoin="round" stroke-miterlimit="10" width="90.719" height="60.158"/>
	<g display="inline">
		<path fill="#E0E0E0" d="M100.362-488.722c-13.458-6.593-29.208-6.593-42.666,0c0-17.654,0-35.309,0-52.964
			c13.458-6.593,29.208-6.593,42.666,0C100.362-524.031,100.362-506.376,100.362-488.722z"/>
	</g>
	<g display="inline">
		<path fill="#E0E0E0" d="M143.035-488.722c-13.458-6.593-29.208-6.593-42.666,0c0-17.654,0-35.309,0-52.964
			c13.458-6.593,29.208-6.593,42.666,0C143.035-524.031,143.035-506.376,143.035-488.722z"/>
	</g>
	<g display="inline">
		<path fill="#FFFFFF" d="M99.903-489.886c-12.011-9.555-26.067-13.226-38.078-11.012c0-17.655,0-35.309,0-52.964
			c12.011-2.213,26.067,1.457,38.078,11.012C99.903-525.195,99.903-507.54,99.903-489.886z"/>
	</g>
	<g display="inline">
		<path fill="#FFFFFF" d="M100.365-489.886c12.011-9.555,26.067-13.226,38.078-11.012c0-17.655,0-35.309,0-52.964
			c-12.011-2.213-26.067,1.457-38.078,11.012C100.365-525.195,100.365-507.54,100.365-489.886z"/>
	</g>
	
		<line display="inline" fill="none" stroke="#E0E0E0" stroke-width="2.688" stroke-linecap="round" stroke-linejoin="round" stroke-miterlimit="10" x1="99.678" y1="-542.145" x2="99.678" y2="-490.528"/>
	
		<line display="inline" fill="none" stroke="#18A294" stroke-width="5.8569" stroke-linecap="round" stroke-linejoin="round" stroke-miterlimit="10" x1="88.036" y1="147.852" x2="124.572" y2="147.852"/>
	
		<line display="inline" fill="none" stroke="#18A294" stroke-width="6.3374" stroke-linecap="round" stroke-linejoin="round" stroke-miterlimit="10" x1="81.796" y1="161.238" x2="124.572" y2="161.238"/>
	<path display="inline" fill="#18A294" d="M71.562,147.977h-0.018c0.003,0.004,0.007,0.007,0.009,0.01
		c-0.002,0.005-0.006,0.008-0.009,0.011h0.018c1.706,2.219,6.865,4.951,10.616,4.172c3.905-0.812,3.877-3.979,3.87-4.183
		c0.007-0.201,0.035-3.368-3.87-4.18c-2.606-0.542-5.296,1.487-7.632,2.985C73.521,147.45,72.672,148.042,71.562,147.977z"/>
	<rect x="84.986" y="144.923" display="inline" fill="#FFFFFF" width="2.471" height="5.805"/>
	<path display="inline" fill="#18A294" d="M240.922-435v44.333c0,0-13.332,0.5-16.665-11.833
		C221.149-414,232.09-429.833,240.922-435z"/>
	<path display="inline" fill="#18A294" d="M240.839-435v44.333c0,0,13.332,0.5,16.665-11.833
		C260.611-414,249.671-429.833,240.839-435z"/>
	<path display="inline" fill="#FFFFFF" d="M-50.578,110.5"/>
	<polygon display="inline" fill="#FFFFFF" points="-41.578,126.5 -59.578,126.5 -50.578,110.5 	"/>
	<polygon display="inline" fill="#FFFFFF" points="80.75,158.31 80.75,164.166 72.174,161.237 	"/>
	<polygon display="inline" fill="#18A294" points="75.84,159.917 75.34,160.583 75.755,161.209 75.38,161.584 75.672,162.459 
		72.174,161.237 	"/>
</g>
<g id="Calque_2" display="none">
	
		<circle display="inline" fill="none" stroke="#18A294" stroke-width="2" stroke-miterlimit="10" cx="-470.384" cy="99.311" r="92.288"/>
	<polygon display="inline" fill="#FFFFFF" stroke="#18A294" stroke-width="2" stroke-miterlimit="10" points="-430.121,147.616 
		-506.752,147.616 -506.752,44.354 -451.615,44.354 -440.756,58.972 -430.121,64.292 	"/>
	<g display="inline">
		<path fill="#00A597" d="M-455.318,107.965c-0.693,0.98-1.582,1.738-2.672,2.276c-1.096,0.536-2.281,0.808-3.562,0.808
			c-1.062,0-2.059-0.2-2.986-0.602c-0.932-0.402-1.744-0.948-2.436-1.642c-0.686-0.688-1.234-1.498-1.637-2.427
			c-0.4-0.936-0.599-1.931-0.599-2.989s0.198-2.055,0.599-2.98c0.404-0.934,0.951-1.746,1.637-2.445
			c0.691-0.699,1.504-1.247,2.436-1.65c0.928-0.4,1.924-0.603,2.986-0.603c1.25,0,2.41,0.278,3.477,0.829
			c1.068,0.554,1.957,1.304,2.66,2.254c0.322,0.381,0.484,0.792,0.484,1.229c0,0.257-0.057,0.499-0.17,0.732
			c-0.111,0.234-0.258,0.44-0.434,0.624c-0.18,0.185-0.387,0.334-0.627,0.438c-0.24,0.104-0.49,0.158-0.742,0.158
			c-0.244,0-0.482-0.054-0.73-0.158c-0.234-0.104-0.471-0.274-0.695-0.518c-0.354-0.517-0.809-0.934-1.355-1.253
			c-0.559-0.319-1.172-0.483-1.848-0.483c-0.529,0-1.029,0.1-1.492,0.303c-0.467,0.201-0.875,0.479-1.23,0.83
			c-0.35,0.356-0.627,0.764-0.828,1.226c-0.201,0.468-0.301,0.966-0.301,1.497c0,0.527,0.1,1.023,0.301,1.49
			c0.203,0.469,0.479,0.876,0.828,1.232c0.355,0.352,0.764,0.627,1.23,0.829c0.463,0.202,0.963,0.301,1.492,0.301
			c0.658,0,1.262-0.15,1.809-0.447c0.545-0.291,0.994-0.704,1.348-1.214c0.414-0.42,0.875-0.627,1.373-0.627
			c0.256,0,0.504,0.056,0.748,0.166c0.24,0.115,0.453,0.27,0.637,0.461c0.184,0.189,0.33,0.406,0.432,0.652
			c0.107,0.238,0.16,0.484,0.16,0.744c0,0.178-0.021,0.34-0.062,0.495C-455.129,107.647-455.203,107.805-455.318,107.965z"/>
		<path fill="#00A597" d="M-447.359,104.282l2.262-7.49c0.111-0.369,0.326-0.647,0.639-0.838c0.312-0.197,0.654-0.289,1.02-0.289
			c0.307,0,0.594,0.054,0.869,0.166c0.367,0.162,0.654,0.39,0.854,0.686c0.203,0.299,0.301,0.632,0.301,0.998
			c0,0.291-0.057,0.558-0.168,0.793l-3.973,11.63c-0.174,0.404-0.422,0.688-0.732,0.858c-0.314,0.167-0.674,0.25-1.07,0.25
			c-0.371-0.016-0.73-0.119-1.076-0.312c-0.342-0.193-0.588-0.468-0.734-0.819l-3.994-11.607c-0.113-0.238-0.17-0.497-0.17-0.766
			c0-0.371,0.098-0.706,0.301-1.003c0.201-0.295,0.486-0.524,0.854-0.686c0.305-0.128,0.602-0.19,0.893-0.19
			c0.367,0,0.705,0.091,1.01,0.289c0.307,0.19,0.52,0.471,0.629,0.838L-447.359,104.282z"/>
	</g>
	<g display="inline">
		
			<line fill="none" stroke="#00A597" stroke-width="3.7381" stroke-linecap="round" stroke-linejoin="round" stroke-miterlimit="10" x1="-467.404" y1="127.061" x2="-441.334" y2="127.061"/>
		
			<line fill="none" stroke="#00A597" stroke-width="3.7381" stroke-linecap="round" stroke-linejoin="round" stroke-miterlimit="10" x1="-467.404" y1="119.115" x2="-441.334" y2="119.115"/>
		
			<line fill="none" stroke="#00A597" stroke-width="3.7381" stroke-linecap="round" stroke-linejoin="round" stroke-miterlimit="10" x1="-467.404" y1="135.002" x2="-441.334" y2="135.002"/>
	</g>
	<g display="inline">
		<polygon fill="#FFFFFF" points="-450.686,62.831 -450.686,46.185 -432.742,62.831 		"/>
		<path fill="#18A294" d="M-449.686,48.477l14.396,13.354h-14.396V48.477 M-451.686,43.894v19.938h21.492L-451.686,43.894
			L-451.686,43.894z"/>
	</g>
	<g display="inline">
		<path fill="#18A294" d="M-492.475,73.146c-2.252-3.874-6.28,4.111,1.269,6.096C-492.207,76.322-492.475,73.146-492.475,73.146z"/>
		<path fill="#18A294" d="M-466.617,73.225c2.271-3.858,6.256,4.151-1.308,6.086C-466.91,76.4-466.617,73.225-466.617,73.225z"/>
		<g>
			<path fill="#FFFFFF" d="M-479.102,88.498c-6.991-0.812-15.144-5.438-15.114-15.805c0.027-9.956,5.728-16.14,14.876-16.14
				c9.195,0.03,15.081,6.382,15.051,16.182c-0.028,9.836-7.343,15.005-14.58,15.764l-0.117,0.012L-479.102,88.498z"/>
			<path fill="#18A294" d="M-479.339,57.62c0.018,0,0.035,0,0.053,0c8.91,0.029,13.958,6.202,13.931,15.112
				c-0.025,8.91-6.625,13.972-13.624,14.707c-7.482-0.869-14.196-5.833-14.17-14.743C-493.125,63.805-488.216,57.62-479.339,57.62
				 M-479.339,55.486L-479.339,55.486c-9.657,0-15.915,6.753-15.944,17.204c-0.03,10.361,8.043,15.938,16.058,16.868l0.234,0.027
				l0.234-0.025c7.461-0.783,15.505-6.381,15.535-16.823c0.032-10.447-6.271-17.219-16.058-17.251H-479.339L-479.339,55.486z"/>
		</g>
		<path fill="#18A294" d="M-484.044,74.442c-0.002,1.009-0.902,1.822-2.01,1.82c-1.108-0.004-2.004-0.824-2.002-1.836
			c0.004-1.005,0.902-1.82,2.01-1.819C-484.934,72.611-484.042,73.434-484.044,74.442z"/>
		<path fill="#FFFFFF" d="M-485.917,73.973c0,0.304-0.271,0.551-0.607,0.546c-0.333,0-0.605-0.245-0.605-0.549
			c0.001-0.307,0.274-0.552,0.609-0.552C-486.184,73.418-485.917,73.669-485.917,73.973z"/>
		<path fill="#18A294" d="M-469.659,74.804c-0.001,1.009-0.904,1.823-2.012,1.82c-1.106-0.002-2-0.824-1.999-1.834
			c0.005-1.008,0.906-1.822,2.013-1.82C-470.55,72.974-469.655,73.794-469.659,74.804z"/>
		<path fill="#FFFFFF" d="M-471.571,74.5c0,0.305-0.27,0.55-0.601,0.548c-0.339,0-0.606-0.243-0.606-0.551
			c0-0.302,0.271-0.554,0.607-0.549C-471.839,73.949-471.568,74.197-471.571,74.5z"/>
		<g>
			<path fill="#18A294" d="M-480.647,82.088l1.103,1.249c0.347,0.369,0.761,0.714,1.022,0.711c0.224,0.056,0.603-0.234,0.929-0.633
				c0.33-0.396,0.639-0.86,1.019-1.315c0.004,0.593-0.11,1.169-0.366,1.724c-0.123,0.281-0.306,0.545-0.559,0.796
				c-0.25,0.238-0.665,0.445-1.106,0.411c-0.882-0.14-1.272-0.748-1.566-1.25C-480.454,83.248-480.623,82.683-480.647,82.088z"/>
		</g>
		<path fill="#FFFFFF" d="M-484.502,78.103c-0.002,0.642-1.057,1.158-2.357,1.152c-1.302-0.004-2.355-0.527-2.354-1.168
			c0.003-0.64,1.061-1.156,2.362-1.152C-485.549,76.938-484.499,77.461-484.502,78.103z"/>
		<ellipse fill="#FFFFFF" cx="-470.923" cy="78.49" rx="2.356" ry="1.157"/>
		<g>
			<path fill="#18A294" d="M-469.356,89.29c0.101-0.854,0.255-1.943,0.414-3.063c0.858-6.083,2.296-16.265,0.626-21.244
				l-0.669-1.995l0.236,2.091c0.182,1.607-1.243,4.311-1.99,5.639c-0.192-1.848-0.813-5.253-1.463-6.162l-0.256-0.356l-0.137,0.417
				c-0.211,0.641-0.38,1.429-0.56,2.263c-0.248,1.155-0.503,2.341-0.879,3.185c-0.307-2.183-1.232-4.126-1.807-5.334l-0.293-0.617
				l-0.188,0.481c-0.179,0.458-0.376,1.033-0.588,1.647c-0.483,1.406-1.074,3.122-1.645,3.977c-0.504-0.891-1.343-2.791-1.332-5.555
				l0.003-0.797l-0.416,0.68c-0.563,0.92-1.202,3.089-1.521,4.604c-0.839-1.557-0.948-1.807-0.94-4.495l0.002-0.59l-0.391,0.441
				c-0.812,0.916-1.212,2.882-1.144,5.578c-0.975-1.352-1.846-3.408-1.841-5.441l-0.442-0.039l-0.105,0.594
				c-0.295,1.659-0.809,4.548-1.02,6.012c-1.016-1.719-1.645-5.033-1.299-6.303l-0.419-0.148c-1.696,3.863-1.361,14.219,0.64,23.041
				c-2.125-5.123-4.665-15.594-4.369-18.727l0.093-0.981l-0.506,0.846c-0.316,0.53-0.602,3.341-0.5,5.864
				c-2.096-8.207-0.078-13.465,2.116-16.509c3.127-4.339,7.7-5.879,10.665-5.879c0.804,0,1.542,0.105,2.192,0.313l0.06,0.019
				l0.061-0.015c0.774-0.189,1.584-0.285,2.407-0.285c4.135,0,8.421,2.439,11.186,6.366c2.153,3.059,5.198,9.598,1.954,19.523
				c-0.534-4.36-0.406-6.727-0.321-7.574l-0.442-0.052c-0.566,4.163-3.148,12.246-4.691,17.075
				C-469.052,88.333-469.213,88.838-469.356,89.29z"/>
			<path fill="#18A294" d="M-481.28,52.637c0.781,0,1.496,0.102,2.124,0.302l0.12,0.039l0.122-0.03
				c0.757-0.185,1.549-0.279,2.354-0.279c4.063,0,8.28,2.403,11.003,6.271c2.056,2.92,4.932,9.048,2.237,18.315
				c-0.39-3.668-0.277-5.7-0.202-6.457c0.02-0.142,0.037-0.28,0.052-0.413l-0.884-0.116c-0.019,0.121-0.036,0.262-0.051,0.408
				c-0.53,3.896-2.841,11.262-4.396,16.138c0.025-0.185,0.052-0.371,0.078-0.559c0.862-6.103,2.304-16.317,0.618-21.345l-1.338-3.99
				l0.473,4.182c0.113,1.003-0.435,2.646-1.63,4.89c-0.255-1.938-0.817-4.723-1.422-5.567l-0.511-0.713l-0.274,0.834
				c-0.214,0.652-0.385,1.445-0.565,2.286c-0.171,0.795-0.355,1.652-0.585,2.381c-0.396-1.877-1.174-3.513-1.683-4.58l-0.072-0.151
				l-0.443-0.932l-0.375,0.962c-0.181,0.464-0.38,1.042-0.591,1.655c-0.424,1.232-0.93,2.705-1.422,3.599
				c-0.489-0.97-1.131-2.702-1.121-5.104l0.006-1.595l-0.832,1.36c-0.523,0.854-1.074,2.638-1.417,4.084
				c-0.572-1.107-0.638-1.559-0.631-3.857l0.003-1.18l-0.783,0.883c-0.95,1.071-1.188,3.221-1.205,4.976
				c-0.775-1.285-1.395-2.997-1.39-4.69l-0.885-0.079l-0.105,0.594c-0.254,1.433-0.672,3.783-0.918,5.346
				c-0.807-1.751-1.266-4.439-0.966-5.539l-0.838-0.296c-1.526,3.476-1.429,12.132,0.032,20.249
				c-1.807-5.445-3.576-13.282-3.335-15.824l0.185-1.963l-1.011,1.692c-0.246,0.411-0.475,2.045-0.539,3.902
				c-1.287-6.976,0.546-11.555,2.526-14.302C-488.686,54.152-484.192,52.637-481.28,52.637 M-481.28,52.191
				c-6.956,0-18.051,7.787-12.266,25.144c-0.61-2.673-0.2-7.652,0.176-8.283c-0.332,3.514,3.039,16.937,5.313,20.758
				c-2.498-9.417-2.898-20.999-1.158-24.961c-0.4,1.469,0.398,5.393,1.659,6.969c0.131-1.216,0.932-5.663,1.2-7.175
				c-0.007,2.431,1.199,4.834,2.312,6.117c-0.149-2.877,0.206-5.141,1.062-6.105c-0.009,3.035,0.136,3.04,1.263,5.153
				c0.244-1.438,0.975-4.108,1.61-5.146c-0.012,2.875,0.875,4.912,1.533,5.954c0.901-1.036,1.809-4.267,2.461-5.941
				c0.645,1.357,1.749,3.596,1.934,6.112c0.926-1.312,1.218-4.342,1.796-6.1c0.692,0.966,1.42,5.259,1.479,6.773
				c0.432-0.766,2.606-4.384,2.378-6.405c2.363,7.047-1.58,24.754-1.132,25.974c0.822-2.844,4.959-14.878,5.695-20.29
				c0.016-0.153,0.032-0.287,0.05-0.401c-0.015,0.129-0.031,0.263-0.05,0.401c-0.133,1.325-0.161,4.109,0.444,8.572
				c5.795-16.181-4.142-27.087-13.041-27.087c-0.833,0-1.658,0.096-2.46,0.292C-479.693,52.3-480.457,52.191-481.28,52.191
				L-481.28,52.191z M-470.905,71.459c-0.053,0.094-0.08,0.145-0.073,0.145c0.005,0,0.029-0.028,0.075-0.087
				C-470.904,71.498-470.904,71.479-470.905,71.459L-470.905,71.459z M-493.546,77.335c0.099,0.432,0.224,0.803,0.38,1.086
				C-493.3,78.054-493.426,77.693-493.546,77.335L-493.546,77.335z"/>
		</g>
		<path fill="#18A294" d="M-489.888,87.928c0,0-5.093-17.671-1.034-24.039l1.207-8.298c0,0-13.31,9.201-2.528,29.63"/>
		<path fill="#18A294" d="M-468.074,87.928c0,0,5.092-17.671,1.033-24.039l-1.207-8.298c0,0,13.309,9.201,2.529,29.63"/>
		<defs>
			<filter id="Adobe_OpacityMaskFilter_8_" filterUnits="userSpaceOnUse" x="-495.394" y="56.248" width="32.699" height="11.829">
				<feColorMatrix  type="matrix" values="1 0 0 0 0  0 1 0 0 0  0 0 1 0 0  0 0 0 1 0"/>
			</filter>
		</defs>
		<mask maskUnits="userSpaceOnUse" x="-495.394" y="56.248" width="32.699" height="11.829" id="SVGID_3_">
			<g filter="url(#Adobe_OpacityMaskFilter_8_)">
				
					<linearGradient id="SVGID_19_" gradientUnits="userSpaceOnUse" x1="-273.7148" y1="-163.9268" x2="-273.7148" y2="-148.0085" gradientTransform="matrix(1 0 0 -1 -206 -94)">
					<stop  offset="0" style="stop-color:#4A4A49"/>
					<stop  offset="0.7239" style="stop-color:#1D1D1B"/>
				</linearGradient>
				
					<rect x="-500.485" y="53.366" opacity="0.82" fill="url(#SVGID_19_)" enable-background="new    " width="41.54" height="16.395"/>
			</g>
		</mask>
		<g mask="url(#SVGID_3_)">
			<path fill="#18A294" d="M-486.753,66.885c-0.904-0.236-1.754-0.489-2.554-0.751"/>
			<path fill="#18A294" d="M-483.957,67.496c-0.697-0.124-1.372-0.271-2.03-0.429"/>
			<path fill="#18A294" d="M-489.604,66.036c-2.322-0.774-4.156-1.6-5.278-2.155"/>
			<path fill="#18A294" d="M-477.323,68.071c-0.795,0.014-1.58-0.012-2.354-0.054"/>
			<path fill="#18A294" d="M-468.676,66.542c-0.944,0.337-1.891,0.616-2.833,0.833"/>
			<path fill="#18A294" d="M-473.104,67.691c-0.559,0.091-1.112,0.164-1.666,0.223"/>
			<path fill="#18A294" d="M-466.885,56.474c-4.148,1.448-13.319,3.679-23.57-0.227c-0.91,0.893-1.771,1.695-2.476,2.896
				c0,0-1.149,1.438-2.463,4.643c1.123,0.556,3.468,1.476,5.79,2.249c0.116-0.439,0.243-0.852,0.39-1.187
				c-0.088,0.325-0.113,0.773-0.095,1.284c0.802,0.264,1.653,0.516,2.555,0.751c0.16-0.92,0.308-1.744,0.396-2.244
				c0,0.828,0.143,1.651,0.369,2.427c0.659,0.157,1.333,0.304,2.03,0.429c0.161-1.29,0.482-2.289,0.974-2.844
				c-0.003,1.616,0.036,2.373,0.246,3.048c0.477,0.072,0.96,0.13,1.452,0.182c0.331-1.242,0.773-2.563,1.178-3.221
				c-0.006,1.296,0.177,2.412,0.434,3.354c0.774,0.042,1.557,0.068,2.353,0.055c0.448-1.201,0.862-2.517,1.207-3.399
				c0.385,0.809,0.928,1.935,1.346,3.24c0.554-0.059,1.108-0.131,1.666-0.223c0.24-1.076,0.447-2.179,0.72-3.005
				c0.306,0.426,0.617,1.494,0.875,2.689c0.942-0.218,1.89-0.498,2.832-0.833c0.133-0.54,0.197-1.052,0.148-1.487
				c0.139,0.404,0.247,0.847,0.346,1.315c1.422-0.541,4.1-1.884,5.488-2.747C-463.967,60.514-465.346,58.394-466.885,56.474z"/>
		</g>
	</g>
	
		<circle display="inline" fill="none" stroke="#18A294" stroke-width="2" stroke-miterlimit="10" cx="-185.384" cy="99.311" r="92.288"/>
	
		<circle display="inline" fill="none" stroke="#18A294" stroke-width="2" stroke-miterlimit="10" cx="99.616" cy="99.311" r="92.288"/>
	<g display="inline">
		<path fill="#FFFFFF" d="M-215.925,123.983c-1.455,0-2.635-1.18-2.635-2.635V92.875c0-1.456,1.18-2.635,2.635-2.635h62.929
			c1.455,0,2.635,1.18,2.635,2.635v28.473c0,1.455-1.18,2.635-2.635,2.635H-215.925z"/>
		<path fill="#FFFFFF" d="M-152.996,92.875v28.473h-62.929V92.875H-152.996 M-152.996,87.605h-62.929
			c-2.911,0-5.271,2.36-5.271,5.271v28.473c0,2.911,2.359,5.271,5.271,5.271h62.929c2.911,0,5.271-2.359,5.271-5.271V92.875
			C-147.726,89.965-150.085,87.605-152.996,87.605L-152.996,87.605z"/>
	</g>
	<g display="inline">
		<path fill="#18A294" d="M-149.576,61.178v8.864c0,3.999-3.253,7.252-7.253,7.252c-3.999,0-7.252-3.253-7.252-7.252v-8.864h-4.298
			v8.864c0,3.999-3.254,7.252-7.253,7.252c-4,0-7.252-3.253-7.252-7.252v-8.864h-4.3v8.864c0,3.999-3.253,7.252-7.252,7.252
			s-7.253-3.253-7.253-7.252v-8.864h-4.298v8.864c0,3.999-3.254,7.252-7.252,7.252c-3.999,0-7.253-3.253-7.253-7.252v-8.864h-7.253
			v70.915h85.421V61.178H-149.576z"/>
	</g>
	<g display="inline">
		
			<line fill="#18A294" stroke="#FFFFFF" stroke-width="2.7916" stroke-miterlimit="10" x1="-213.44" y1="53.313" x2="-213.44" y2="68.625"/>
		<path fill="#18A294" d="M-213.44,72.653c-1.669,0-3.021-1.804-3.021-4.029V53.313c0-2.225,1.353-4.029,3.021-4.029
			s3.022,1.804,3.022,4.029v15.312C-210.418,70.85-211.771,72.653-213.44,72.653z"/>
	</g>
	<g display="inline">
		
			<line fill="#18A294" stroke="#FFFFFF" stroke-width="2.7916" stroke-miterlimit="10" x1="-194.413" y1="53.313" x2="-194.413" y2="68.625"/>
		<path fill="#18A294" d="M-194.413,72.653c-1.669,0-3.021-1.804-3.021-4.029V53.313c0-2.225,1.353-4.029,3.021-4.029
			c1.67,0,3.022,1.804,3.022,4.029v15.312C-191.391,70.85-192.743,72.653-194.413,72.653z"/>
	</g>
	<g display="inline">
		
			<line fill="#18A294" stroke="#FFFFFF" stroke-width="4" stroke-miterlimit="10" x1="-175.386" y1="53.313" x2="-175.386" y2="68.625"/>
		<g>
			<path fill="#18A294" d="M-175.386,74.653c-2.816,0-5.022-2.648-5.022-6.029V53.313c0-3.381,2.206-6.029,5.022-6.029
				c2.815,0,5.021,2.648,5.021,6.029v15.312C-170.364,72.005-172.57,74.653-175.386,74.653z"/>
			<path fill="#FFFFFF" d="M-175.386,49.284c1.669,0,3.021,1.804,3.021,4.029v15.312c0,2.225-1.353,4.029-3.021,4.029
				c-1.67,0-3.022-1.804-3.022-4.029V53.313C-178.408,51.088-177.056,49.284-175.386,49.284 M-175.386,45.284
				c-3.938,0-7.022,3.527-7.022,8.029v15.312c0,4.502,3.085,8.029,7.022,8.029s7.021-3.527,7.021-8.029V53.313
				C-168.364,48.811-171.448,45.284-175.386,45.284L-175.386,45.284z"/>
		</g>
	</g>
	<g display="inline">
		
			<line fill="#18A294" stroke="#FFFFFF" stroke-width="4" stroke-miterlimit="10" x1="-156.692" y1="53.646" x2="-156.692" y2="68.958"/>
		<g>
			<path fill="#18A294" d="M-156.692,74.986c-2.816,0-5.022-2.648-5.022-6.029V53.646c0-3.381,2.206-6.029,5.022-6.029
				c2.815,0,5.021,2.648,5.021,6.029v15.312C-151.671,72.338-153.877,74.986-156.692,74.986z"/>
			<path fill="#FFFFFF" d="M-156.692,49.617c1.669,0,3.021,1.804,3.021,4.029v15.312c0,2.225-1.353,4.029-3.021,4.029
				c-1.67,0-3.022-1.804-3.022-4.029V53.646C-159.715,51.421-158.362,49.617-156.692,49.617 M-156.692,45.617
				c-3.938,0-7.022,3.527-7.022,8.029v15.312c0,4.502,3.085,8.029,7.022,8.029s7.021-3.527,7.021-8.029V53.646
				C-149.671,49.144-152.755,45.617-156.692,45.617L-156.692,45.617z"/>
		</g>
	</g>
	<rect x="-220.76" y="86.965" display="inline" fill="#FFFFFF" width="69.84" height="38.681"/>
	<rect x="-215.388" y="98.856" display="inline" fill="none" width="59.644" height="18.144"/>
	
		<text transform="matrix(1 0 0 1 -215.3877 115.9883)" display="inline" fill="#18A294" font-family="'Antipasto-ExtraBold'" font-size="26.8944">2016</text>
	
		<rect x="54.61" y="69.713" display="inline" fill="#18A294" stroke="#18A294" stroke-width="6.693" stroke-linecap="round" stroke-linejoin="round" stroke-miterlimit="10" width="90.719" height="60.158"/>
	<g display="inline">
		<path fill="#FFFFFF" d="M100.362,127.266c-13.458-6.593-29.208-6.593-42.666,0c0-17.654,0-35.309,0-52.964
			c13.458-6.593,29.208-6.593,42.666,0C100.362,91.957,100.362,109.611,100.362,127.266z"/>
	</g>
	<g display="inline">
		<path fill="#FFFFFF" d="M143.035,127.266c-13.458-6.593-29.208-6.593-42.666,0c0-17.654,0-35.309,0-52.964
			c13.458-6.593,29.208-6.593,42.666,0C143.035,91.957,143.035,109.611,143.035,127.266z"/>
	</g>
	<g display="inline">
		<path fill="#FFFFFF" d="M99.903,126.102c-12.011-9.555-26.067-13.226-38.078-11.012c0-17.655,0-35.309,0-52.964
			c12.011-2.213,26.067,1.457,38.078,11.012C99.903,90.792,99.903,108.447,99.903,126.102z"/>
		<path fill="none" stroke="#18A294" stroke-width="2" stroke-miterlimit="10" d="M99.903,126.102
			c-12.011-9.555-26.067-13.226-38.078-11.012c0-17.655,0-35.309,0-52.964c12.011-2.213,26.067,1.457,38.078,11.012
			C99.903,90.792,99.903,108.447,99.903,126.102z"/>
	</g>
	<g display="inline">
		<path fill="#FFFFFF" d="M100.365,126.102c12.011-9.555,26.067-13.226,38.078-11.012c0-17.655,0-35.309,0-52.964
			c-12.011-2.213-26.067,1.457-38.078,11.012C100.365,90.792,100.365,108.447,100.365,126.102z"/>
		<path fill="none" stroke="#18A294" stroke-width="2" stroke-miterlimit="10" d="M100.365,126.102
			c12.011-9.555,26.067-13.226,38.078-11.012c0-17.655,0-35.309,0-52.964c-12.011-2.213-26.067,1.457-38.078,11.012
			C100.365,90.792,100.365,108.447,100.365,126.102z"/>
	</g>
	
		<line display="inline" fill="none" stroke="#18A294" stroke-width="2.688" stroke-linecap="round" stroke-linejoin="round" stroke-miterlimit="10" x1="99.678" y1="73.843" x2="99.678" y2="125.459"/>
	
		<line display="inline" fill="none" stroke="#18A294" stroke-width="6.8" stroke-linecap="round" stroke-linejoin="round" stroke-miterlimit="10" x1="88.036" y1="147.852" x2="124.572" y2="147.852"/>
	
		<line display="inline" fill="none" stroke="#18A294" stroke-width="6.9" stroke-linecap="round" stroke-linejoin="round" stroke-miterlimit="10" x1="81.796" y1="161.238" x2="124.572" y2="161.238"/>
	<path display="inline" fill="#18A294" d="M71.562,147.977h-0.018c0.003,0.004,0.007,0.007,0.009,0.01
		c-0.002,0.005-0.006,0.008-0.009,0.011h0.018c1.706,2.219,6.865,4.951,10.616,4.172c3.905-0.812,3.877-3.979,3.87-4.183
		c0.007-0.201,0.035-3.368-3.87-4.18c-2.606-0.542-5.296,1.487-7.632,2.985C73.521,147.45,72.672,148.042,71.562,147.977z"/>
	
		<rect x="84.986" y="144.923" display="inline" fill="#FFFFFF" stroke="#18A294" stroke-miterlimit="10" width="2.471" height="5.805"/>
	<path display="inline" fill="#FFFFFF" d="M-50.578,110.5"/>
	<polygon display="inline" fill="#FFFFFF" stroke="#18A294" stroke-miterlimit="10" points="80.75,158.31 80.75,164.166 
		72.174,161.237 	"/>
	<polygon display="inline" fill="#18A294" points="75.84,159.917 75.34,160.583 75.755,161.209 75.38,161.584 75.672,162.459 
		72.174,161.237 	"/>
</g>
<g id="Calque_3">
	<circle fill="none" stroke="#18A294" stroke-width="2" stroke-miterlimit="10" cx="-470.384" cy="99.311" r="92.288"/>
	<polygon fill="#FFFFFF" stroke="#18A294" stroke-width="2" stroke-miterlimit="10" points="-430.121,147.616 -506.752,147.616 
		-506.752,44.354 -451.615,44.354 -440.756,58.972 -430.121,64.292 	"/>
	<g>
		<path fill="#00A597" d="M-455.318,107.965c-0.693,0.98-1.582,1.738-2.672,2.276c-1.096,0.536-2.281,0.808-3.562,0.808
			c-1.062,0-2.059-0.2-2.986-0.602c-0.932-0.402-1.744-0.948-2.436-1.642c-0.686-0.688-1.234-1.498-1.637-2.427
			c-0.4-0.936-0.599-1.931-0.599-2.989s0.198-2.055,0.599-2.98c0.404-0.934,0.951-1.746,1.637-2.445
			c0.691-0.699,1.504-1.247,2.436-1.65c0.928-0.4,1.924-0.603,2.986-0.603c1.25,0,2.41,0.278,3.477,0.829
			c1.068,0.554,1.957,1.304,2.66,2.254c0.322,0.381,0.484,0.792,0.484,1.229c0,0.257-0.057,0.499-0.17,0.732
			c-0.111,0.234-0.258,0.44-0.434,0.624c-0.18,0.185-0.387,0.334-0.627,0.438c-0.24,0.104-0.49,0.158-0.742,0.158
			c-0.244,0-0.482-0.054-0.73-0.158c-0.234-0.104-0.471-0.274-0.695-0.518c-0.354-0.517-0.809-0.934-1.355-1.253
			c-0.559-0.319-1.172-0.483-1.848-0.483c-0.529,0-1.029,0.1-1.492,0.303c-0.467,0.201-0.875,0.479-1.23,0.83
			c-0.35,0.356-0.627,0.764-0.828,1.226c-0.201,0.468-0.301,0.966-0.301,1.497c0,0.527,0.1,1.023,0.301,1.49
			c0.203,0.469,0.479,0.876,0.828,1.232c0.355,0.352,0.764,0.627,1.23,0.829c0.463,0.202,0.963,0.301,1.492,0.301
			c0.658,0,1.262-0.15,1.809-0.447c0.545-0.291,0.994-0.704,1.348-1.214c0.414-0.42,0.875-0.627,1.373-0.627
			c0.256,0,0.504,0.056,0.748,0.166c0.24,0.115,0.453,0.27,0.637,0.461c0.184,0.189,0.33,0.406,0.432,0.652
			c0.107,0.238,0.16,0.484,0.16,0.744c0,0.178-0.021,0.34-0.062,0.495C-455.129,107.647-455.203,107.805-455.318,107.965z"/>
		<path fill="#00A597" d="M-447.359,104.282l2.262-7.49c0.111-0.369,0.326-0.647,0.639-0.838c0.312-0.197,0.654-0.289,1.02-0.289
			c0.307,0,0.594,0.054,0.869,0.166c0.367,0.162,0.654,0.39,0.854,0.686c0.203,0.299,0.301,0.632,0.301,0.998
			c0,0.291-0.057,0.558-0.168,0.793l-3.973,11.63c-0.174,0.404-0.422,0.688-0.732,0.858c-0.314,0.167-0.674,0.25-1.07,0.25
			c-0.371-0.016-0.73-0.119-1.076-0.312c-0.342-0.193-0.588-0.468-0.734-0.819l-3.994-11.607c-0.113-0.238-0.17-0.497-0.17-0.766
			c0-0.371,0.098-0.706,0.301-1.003c0.201-0.295,0.486-0.524,0.854-0.686c0.305-0.128,0.602-0.19,0.893-0.19
			c0.367,0,0.705,0.091,1.01,0.289c0.307,0.19,0.52,0.471,0.629,0.838L-447.359,104.282z"/>
	</g>
	<g>
		
			<line fill="none" stroke="#00A597" stroke-width="3.7381" stroke-linecap="round" stroke-linejoin="round" stroke-miterlimit="10" x1="-467.404" y1="127.061" x2="-441.334" y2="127.061"/>
		
			<line fill="none" stroke="#00A597" stroke-width="3.7381" stroke-linecap="round" stroke-linejoin="round" stroke-miterlimit="10" x1="-467.404" y1="119.115" x2="-441.334" y2="119.115"/>
		
			<line fill="none" stroke="#00A597" stroke-width="3.7381" stroke-linecap="round" stroke-linejoin="round" stroke-miterlimit="10" x1="-467.404" y1="135.002" x2="-441.334" y2="135.002"/>
	</g>
	<g>
		<polygon fill="#FFFFFF" points="-450.686,62.831 -450.686,46.185 -432.742,62.831 		"/>
		<path fill="#18A294" d="M-449.686,48.477l14.396,13.354h-14.396V48.477 M-451.686,43.894v19.938h21.492L-451.686,43.894
			L-451.686,43.894z"/>
	</g>
	<g>
		<path fill="#18A294" d="M-492.475,73.146c-2.252-3.874-6.28,4.111,1.269,6.096C-492.207,76.322-492.475,73.146-492.475,73.146z"/>
		<path fill="#18A294" d="M-466.617,73.225c2.271-3.858,6.256,4.151-1.308,6.086C-466.91,76.4-466.617,73.225-466.617,73.225z"/>
		<g>
			<path fill="#FBDFDD" d="M-479.102,88.498c-6.991-0.812-15.144-5.438-15.114-15.805c0.027-9.956,5.728-16.14,14.876-16.14
				c9.195,0.03,15.081,6.382,15.051,16.182c-0.028,9.836-7.343,15.005-14.58,15.764l-0.117,0.012L-479.102,88.498z"/>
			<path fill="#18A294" d="M-479.339,57.62c0.018,0,0.035,0,0.053,0c8.91,0.029,13.958,6.202,13.931,15.112
				c-0.025,8.91-6.625,13.972-13.624,14.707c-7.482-0.869-14.196-5.833-14.17-14.743C-493.125,63.805-488.216,57.62-479.339,57.62
				 M-479.339,55.486L-479.339,55.486c-9.657,0-15.915,6.753-15.944,17.204c-0.03,10.361,8.043,15.938,16.058,16.868l0.234,0.027
				l0.234-0.025c7.461-0.783,15.505-6.381,15.535-16.823c0.032-10.447-6.271-17.219-16.058-17.251H-479.339L-479.339,55.486z"/>
		</g>
		<path fill="#18A294" d="M-484.044,74.442c-0.002,1.009-0.902,1.822-2.01,1.82c-1.108-0.004-2.004-0.824-2.002-1.836
			c0.004-1.005,0.902-1.82,2.01-1.819C-484.934,72.611-484.042,73.434-484.044,74.442z"/>
		<path fill="#FFFFFF" d="M-485.917,73.973c0,0.304-0.271,0.551-0.607,0.546c-0.333,0-0.605-0.245-0.605-0.549
			c0.001-0.307,0.274-0.552,0.609-0.552C-486.184,73.418-485.917,73.669-485.917,73.973z"/>
		<path fill="#18A294" d="M-469.659,74.804c-0.001,1.009-0.904,1.823-2.012,1.82c-1.106-0.002-2-0.824-1.999-1.834
			c0.005-1.008,0.906-1.822,2.013-1.82C-470.55,72.974-469.655,73.794-469.659,74.804z"/>
		<path fill="#FFFFFF" d="M-471.571,74.5c0,0.305-0.27,0.55-0.601,0.548c-0.339,0-0.606-0.243-0.606-0.551
			c0-0.302,0.271-0.554,0.607-0.549C-471.839,73.949-471.568,74.197-471.571,74.5z"/>
		<g>
			<path fill="#18A294" d="M-480.647,82.088l1.103,1.249c0.347,0.369,0.761,0.714,1.022,0.711c0.224,0.056,0.603-0.234,0.929-0.633
				c0.33-0.396,0.639-0.86,1.019-1.315c0.004,0.593-0.11,1.169-0.366,1.724c-0.123,0.281-0.306,0.545-0.559,0.796
				c-0.25,0.238-0.665,0.445-1.106,0.411c-0.882-0.14-1.272-0.748-1.566-1.25C-480.454,83.248-480.623,82.683-480.647,82.088z"/>
		</g>
		<path fill="#FFFFFF" d="M-484.502,78.103c-0.002,0.642-1.057,1.158-2.357,1.152c-1.302-0.004-2.355-0.527-2.354-1.168
			c0.003-0.64,1.061-1.156,2.362-1.152C-485.549,76.938-484.499,77.461-484.502,78.103z"/>
		<ellipse fill="#FFFFFF" cx="-470.923" cy="78.49" rx="2.356" ry="1.157"/>
		<g>
			<path fill="#18A294" d="M-469.356,89.29c0.101-0.854,0.255-1.943,0.414-3.063c0.858-6.083,2.296-16.265,0.626-21.244
				l-0.669-1.995l0.236,2.091c0.182,1.607-1.243,4.311-1.99,5.639c-0.192-1.848-0.813-5.253-1.463-6.162l-0.256-0.356l-0.137,0.417
				c-0.211,0.641-0.38,1.429-0.56,2.263c-0.248,1.155-0.503,2.341-0.879,3.185c-0.307-2.183-1.232-4.126-1.807-5.334l-0.293-0.617
				l-0.188,0.481c-0.179,0.458-0.376,1.033-0.588,1.647c-0.483,1.406-1.074,3.122-1.645,3.977c-0.504-0.891-1.343-2.791-1.332-5.555
				l0.003-0.797l-0.416,0.68c-0.563,0.92-1.202,3.089-1.521,4.604c-0.839-1.557-0.948-1.807-0.94-4.495l0.002-0.59l-0.391,0.441
				c-0.812,0.916-1.212,2.882-1.144,5.578c-0.975-1.352-1.846-3.408-1.841-5.441l-0.442-0.039l-0.105,0.594
				c-0.295,1.659-0.809,4.548-1.02,6.012c-1.016-1.719-1.645-5.033-1.299-6.303l-0.419-0.148c-1.696,3.863-1.361,14.219,0.64,23.041
				c-2.125-5.123-4.665-15.594-4.369-18.727l0.093-0.981l-0.506,0.846c-0.316,0.53-0.602,3.341-0.5,5.864
				c-2.096-8.207-0.078-13.465,2.116-16.509c3.127-4.339,7.7-5.879,10.665-5.879c0.804,0,1.542,0.105,2.192,0.313l0.06,0.019
				l0.061-0.015c0.774-0.189,1.584-0.285,2.407-0.285c4.135,0,8.421,2.439,11.186,6.366c2.153,3.059,5.198,9.598,1.954,19.523
				c-0.534-4.36-0.406-6.727-0.321-7.574l-0.442-0.052c-0.566,4.163-3.148,12.246-4.691,17.075
				C-469.052,88.333-469.213,88.838-469.356,89.29z"/>
			<path fill="#18A294" d="M-481.28,52.637c0.781,0,1.496,0.102,2.124,0.302l0.12,0.039l0.122-0.03
				c0.757-0.185,1.549-0.279,2.354-0.279c4.063,0,8.28,2.403,11.003,6.271c2.056,2.92,4.932,9.048,2.237,18.315
				c-0.39-3.668-0.277-5.7-0.202-6.457c0.02-0.142,0.037-0.28,0.052-0.413l-0.884-0.116c-0.019,0.121-0.036,0.262-0.051,0.408
				c-0.53,3.896-2.841,11.262-4.396,16.138c0.025-0.185,0.052-0.371,0.078-0.559c0.862-6.103,2.304-16.317,0.618-21.345l-1.338-3.99
				l0.473,4.182c0.113,1.003-0.435,2.646-1.63,4.89c-0.255-1.938-0.817-4.723-1.422-5.567l-0.511-0.713l-0.274,0.834
				c-0.214,0.652-0.385,1.445-0.565,2.286c-0.171,0.795-0.355,1.652-0.585,2.381c-0.396-1.877-1.174-3.513-1.683-4.58l-0.072-0.151
				l-0.443-0.932l-0.375,0.962c-0.181,0.464-0.38,1.042-0.591,1.655c-0.424,1.232-0.93,2.705-1.422,3.599
				c-0.489-0.97-1.131-2.702-1.121-5.104l0.006-1.595l-0.832,1.36c-0.523,0.854-1.074,2.638-1.417,4.084
				c-0.572-1.107-0.638-1.559-0.631-3.857l0.003-1.18l-0.783,0.883c-0.95,1.071-1.188,3.221-1.205,4.976
				c-0.775-1.285-1.395-2.997-1.39-4.69l-0.885-0.079l-0.105,0.594c-0.254,1.433-0.672,3.783-0.918,5.346
				c-0.807-1.751-1.266-4.439-0.966-5.539l-0.838-0.296c-1.526,3.476-1.429,12.132,0.032,20.249
				c-1.807-5.445-3.576-13.282-3.335-15.824l0.185-1.963l-1.011,1.692c-0.246,0.411-0.475,2.045-0.539,3.902
				c-1.287-6.976,0.546-11.555,2.526-14.302C-488.686,54.152-484.192,52.637-481.28,52.637 M-481.28,52.191
				c-6.956,0-18.051,7.787-12.266,25.144c-0.61-2.673-0.2-7.652,0.176-8.283c-0.332,3.514,3.039,16.937,5.313,20.758
				c-2.498-9.417-2.898-20.999-1.158-24.961c-0.4,1.469,0.398,5.393,1.659,6.969c0.131-1.216,0.932-5.663,1.2-7.175
				c-0.007,2.431,1.199,4.834,2.312,6.117c-0.149-2.877,0.206-5.141,1.062-6.105c-0.009,3.035,0.136,3.04,1.263,5.153
				c0.244-1.438,0.975-4.108,1.61-5.146c-0.012,2.875,0.875,4.912,1.533,5.954c0.901-1.036,1.809-4.267,2.461-5.941
				c0.645,1.357,1.749,3.596,1.934,6.112c0.926-1.312,1.218-4.342,1.796-6.1c0.692,0.966,1.42,5.259,1.479,6.773
				c0.432-0.766,2.606-4.384,2.378-6.405c2.363,7.047-1.58,24.754-1.132,25.974c0.822-2.844,4.959-14.878,5.695-20.29
				c0.016-0.153,0.032-0.287,0.05-0.401c-0.015,0.129-0.031,0.263-0.05,0.401c-0.133,1.325-0.161,4.109,0.444,8.572
				c5.795-16.181-4.142-27.087-13.041-27.087c-0.833,0-1.658,0.096-2.46,0.292C-479.693,52.3-480.457,52.191-481.28,52.191
				L-481.28,52.191z M-470.905,71.459c-0.053,0.094-0.08,0.145-0.073,0.145c0.005,0,0.029-0.028,0.075-0.087
				C-470.904,71.498-470.904,71.479-470.905,71.459L-470.905,71.459z M-493.546,77.335c0.099,0.432,0.224,0.803,0.38,1.086
				C-493.3,78.054-493.426,77.693-493.546,77.335L-493.546,77.335z"/>
		</g>
		<path fill="#18A294" d="M-489.888,87.928c0,0-5.093-17.671-1.034-24.039l1.207-8.298c0,0-13.31,9.201-2.528,29.63"/>
		<path fill="#18A294" d="M-468.074,87.928c0,0,5.092-17.671,1.033-24.039l-1.207-8.298c0,0,13.309,9.201,2.529,29.63"/>
		<defs>
			<filter id="Adobe_OpacityMaskFilter_9_" filterUnits="userSpaceOnUse" x="-495.394" y="56.248" width="32.699" height="11.829">
				<feColorMatrix  type="matrix" values="1 0 0 0 0  0 1 0 0 0  0 0 1 0 0  0 0 0 1 0"/>
			</filter>
		</defs>
		<mask maskUnits="userSpaceOnUse" x="-495.394" y="56.248" width="32.699" height="11.829" id="SVGID_4_">
			<g filter="url(#Adobe_OpacityMaskFilter_9_)">
				
					<linearGradient id="SVGID_20_" gradientUnits="userSpaceOnUse" x1="-273.7148" y1="-163.9268" x2="-273.7148" y2="-148.0085" gradientTransform="matrix(1 0 0 -1 -206 -94)">
					<stop  offset="0" style="stop-color:#4A4A49"/>
					<stop  offset="0.7239" style="stop-color:#1D1D1B"/>
				</linearGradient>
				
					<rect x="-500.485" y="53.366" opacity="0.82" fill="url(#SVGID_20_)" enable-background="new    " width="41.54" height="16.395"/>
			</g>
		</mask>
		<g mask="url(#SVGID_4_)">
			<path fill="#18A294" d="M-486.753,66.885c-0.904-0.236-1.754-0.489-2.554-0.751"/>
			<path fill="#18A294" d="M-483.957,67.496c-0.697-0.124-1.372-0.271-2.03-0.429"/>
			<path fill="#18A294" d="M-489.604,66.036c-2.322-0.774-4.156-1.6-5.278-2.155"/>
			<path fill="#18A294" d="M-477.323,68.071c-0.795,0.014-1.58-0.012-2.354-0.054"/>
			<path fill="#18A294" d="M-468.676,66.542c-0.944,0.337-1.891,0.616-2.833,0.833"/>
			<path fill="#18A294" d="M-473.104,67.691c-0.559,0.091-1.112,0.164-1.666,0.223"/>
			<path fill="#18A294" d="M-466.885,56.474c-4.148,1.448-13.319,3.679-23.57-0.227c-0.91,0.893-1.771,1.695-2.476,2.896
				c0,0-1.149,1.438-2.463,4.643c1.123,0.556,3.468,1.476,5.79,2.249c0.116-0.439,0.243-0.852,0.39-1.187
				c-0.088,0.325-0.113,0.773-0.095,1.284c0.802,0.264,1.653,0.516,2.555,0.751c0.16-0.92,0.308-1.744,0.396-2.244
				c0,0.828,0.143,1.651,0.369,2.427c0.659,0.157,1.333,0.304,2.03,0.429c0.161-1.29,0.482-2.289,0.974-2.844
				c-0.003,1.616,0.036,2.373,0.246,3.048c0.477,0.072,0.96,0.13,1.452,0.182c0.331-1.242,0.773-2.563,1.178-3.221
				c-0.006,1.296,0.177,2.412,0.434,3.354c0.774,0.042,1.557,0.068,2.353,0.055c0.448-1.201,0.862-2.517,1.207-3.399
				c0.385,0.809,0.928,1.935,1.346,3.24c0.554-0.059,1.108-0.131,1.666-0.223c0.24-1.076,0.447-2.179,0.72-3.005
				c0.306,0.426,0.617,1.494,0.875,2.689c0.942-0.218,1.89-0.498,2.832-0.833c0.133-0.54,0.197-1.052,0.148-1.487
				c0.139,0.404,0.247,0.847,0.346,1.315c1.422-0.541,4.1-1.884,5.488-2.747C-463.967,60.514-465.346,58.394-466.885,56.474z"/>
		</g>
	</g>
	<circle fill="none" stroke="#18A294" stroke-width="2" stroke-miterlimit="10" cx="-185.384" cy="99.311" r="92.288"/>
	<circle fill="none" stroke="#18A294" stroke-width="2" stroke-miterlimit="10" cx="99.616" cy="99.311" r="92.288"/>
	<g>
		<path fill="#FFFFFF" d="M-215.925,123.983c-1.455,0-2.635-1.18-2.635-2.635V92.875c0-1.456,1.18-2.635,2.635-2.635h62.929
			c1.455,0,2.635,1.18,2.635,2.635v28.473c0,1.455-1.18,2.635-2.635,2.635H-215.925z"/>
		<path fill="#FFFFFF" d="M-152.996,92.875v28.473h-62.929V92.875H-152.996 M-152.996,87.605h-62.929
			c-2.911,0-5.271,2.36-5.271,5.271v28.473c0,2.911,2.359,5.271,5.271,5.271h62.929c2.911,0,5.271-2.359,5.271-5.271V92.875
			C-147.726,89.965-150.085,87.605-152.996,87.605L-152.996,87.605z"/>
	</g>
	<g>
		<path fill="#18A294" d="M-149.576,61.178v8.864c0,3.999-3.253,7.252-7.253,7.252c-3.999,0-7.252-3.253-7.252-7.252v-8.864h-4.298
			v8.864c0,3.999-3.254,7.252-7.253,7.252c-4,0-7.252-3.253-7.252-7.252v-8.864h-4.3v8.864c0,3.999-3.253,7.252-7.252,7.252
			s-7.253-3.253-7.253-7.252v-8.864h-4.298v8.864c0,3.999-3.254,7.252-7.252,7.252c-3.999,0-7.253-3.253-7.253-7.252v-8.864h-7.253
			v70.915h85.421V61.178H-149.576z"/>
	</g>
	<g>
		
			<line fill="#18A294" stroke="#FFFFFF" stroke-width="2.7916" stroke-miterlimit="10" x1="-213.44" y1="53.313" x2="-213.44" y2="68.625"/>
		<path fill="#18A294" d="M-213.44,72.653c-1.669,0-3.021-1.804-3.021-4.029V53.313c0-2.225,1.353-4.029,3.021-4.029
			s3.022,1.804,3.022,4.029v15.312C-210.418,70.85-211.771,72.653-213.44,72.653z"/>
	</g>
	<g>
		
			<line fill="#18A294" stroke="#FFFFFF" stroke-width="2.7916" stroke-miterlimit="10" x1="-194.413" y1="53.313" x2="-194.413" y2="68.625"/>
		<path fill="#18A294" d="M-194.413,72.653c-1.669,0-3.021-1.804-3.021-4.029V53.313c0-2.225,1.353-4.029,3.021-4.029
			c1.67,0,3.022,1.804,3.022,4.029v15.312C-191.391,70.85-192.743,72.653-194.413,72.653z"/>
	</g>
	<g>
		
			<line fill="#18A294" stroke="#FFFFFF" stroke-width="4" stroke-miterlimit="10" x1="-175.386" y1="53.313" x2="-175.386" y2="68.625"/>
		<g>
			<path fill="#18A294" d="M-175.386,74.653c-2.816,0-5.022-2.648-5.022-6.029V53.313c0-3.381,2.206-6.029,5.022-6.029
				c2.815,0,5.021,2.648,5.021,6.029v15.312C-170.364,72.005-172.57,74.653-175.386,74.653z"/>
			<path fill="#FFFFFF" d="M-175.386,49.284c1.669,0,3.021,1.804,3.021,4.029v15.312c0,2.225-1.353,4.029-3.021,4.029
				c-1.67,0-3.022-1.804-3.022-4.029V53.313C-178.408,51.088-177.056,49.284-175.386,49.284 M-175.386,45.284
				c-3.938,0-7.022,3.527-7.022,8.029v15.312c0,4.502,3.085,8.029,7.022,8.029s7.021-3.527,7.021-8.029V53.313
				C-168.364,48.811-171.448,45.284-175.386,45.284L-175.386,45.284z"/>
		</g>
	</g>
	<g>
		
			<line fill="#18A294" stroke="#FFFFFF" stroke-width="4" stroke-miterlimit="10" x1="-156.692" y1="53.646" x2="-156.692" y2="68.958"/>
		<g>
			<path fill="#18A294" d="M-156.692,74.986c-2.816,0-5.022-2.648-5.022-6.029V53.646c0-3.381,2.206-6.029,5.022-6.029
				c2.815,0,5.021,2.648,5.021,6.029v15.312C-151.671,72.338-153.877,74.986-156.692,74.986z"/>
			<path fill="#FFFFFF" d="M-156.692,49.617c1.669,0,3.021,1.804,3.021,4.029v15.312c0,2.225-1.353,4.029-3.021,4.029
				c-1.67,0-3.022-1.804-3.022-4.029V53.646C-159.715,51.421-158.362,49.617-156.692,49.617 M-156.692,45.617
				c-3.938,0-7.022,3.527-7.022,8.029v15.312c0,4.502,3.085,8.029,7.022,8.029s7.021-3.527,7.021-8.029V53.646
				C-149.671,49.144-152.755,45.617-156.692,45.617L-156.692,45.617z"/>
		</g>
	</g>
	<rect x="-220.76" y="86.965" fill="#FBDFDD" width="69.84" height="38.681"/>
	<rect x="-215.388" y="98.856" fill="none" width="59.644" height="18.144"/>
	<text transform="matrix(1 0 0 1 -215.3877 115.9883)" fill="#18A294" font-family="'Antipasto-ExtraBold'" font-size="26.8944">2016</text>
	
		<rect x="54.61" y="69.713" fill="#18A294" stroke="#18A294" stroke-width="6.693" stroke-linecap="round" stroke-linejoin="round" stroke-miterlimit="10" width="90.719" height="60.158"/>
	<g>
		<path fill="#FFFFFF" d="M100.362,127.266c-13.458-6.593-29.208-6.593-42.666,0c0-17.654,0-35.309,0-52.964
			c13.458-6.593,29.208-6.593,42.666,0C100.362,91.957,100.362,109.611,100.362,127.266z"/>
	</g>
	<g>
		<path fill="#FFFFFF" d="M143.035,127.266c-13.458-6.593-29.208-6.593-42.666,0c0-17.654,0-35.309,0-52.964
			c13.458-6.593,29.208-6.593,42.666,0C143.035,91.957,143.035,109.611,143.035,127.266z"/>
	</g>
	<g>
		<path fill="#FFFFFF" d="M99.903,126.102c-12.011-9.555-26.067-13.226-38.078-11.012c0-17.655,0-35.309,0-52.964
			c12.011-2.213,26.067,1.457,38.078,11.012C99.903,90.792,99.903,108.447,99.903,126.102z"/>
		<path fill="none" stroke="#18A294" stroke-width="2" stroke-miterlimit="10" d="M99.903,126.102
			c-12.011-9.555-26.067-13.226-38.078-11.012c0-17.655,0-35.309,0-52.964c12.011-2.213,26.067,1.457,38.078,11.012
			C99.903,90.792,99.903,108.447,99.903,126.102z"/>
	</g>
	<g>
		<path fill="#FFFFFF" d="M100.365,126.102c12.011-9.555,26.067-13.226,38.078-11.012c0-17.655,0-35.309,0-52.964
			c-12.011-2.213-26.067,1.457-38.078,11.012C100.365,90.792,100.365,108.447,100.365,126.102z"/>
		<path fill="none" stroke="#18A294" stroke-width="2" stroke-miterlimit="10" d="M100.365,126.102
			c12.011-9.555,26.067-13.226,38.078-11.012c0-17.655,0-35.309,0-52.964c-12.011-2.213-26.067,1.457-38.078,11.012
			C100.365,90.792,100.365,108.447,100.365,126.102z"/>
	</g>
	
		<line fill="none" stroke="#18A294" stroke-width="2.688" stroke-linecap="round" stroke-linejoin="round" stroke-miterlimit="10" x1="99.678" y1="73.843" x2="99.678" y2="125.459"/>
	
		<line fill="none" stroke="#18A294" stroke-width="6.8" stroke-linecap="round" stroke-linejoin="round" stroke-miterlimit="10" x1="88.036" y1="147.852" x2="124.572" y2="147.852"/>
	
		<line fill="none" stroke="#18A294" stroke-width="6.9" stroke-linecap="round" stroke-linejoin="round" stroke-miterlimit="10" x1="81.796" y1="161.238" x2="124.572" y2="161.238"/>
	<g>
		<path fill="#F7C3BF" d="M80.426,152.301c-3.444,0-7.839-2.819-10.015-4.271c0.83-0.282,1.818-0.671,2.497-1.106
			c0.294-0.188,0.594-0.385,0.896-0.584c2.114-1.385,4.511-2.954,6.75-2.954c0.316,0,0.629,0.031,0.928,0.094
			c4.167,0.865,4.105,4.196,4.102,4.338c0.004,0.181,0.064,3.517-4.102,4.382C81.155,152.267,80.8,152.301,80.426,152.301
			L80.426,152.301z"/>
		<path fill="#18A294" d="M80.555,143.976c0.276,0,0.548,0.027,0.808,0.081c3.609,0.75,3.64,3.438,3.631,3.74l-0.001,0.041
			l0.001,0.036c0.009,0.305-0.02,2.996-3.631,3.746c-0.288,0.06-0.604,0.09-0.937,0.09c-2.829,0-6.418-2.058-8.714-3.533
			c0.549-0.225,1.083-0.479,1.515-0.757c0.296-0.189,0.597-0.387,0.902-0.587C76.174,145.493,78.491,143.976,80.555,143.976
			 M80.555,142.794c-2.744,0-5.52,2.062-7.966,3.632c-1.211,0.777-3.537,1.407-3.535,1.41c1.41,0.895,7.032,5.056,11.372,5.056
			c0.405,0,0.799-0.037,1.177-0.115c4.612-0.958,4.579-4.7,4.571-4.94c0.008-0.237,0.041-3.978-4.571-4.936
			C81.254,142.828,80.904,142.794,80.555,142.794L80.555,142.794z"/>
	</g>
	<rect x="84.986" y="144.923" fill="#FFFFFF" stroke="#18A294" stroke-miterlimit="10" width="2.471" height="5.805"/>
	<path fill="#FFFFFF" d="M-50.578,110.5"/>
	<polygon fill="#FFFFFF" stroke="#18A294" stroke-miterlimit="10" points="80.75,158.31 80.75,164.166 72.174,161.237 	"/>
	<polygon fill="#18A294" points="75.84,159.917 75.34,160.583 75.755,161.209 75.38,161.584 75.672,162.459 72.174,161.237 	"/>
</g>
</svg>
