<?xml version="1.0" encoding="utf-8"?>
<!-- Generator: Adobe Illustrator 15.1.0, SVG Export Plug-In . SVG Version: 6.00 Build 0)  -->
<!DOCTYPE svg PUBLIC "-//W3C//DTD SVG 1.1//EN" "http://www.w3.org/Graphics/SVG/1.1/DTD/svg11.dtd">
<svg version="1.1" id="Calque_1" xmlns="http://www.w3.org/2000/svg" xmlns:xlink="http://www.w3.org/1999/xlink" x="0px" y="0px"
	 width="200px" height="200px" viewBox="0 0 200 200" enable-background="new 0 0 200 200" xml:space="preserve">
<rect x="145.49" y="29.116" transform="matrix(0.8736 -0.4866 0.4866 0.8736 2.6064 80.2866)" opacity="0.5" fill="none" stroke="#FADEDC" stroke-width="0.7184" stroke-linecap="round" stroke-linejoin="round" stroke-miterlimit="10" width="20.791" height="12.018"/>
<polyline opacity="0.5" fill="none" stroke="#FADEDC" stroke-width="0.7867" stroke-linecap="round" stroke-linejoin="round" stroke-miterlimit="10" points="
	143.88,34.934 156.469,36.171 162.044,24.817 "/>
<rect x="26.918" y="29.116" transform="matrix(0.8231 0.5679 -0.5679 0.8231 26.546 -14.9761)" opacity="0.5" fill="none" stroke="#FADEDC" stroke-width="0.7184" stroke-linecap="round" stroke-linejoin="round" stroke-miterlimit="10" width="20.791" height="12.018"/>
<polyline opacity="0.5" fill="none" stroke="#FADEDC" stroke-width="0.7867" stroke-linecap="round" stroke-linejoin="round" stroke-miterlimit="10" points="
	32.168,24.275 36.633,36.111 49.282,36.082 "/>
<rect x="82.263" y="90.049" transform="matrix(0.8302 0.5574 -0.5574 0.8302 69.2714 -35.3413)" opacity="0.5" fill="none" stroke="#FADEDC" stroke-width="0.7184" stroke-linecap="round" stroke-linejoin="round" stroke-miterlimit="10" width="20.791" height="12.017"/>
<polyline opacity="0.5" fill="none" stroke="#FADEDC" stroke-width="0.7867" stroke-linecap="round" stroke-linejoin="round" stroke-miterlimit="10" points="
	87.377,85.275 91.991,97.052 104.639,96.864 "/>
<rect x="26.917" y="157.024" transform="matrix(0.8422 0.5392 -0.5392 0.8422 93.7899 5.6088)" opacity="0.5" fill="none" stroke="#FADEDC" stroke-width="0.7184" stroke-linecap="round" stroke-linejoin="round" stroke-miterlimit="10" width="20.791" height="12.016"/>
<polyline opacity="0.5" fill="none" stroke="#FADEDC" stroke-width="0.7867" stroke-linecap="round" stroke-linejoin="round" stroke-miterlimit="10" points="
	31.797,152.367 36.667,164.041 49.308,163.577 "/>
<rect x="145.49" y="157.024" transform="matrix(0.9863 -0.1647 0.1647 0.9863 -24.7251 27.9042)" opacity="0.5" fill="none" stroke="#FADEDC" stroke-width="0.7184" stroke-linecap="round" stroke-linejoin="round" stroke-miterlimit="10" width="20.792" height="12.016"/>
<polyline opacity="0.5" fill="none" stroke="#FADEDC" stroke-width="0.7867" stroke-linecap="round" stroke-linejoin="round" stroke-miterlimit="10" points="
	144.643,158.818 156.084,164.213 165.15,155.393 "/>
</svg>
